<ttFont>
    <TTGlyph name="A" xMin="-30" yMin="-12" xMax="634" yMax="710">
      <contour>
        <pt x="95" y="13" on="1"/>
        <pt x="88" y="-9" on="0"/>
        <pt x="9" y="-9" on="0"/>
        <pt x="-30" y="18" on="1"/>
        <pt x="1" y="102" on="0"/>
        <pt x="186" y="493" on="0"/>
        <pt x="217" y="589" on="1"/>
        <pt x="220" y="601" on="0"/>
        <pt x="220" y="618" on="0"/>
        <pt x="206" y="648" on="0"/>
        <pt x="198" y="657" on="1"/>
        <pt x="191" y="666" on="1"/>
        <pt x="195" y="686" on="1"/>
        <pt x="284" y="710" on="0"/>
        <pt x="406" y="710" on="1"/>
        <pt x="483" y="706" on="1"/>
        <pt x="493" y="697" on="0"/>
        <pt x="513" y="621" on="0"/>
        <pt x="519" y="469" on="0"/>
        <pt x="520" y="260" on="1"/>
        <pt x="521" y="99" on="0"/>
        <pt x="560" y="99" on="1"/>
        <pt x="570" y="99" on="0"/>
        <pt x="603" y="109" on="1"/>
        <pt x="613" y="112" on="1"/>
        <pt x="634" y="55" on="1"/>
        <pt x="593" y="24" on="0"/>
        <pt x="483" y="-12" on="0"/>
        <pt x="439" y="-12" on="1"/>
        <pt x="375" y="-12" on="0"/>
        <pt x="328" y="67" on="0"/>
        <pt x="328" y="192" on="0"/>
        <pt x="329" y="216" on="1"/>
        <pt x="310" y="220" on="0"/>
        <pt x="200" y="220" on="0"/>
        <pt x="160" y="209" on="1"/>
        <pt x="123" y="110" on="0"/>
      </contour>
      <contour>
        <pt x="333" y="300" on="1"/>
        <pt x="338" y="387" on="0"/>
        <pt x="338" y="563" on="0"/>
        <pt x="328" y="603" on="1"/>
        <pt x="318" y="603" on="0"/>
        <pt x="314" y="601" on="1"/>
        <pt x="292" y="534" on="0"/>
        <pt x="196" y="300" on="1"/>
      </contour>
    </TTGlyph>
    <TTGlyph name="AE" xMin="-30" yMin="-12" xMax="751" yMax="710">
      <contour>
        <pt x="503" y="375" on="1"/>
        <pt x="558" y="382" on="0"/>
        <pt x="685" y="382" on="0"/>
        <pt x="705" y="373" on="1"/>
        <pt x="705" y="342" on="0"/>
        <pt x="692" y="303" on="1"/>
        <pt x="688" y="291" on="1"/>
        <pt x="634" y="300" on="0"/>
        <pt x="598" y="300" on="1"/>
        <pt x="541" y="300" on="0"/>
        <pt x="508" y="294" on="1"/>
        <pt x="497" y="292" on="1"/>
        <pt x="495" y="276" on="0"/>
        <pt x="495" y="241" on="1"/>
        <pt x="495" y="153" on="0"/>
        <pt x="528" y="93" on="0"/>
        <pt x="564" y="93" on="1"/>
        <pt x="630" y="93" on="0"/>
        <pt x="730" y="136" on="1"/>
        <pt x="751" y="77" on="1"/>
        <pt x="622" y="-12" on="0"/>
        <pt x="487" y="-12" on="1"/>
        <pt x="392" y="-12" on="0"/>
        <pt x="305" y="94" on="0"/>
        <pt x="305" y="197" on="1"/>
        <pt x="305" y="250" on="0"/>
        <pt x="306" y="262" on="1"/>
        <pt x="278" y="261" on="0"/>
        <pt x="189" y="236" on="0"/>
        <pt x="162" y="220" on="1"/>
        <pt x="143" y="169" on="0"/>
        <pt x="99" y="30" on="0"/>
        <pt x="94" y="15" on="1"/>
        <pt x="84" y="-9" on="0"/>
        <pt x="10" y="-9" on="0"/>
        <pt x="-30" y="18" on="1"/>
        <pt x="-17" y="70" on="0"/>
        <pt x="227" y="582" on="0"/>
        <pt x="227" y="611" on="1"/>
        <pt x="227" y="630" on="0"/>
        <pt x="208" y="657" on="1"/>
        <pt x="201" y="666" on="1"/>
        <pt x="206" y="686" on="1"/>
        <pt x="302" y="710" on="0"/>
        <pt x="437" y="710" on="1"/>
        <pt x="664" y="706" on="1"/>
        <pt x="696" y="706" on="0"/>
        <pt x="738" y="708" on="1"/>
        <pt x="741" y="683" on="0"/>
        <pt x="741" y="666" on="1"/>
        <pt x="741" y="617" on="0"/>
        <pt x="705" y="617" on="1"/>
        <pt x="698" y="617" on="0"/>
        <pt x="593" y="632" on="0"/>
        <pt x="555" y="632" on="0"/>
        <pt x="534" y="629" on="1"/>
        <pt x="503" y="445" on="0"/>
      </contour>
      <contour>
        <pt x="319" y="601" on="1"/>
        <pt x="307" y="558" on="0"/>
        <pt x="219" y="356" on="0"/>
        <pt x="210" y="333" on="1"/>
        <pt x="281" y="348" on="0"/>
        <pt x="311" y="351" on="1"/>
        <pt x="313" y="362" on="0"/>
        <pt x="339" y="562" on="0"/>
        <pt x="346" y="605" on="1"/>
        <pt x="328" y="605" on="0"/>
      </contour>
    </TTGlyph>
    <TTGlyph name="Aacute" xMin="-30" yMin="-12" xMax="634" yMax="933">
      <contour>
        <pt x="545" y="842" on="1"/>
        <pt x="545" y="810" on="0"/>
        <pt x="507" y="796" on="1"/>
        <pt x="458" y="775" on="0"/>
        <pt x="228" y="740" on="1"/>
        <pt x="209" y="794" on="1"/>
        <pt x="236" y="806" on="0"/>
        <pt x="336" y="850" on="0"/>
        <pt x="365" y="863" on="1"/>
        <pt x="448" y="900" on="0"/>
        <pt x="505" y="933" on="1"/>
        <pt x="516" y="917" on="0"/>
        <pt x="545" y="856" on="0"/>
      </contour>
      <contour>
        <pt x="95" y="13" on="1"/>
        <pt x="88" y="-9" on="0"/>
        <pt x="9" y="-9" on="0"/>
        <pt x="-30" y="18" on="1"/>
        <pt x="1" y="102" on="0"/>
        <pt x="186" y="493" on="0"/>
        <pt x="217" y="589" on="1"/>
        <pt x="220" y="601" on="0"/>
        <pt x="220" y="618" on="0"/>
        <pt x="206" y="648" on="0"/>
        <pt x="198" y="657" on="1"/>
        <pt x="191" y="666" on="1"/>
        <pt x="195" y="686" on="1"/>
        <pt x="284" y="710" on="0"/>
        <pt x="406" y="710" on="1"/>
        <pt x="483" y="706" on="1"/>
        <pt x="493" y="697" on="0"/>
        <pt x="513" y="621" on="0"/>
        <pt x="519" y="469" on="0"/>
        <pt x="520" y="260" on="1"/>
        <pt x="521" y="99" on="0"/>
        <pt x="560" y="99" on="1"/>
        <pt x="570" y="99" on="0"/>
        <pt x="603" y="109" on="1"/>
        <pt x="613" y="112" on="1"/>
        <pt x="634" y="55" on="1"/>
        <pt x="593" y="24" on="0"/>
        <pt x="483" y="-12" on="0"/>
        <pt x="439" y="-12" on="1"/>
        <pt x="375" y="-12" on="0"/>
        <pt x="328" y="67" on="0"/>
        <pt x="328" y="192" on="0"/>
        <pt x="329" y="216" on="1"/>
        <pt x="310" y="220" on="0"/>
        <pt x="200" y="220" on="0"/>
        <pt x="160" y="209" on="1"/>
        <pt x="123" y="110" on="0"/>
      </contour>
      <contour>
        <pt x="333" y="300" on="1"/>
        <pt x="338" y="387" on="0"/>
        <pt x="338" y="563" on="0"/>
        <pt x="328" y="603" on="1"/>
        <pt x="318" y="603" on="0"/>
        <pt x="314" y="601" on="1"/>
        <pt x="292" y="534" on="0"/>
        <pt x="196" y="300" on="1"/>
      </contour>
    </TTGlyph>
    <TTGlyph name="Acircumflex" xMin="-30" yMin="-12" xMax="634" yMax="919">
      <contour>
        <pt x="218" y="831" on="0"/>
        <pt x="392" y="919" on="0"/>
        <pt x="453" y="919" on="0"/>
        <pt x="558" y="813" on="0"/>
        <pt x="582" y="778" on="1"/>
        <pt x="543" y="741" on="1"/>
        <pt x="434" y="786" on="0"/>
        <pt x="389" y="800" on="1"/>
        <pt x="318" y="786" on="0"/>
        <pt x="185" y="739" on="1"/>
        <pt x="156" y="787" on="1"/>
      </contour>
      <contour>
        <pt x="95" y="13" on="1"/>
        <pt x="88" y="-9" on="0"/>
        <pt x="9" y="-9" on="0"/>
        <pt x="-30" y="18" on="1"/>
        <pt x="1" y="102" on="0"/>
        <pt x="186" y="493" on="0"/>
        <pt x="217" y="589" on="1"/>
        <pt x="220" y="601" on="0"/>
        <pt x="220" y="618" on="0"/>
        <pt x="206" y="648" on="0"/>
        <pt x="198" y="657" on="1"/>
        <pt x="191" y="666" on="1"/>
        <pt x="195" y="686" on="1"/>
        <pt x="284" y="710" on="0"/>
        <pt x="406" y="710" on="1"/>
        <pt x="483" y="706" on="1"/>
        <pt x="493" y="697" on="0"/>
        <pt x="513" y="621" on="0"/>
        <pt x="519" y="469" on="0"/>
        <pt x="520" y="260" on="1"/>
        <pt x="521" y="99" on="0"/>
        <pt x="560" y="99" on="1"/>
        <pt x="570" y="99" on="0"/>
        <pt x="603" y="109" on="1"/>
        <pt x="613" y="112" on="1"/>
        <pt x="634" y="55" on="1"/>
        <pt x="593" y="24" on="0"/>
        <pt x="483" y="-12" on="0"/>
        <pt x="439" y="-12" on="1"/>
        <pt x="375" y="-12" on="0"/>
        <pt x="328" y="67" on="0"/>
        <pt x="328" y="192" on="0"/>
        <pt x="329" y="216" on="1"/>
        <pt x="310" y="220" on="0"/>
        <pt x="200" y="220" on="0"/>
        <pt x="160" y="209" on="1"/>
        <pt x="123" y="110" on="0"/>
      </contour>
      <contour>
        <pt x="333" y="300" on="1"/>
        <pt x="338" y="387" on="0"/>
        <pt x="338" y="563" on="0"/>
        <pt x="328" y="603" on="1"/>
        <pt x="318" y="603" on="0"/>
        <pt x="314" y="601" on="1"/>
        <pt x="292" y="534" on="0"/>
        <pt x="196" y="300" on="1"/>
      </contour>
    </TTGlyph>
    <TTGlyph name="Adieresis" xMin="-30" yMin="-12" xMax="634" yMax="903">
      <contour>
        <pt x="441" y="757" on="0"/>
        <pt x="399" y="797" on="0"/>
        <pt x="399" y="860" on="0"/>
        <pt x="451" y="903" on="0"/>
        <pt x="525" y="903" on="0"/>
        <pt x="566" y="868" on="0"/>
        <pt x="566" y="804" on="0"/>
        <pt x="515" y="757" on="0"/>
      </contour>
      <contour>
        <pt x="214" y="757" on="0"/>
        <pt x="172" y="797" on="0"/>
        <pt x="172" y="860" on="0"/>
        <pt x="224" y="903" on="0"/>
        <pt x="298" y="903" on="0"/>
        <pt x="339" y="868" on="0"/>
        <pt x="339" y="804" on="0"/>
        <pt x="288" y="757" on="0"/>
      </contour>
      <contour>
        <pt x="95" y="13" on="1"/>
        <pt x="88" y="-9" on="0"/>
        <pt x="9" y="-9" on="0"/>
        <pt x="-30" y="18" on="1"/>
        <pt x="1" y="102" on="0"/>
        <pt x="186" y="493" on="0"/>
        <pt x="217" y="589" on="1"/>
        <pt x="220" y="601" on="0"/>
        <pt x="220" y="618" on="0"/>
        <pt x="206" y="648" on="0"/>
        <pt x="198" y="657" on="1"/>
        <pt x="191" y="666" on="1"/>
        <pt x="195" y="686" on="1"/>
        <pt x="284" y="710" on="0"/>
        <pt x="406" y="710" on="1"/>
        <pt x="483" y="706" on="1"/>
        <pt x="493" y="697" on="0"/>
        <pt x="513" y="621" on="0"/>
        <pt x="519" y="469" on="0"/>
        <pt x="520" y="260" on="1"/>
        <pt x="521" y="99" on="0"/>
        <pt x="560" y="99" on="1"/>
        <pt x="570" y="99" on="0"/>
        <pt x="603" y="109" on="1"/>
        <pt x="613" y="112" on="1"/>
        <pt x="634" y="55" on="1"/>
        <pt x="593" y="24" on="0"/>
        <pt x="483" y="-12" on="0"/>
        <pt x="439" y="-12" on="1"/>
        <pt x="375" y="-12" on="0"/>
        <pt x="328" y="67" on="0"/>
        <pt x="328" y="192" on="0"/>
        <pt x="329" y="216" on="1"/>
        <pt x="310" y="220" on="0"/>
        <pt x="200" y="220" on="0"/>
        <pt x="160" y="209" on="1"/>
        <pt x="123" y="110" on="0"/>
      </contour>
      <contour>
        <pt x="333" y="300" on="1"/>
        <pt x="338" y="387" on="0"/>
        <pt x="338" y="563" on="0"/>
        <pt x="328" y="603" on="1"/>
        <pt x="318" y="603" on="0"/>
        <pt x="314" y="601" on="1"/>
        <pt x="292" y="534" on="0"/>
        <pt x="196" y="300" on="1"/>
      </contour>
    </TTGlyph>
    <TTGlyph name="Agrave" xMin="-30" yMin="-12" xMax="634" yMax="905">
      <contour>
        <pt x="241" y="905" on="1"/>
        <pt x="272" y="905" on="0"/>
        <pt x="434" y="834" on="0"/>
        <pt x="517" y="788" on="1"/>
        <pt x="495" y="735" on="1"/>
        <pt x="398" y="758" on="0"/>
        <pt x="170" y="802" on="1"/>
        <pt x="201" y="905" on="0"/>
      </contour>
      <contour>
        <pt x="95" y="13" on="1"/>
        <pt x="88" y="-9" on="0"/>
        <pt x="9" y="-9" on="0"/>
        <pt x="-30" y="18" on="1"/>
        <pt x="1" y="102" on="0"/>
        <pt x="186" y="493" on="0"/>
        <pt x="217" y="589" on="1"/>
        <pt x="220" y="601" on="0"/>
        <pt x="220" y="618" on="0"/>
        <pt x="206" y="648" on="0"/>
        <pt x="198" y="657" on="1"/>
        <pt x="191" y="666" on="1"/>
        <pt x="195" y="686" on="1"/>
        <pt x="284" y="710" on="0"/>
        <pt x="406" y="710" on="1"/>
        <pt x="483" y="706" on="1"/>
        <pt x="493" y="697" on="0"/>
        <pt x="513" y="621" on="0"/>
        <pt x="519" y="469" on="0"/>
        <pt x="520" y="260" on="1"/>
        <pt x="521" y="99" on="0"/>
        <pt x="560" y="99" on="1"/>
        <pt x="570" y="99" on="0"/>
        <pt x="603" y="109" on="1"/>
        <pt x="613" y="112" on="1"/>
        <pt x="634" y="55" on="1"/>
        <pt x="593" y="24" on="0"/>
        <pt x="483" y="-12" on="0"/>
        <pt x="439" y="-12" on="1"/>
        <pt x="375" y="-12" on="0"/>
        <pt x="328" y="67" on="0"/>
        <pt x="328" y="192" on="0"/>
        <pt x="329" y="216" on="1"/>
        <pt x="310" y="220" on="0"/>
        <pt x="200" y="220" on="0"/>
        <pt x="160" y="209" on="1"/>
        <pt x="123" y="110" on="0"/>
      </contour>
      <contour>
        <pt x="333" y="300" on="1"/>
        <pt x="338" y="387" on="0"/>
        <pt x="338" y="563" on="0"/>
        <pt x="328" y="603" on="1"/>
        <pt x="318" y="603" on="0"/>
        <pt x="314" y="601" on="1"/>
        <pt x="292" y="534" on="0"/>
        <pt x="196" y="300" on="1"/>
      </contour>
    </TTGlyph>
    <TTGlyph name="Aring" xMin="-30" yMin="-12" xMax="634" yMax="941">
      <contour>
        <pt x="319" y="739" on="0"/>
        <pt x="257" y="797" on="0"/>
        <pt x="257" y="884" on="0"/>
        <pt x="318" y="941" on="0"/>
        <pt x="427" y="941" on="0"/>
        <pt x="488" y="884" on="0"/>
        <pt x="488" y="797" on="0"/>
        <pt x="428" y="739" on="0"/>
      </contour>
      <contour>
        <pt x="353" y="878" on="0"/>
        <pt x="330" y="857" on="0"/>
        <pt x="330" y="824" on="0"/>
        <pt x="353" y="803" on="0"/>
        <pt x="392" y="803" on="0"/>
        <pt x="412" y="824" on="0"/>
        <pt x="412" y="840" on="1"/>
        <pt x="412" y="878" on="0"/>
        <pt x="373" y="878" on="1"/>
      </contour>
      <contour>
        <pt x="95" y="13" on="1"/>
        <pt x="88" y="-9" on="0"/>
        <pt x="9" y="-9" on="0"/>
        <pt x="-30" y="18" on="1"/>
        <pt x="1" y="102" on="0"/>
        <pt x="186" y="493" on="0"/>
        <pt x="217" y="589" on="1"/>
        <pt x="220" y="601" on="0"/>
        <pt x="220" y="618" on="0"/>
        <pt x="206" y="648" on="0"/>
        <pt x="198" y="657" on="1"/>
        <pt x="191" y="666" on="1"/>
        <pt x="195" y="686" on="1"/>
        <pt x="284" y="710" on="0"/>
        <pt x="406" y="710" on="1"/>
        <pt x="483" y="706" on="1"/>
        <pt x="493" y="697" on="0"/>
        <pt x="513" y="621" on="0"/>
        <pt x="519" y="469" on="0"/>
        <pt x="520" y="260" on="1"/>
        <pt x="521" y="99" on="0"/>
        <pt x="560" y="99" on="1"/>
        <pt x="570" y="99" on="0"/>
        <pt x="603" y="109" on="1"/>
        <pt x="613" y="112" on="1"/>
        <pt x="634" y="55" on="1"/>
        <pt x="593" y="24" on="0"/>
        <pt x="483" y="-12" on="0"/>
        <pt x="439" y="-12" on="1"/>
        <pt x="375" y="-12" on="0"/>
        <pt x="328" y="67" on="0"/>
        <pt x="328" y="192" on="0"/>
        <pt x="329" y="216" on="1"/>
        <pt x="310" y="220" on="0"/>
        <pt x="200" y="220" on="0"/>
        <pt x="160" y="209" on="1"/>
        <pt x="123" y="110" on="0"/>
      </contour>
      <contour>
        <pt x="333" y="300" on="1"/>
        <pt x="338" y="387" on="0"/>
        <pt x="338" y="563" on="0"/>
        <pt x="328" y="603" on="1"/>
        <pt x="318" y="603" on="0"/>
        <pt x="314" y="601" on="1"/>
        <pt x="292" y="534" on="0"/>
        <pt x="196" y="300" on="1"/>
      </contour>
    </TTGlyph>
    <TTGlyph name="Atilde" xMin="-30" yMin="-12" xMax="634" yMax="905">
      <contour>
        <pt x="460" y="761" on="1"/>
        <pt x="438" y="761" on="0"/>
        <pt x="300" y="790" on="0"/>
        <pt x="278" y="790" on="1"/>
        <pt x="236" y="790" on="0"/>
        <pt x="210" y="753" on="1"/>
        <pt x="156" y="767" on="1"/>
        <pt x="170" y="904" on="0"/>
        <pt x="279" y="904" on="1"/>
        <pt x="302" y="904" on="0"/>
        <pt x="438" y="875" on="0"/>
        <pt x="486" y="875" on="0"/>
        <pt x="508" y="887" on="0"/>
        <pt x="521" y="905" on="1"/>
        <pt x="576" y="893" on="1"/>
        <pt x="562" y="761" on="0"/>
      </contour>
      <contour>
        <pt x="95" y="13" on="1"/>
        <pt x="88" y="-9" on="0"/>
        <pt x="9" y="-9" on="0"/>
        <pt x="-30" y="18" on="1"/>
        <pt x="1" y="102" on="0"/>
        <pt x="186" y="493" on="0"/>
        <pt x="217" y="589" on="1"/>
        <pt x="220" y="601" on="0"/>
        <pt x="220" y="618" on="0"/>
        <pt x="206" y="648" on="0"/>
        <pt x="198" y="657" on="1"/>
        <pt x="191" y="666" on="1"/>
        <pt x="195" y="686" on="1"/>
        <pt x="284" y="710" on="0"/>
        <pt x="406" y="710" on="1"/>
        <pt x="483" y="706" on="1"/>
        <pt x="493" y="697" on="0"/>
        <pt x="513" y="621" on="0"/>
        <pt x="519" y="469" on="0"/>
        <pt x="520" y="260" on="1"/>
        <pt x="521" y="99" on="0"/>
        <pt x="560" y="99" on="1"/>
        <pt x="570" y="99" on="0"/>
        <pt x="603" y="109" on="1"/>
        <pt x="613" y="112" on="1"/>
        <pt x="634" y="55" on="1"/>
        <pt x="593" y="24" on="0"/>
        <pt x="483" y="-12" on="0"/>
        <pt x="439" y="-12" on="1"/>
        <pt x="375" y="-12" on="0"/>
        <pt x="328" y="67" on="0"/>
        <pt x="328" y="192" on="0"/>
        <pt x="329" y="216" on="1"/>
        <pt x="310" y="220" on="0"/>
        <pt x="200" y="220" on="0"/>
        <pt x="160" y="209" on="1"/>
        <pt x="123" y="110" on="0"/>
      </contour>
      <contour>
        <pt x="333" y="300" on="1"/>
        <pt x="338" y="387" on="0"/>
        <pt x="338" y="563" on="0"/>
        <pt x="328" y="603" on="1"/>
        <pt x="318" y="603" on="0"/>
        <pt x="314" y="601" on="1"/>
        <pt x="292" y="534" on="0"/>
        <pt x="196" y="300" on="1"/>
      </contour>
    </TTGlyph>
    <TTGlyph name="B" xMin="41" yMin="-12" xMax="622" yMax="710">
      <contour>
        <pt x="366" y="-12" on="1"/>
        <pt x="286" y="-12" on="0"/>
        <pt x="206" y="16" on="1"/>
        <pt x="148" y="-6" on="0"/>
        <pt x="72" y="-6" on="1"/>
        <pt x="55" y="-6" on="0"/>
        <pt x="41" y="-4" on="1"/>
        <pt x="41" y="56" on="0"/>
        <pt x="151" y="528" on="0"/>
        <pt x="151" y="590" on="0"/>
        <pt x="128" y="638" on="0"/>
        <pt x="116" y="650" on="1"/>
        <pt x="105" y="661" on="1"/>
        <pt x="109" y="686" on="1"/>
        <pt x="134" y="691" on="0"/>
        <pt x="315" y="710" on="0"/>
        <pt x="378" y="710" on="1"/>
        <pt x="622" y="710" on="0"/>
        <pt x="622" y="553" on="1"/>
        <pt x="622" y="480" on="0"/>
        <pt x="523" y="388" on="0"/>
        <pt x="450" y="372" on="1"/>
        <pt x="519" y="364" on="0"/>
        <pt x="613" y="281" on="0"/>
        <pt x="613" y="205" on="1"/>
        <pt x="613" y="111" on="0"/>
        <pt x="473" y="-12" on="0"/>
      </contour>
      <contour>
        <pt x="332" y="338" on="1"/>
        <pt x="314" y="338" on="0"/>
        <pt x="292" y="335" on="1"/>
        <pt x="253" y="164" on="0"/>
        <pt x="242" y="87" on="1"/>
        <pt x="264" y="74" on="0"/>
        <pt x="302" y="74" on="1"/>
        <pt x="360" y="74" on="0"/>
        <pt x="418" y="170" on="0"/>
        <pt x="418" y="291" on="0"/>
        <pt x="375" y="338" on="0"/>
      </contour>
      <contour>
        <pt x="319" y="411" on="1"/>
        <pt x="363" y="411" on="0"/>
        <pt x="388" y="444" on="1"/>
        <pt x="433" y="501" on="0"/>
        <pt x="433" y="640" on="0"/>
        <pt x="385" y="640" on="1"/>
        <pt x="352" y="636" on="1"/>
        <pt x="351" y="597" on="0"/>
        <pt x="310" y="411" on="1"/>
      </contour>
    </TTGlyph>
    <TTGlyph name="C" xMin="48" yMin="-12" xMax="616" yMax="710">
      <contour>
        <pt x="290" y="-12" on="1"/>
        <pt x="182" y="-12" on="0"/>
        <pt x="48" y="144" on="0"/>
        <pt x="48" y="285" on="1"/>
        <pt x="48" y="398" on="0"/>
        <pt x="135" y="591" on="0"/>
        <pt x="300" y="710" on="0"/>
        <pt x="491" y="710" on="0"/>
        <pt x="616" y="634" on="0"/>
        <pt x="616" y="511" on="0"/>
        <pt x="582" y="475" on="1"/>
        <pt x="542" y="475" on="0"/>
        <pt x="438" y="507" on="0"/>
        <pt x="412" y="530" on="1"/>
        <pt x="431" y="627" on="1"/>
        <pt x="410" y="637" on="0"/>
        <pt x="390" y="637" on="1"/>
        <pt x="332" y="637" on="0"/>
        <pt x="244" y="436" on="0"/>
        <pt x="244" y="301" on="1"/>
        <pt x="244" y="99" on="0"/>
        <pt x="358" y="99" on="1"/>
        <pt x="426" y="99" on="0"/>
        <pt x="510" y="173" on="1"/>
        <pt x="557" y="126" on="1"/>
        <pt x="549" y="113" on="0"/>
        <pt x="483" y="54" on="0"/>
        <pt x="424" y="18" on="0"/>
        <pt x="335" y="-12" on="0"/>
      </contour>
    </TTGlyph>
    <TTGlyph name="Ccedilla" xMin="48" yMin="-198" xMax="616" yMax="710">
      <contour>
        <pt x="294" y="-95" on="1"/>
        <pt x="294" y="-113" on="0"/>
        <pt x="309" y="-113" on="1"/>
        <pt x="338" y="-113" on="0"/>
        <pt x="377" y="-90" on="1"/>
        <pt x="405" y="-131" on="1"/>
        <pt x="384" y="-155" on="0"/>
        <pt x="294" y="-198" on="0"/>
        <pt x="223" y="-198" on="0"/>
        <pt x="179" y="-159" on="0"/>
        <pt x="179" y="-97" on="0"/>
        <pt x="226" y="-33" on="0"/>
        <pt x="257" y="-10" on="1"/>
        <pt x="164" y="1" on="0"/>
        <pt x="48" y="154" on="0"/>
        <pt x="48" y="394" on="0"/>
        <pt x="135" y="591" on="0"/>
        <pt x="296" y="710" on="0"/>
        <pt x="492" y="710" on="0"/>
        <pt x="616" y="632" on="0"/>
        <pt x="616" y="511" on="0"/>
        <pt x="582" y="475" on="1"/>
        <pt x="542" y="475" on="0"/>
        <pt x="438" y="507" on="0"/>
        <pt x="412" y="530" on="1"/>
        <pt x="431" y="627" on="1"/>
        <pt x="413" y="637" on="0"/>
        <pt x="387" y="637" on="1"/>
        <pt x="331" y="637" on="0"/>
        <pt x="244" y="434" on="0"/>
        <pt x="244" y="291" on="1"/>
        <pt x="244" y="194" on="0"/>
        <pt x="307" y="99" on="0"/>
        <pt x="356" y="99" on="1"/>
        <pt x="426" y="99" on="0"/>
        <pt x="510" y="173" on="1"/>
        <pt x="557" y="126" on="1"/>
        <pt x="529" y="88" on="0"/>
        <pt x="474" y="50" on="1"/>
        <pt x="409" y="4" on="0"/>
        <pt x="338" y="-7" on="1"/>
        <pt x="294" y="-56" on="0"/>
      </contour>
    </TTGlyph>
    <TTGlyph name="D" xMin="41" yMin="-12" xMax="679" yMax="710">
      <contour>
        <pt x="339" y="-12" on="1"/>
        <pt x="272" y="-12" on="0"/>
        <pt x="213" y="14" on="1"/>
        <pt x="162" y="-5" on="0"/>
        <pt x="45" y="-5" on="0"/>
        <pt x="41" y="-4" on="1"/>
        <pt x="41" y="65" on="0"/>
        <pt x="151" y="524" on="0"/>
        <pt x="151" y="587" on="0"/>
        <pt x="128" y="637" on="0"/>
        <pt x="116" y="650" on="1"/>
        <pt x="105" y="662" on="1"/>
        <pt x="108" y="685" on="1"/>
        <pt x="137" y="692" on="0"/>
        <pt x="312" y="710" on="0"/>
        <pt x="376" y="710" on="1"/>
        <pt x="530" y="710" on="0"/>
        <pt x="679" y="583" on="0"/>
        <pt x="679" y="443" on="1"/>
        <pt x="679" y="334" on="0"/>
        <pt x="600" y="129" on="0"/>
        <pt x="440" y="-12" on="0"/>
      </contour>
      <contour>
        <pt x="390" y="639" on="1"/>
        <pt x="372" y="639" on="0"/>
        <pt x="351" y="636" on="1"/>
        <pt x="348" y="578" on="0"/>
        <pt x="252" y="161" on="0"/>
        <pt x="241" y="84" on="1"/>
        <pt x="259" y="75" on="0"/>
        <pt x="284" y="75" on="1"/>
        <pt x="337" y="75" on="0"/>
        <pt x="420" y="171" on="0"/>
        <pt x="442" y="243" on="1"/>
        <pt x="485" y="389" on="0"/>
        <pt x="485" y="508" on="1"/>
        <pt x="485" y="580" on="0"/>
        <pt x="442" y="639" on="0"/>
      </contour>
    </TTGlyph>
    <TTGlyph name="E" xMin="39" yMin="-13" xMax="578" yMax="710">
      <contour>
        <pt x="270" y="-13" on="1"/>
        <pt x="144" y="-13" on="0"/>
        <pt x="76" y="68" on="1"/>
        <pt x="39" y="112" on="0"/>
        <pt x="39" y="175" on="1"/>
        <pt x="39" y="260" on="0"/>
        <pt x="159" y="369" on="0"/>
        <pt x="241" y="378" on="1"/>
        <pt x="115" y="412" on="0"/>
        <pt x="115" y="523" on="1"/>
        <pt x="115" y="609" on="0"/>
        <pt x="263" y="710" on="0"/>
        <pt x="452" y="710" on="0"/>
        <pt x="578" y="632" on="0"/>
        <pt x="578" y="568" on="1"/>
        <pt x="578" y="531" on="0"/>
        <pt x="558" y="498" on="1"/>
        <pt x="551" y="487" on="1"/>
        <pt x="510" y="487" on="0"/>
        <pt x="416" y="512" on="0"/>
        <pt x="392" y="532" on="1"/>
        <pt x="402" y="634" on="1"/>
        <pt x="387" y="641" on="0"/>
        <pt x="372" y="641" on="1"/>
        <pt x="341" y="641" on="0"/>
        <pt x="308" y="575" on="0"/>
        <pt x="308" y="487" on="0"/>
        <pt x="327" y="435" on="0"/>
        <pt x="368" y="408" on="0"/>
        <pt x="399" y="397" on="0"/>
        <pt x="427" y="391" on="1"/>
        <pt x="419" y="333" on="1"/>
        <pt x="350" y="333" on="0"/>
        <pt x="234" y="255" on="0"/>
        <pt x="234" y="189" on="1"/>
        <pt x="234" y="142" on="0"/>
        <pt x="294" y="99" on="0"/>
        <pt x="377" y="99" on="0"/>
        <pt x="469" y="141" on="0"/>
        <pt x="502" y="173" on="1"/>
        <pt x="547" y="128" on="1"/>
        <pt x="504" y="69" on="0"/>
        <pt x="352" y="-13" on="0"/>
      </contour>
    </TTGlyph>
    <TTGlyph name="Eacute" xMin="39" yMin="-13" xMax="578" yMax="933">
      <contour>
        <pt x="566" y="842" on="1"/>
        <pt x="566" y="810" on="0"/>
        <pt x="528" y="796" on="1"/>
        <pt x="479" y="775" on="0"/>
        <pt x="249" y="740" on="1"/>
        <pt x="230" y="794" on="1"/>
        <pt x="257" y="806" on="0"/>
        <pt x="357" y="850" on="0"/>
        <pt x="386" y="863" on="1"/>
        <pt x="469" y="900" on="0"/>
        <pt x="526" y="933" on="1"/>
        <pt x="537" y="917" on="0"/>
        <pt x="566" y="856" on="0"/>
      </contour>
      <contour>
        <pt x="270" y="-13" on="1"/>
        <pt x="144" y="-13" on="0"/>
        <pt x="76" y="68" on="1"/>
        <pt x="39" y="112" on="0"/>
        <pt x="39" y="175" on="1"/>
        <pt x="39" y="260" on="0"/>
        <pt x="159" y="369" on="0"/>
        <pt x="241" y="378" on="1"/>
        <pt x="115" y="412" on="0"/>
        <pt x="115" y="523" on="1"/>
        <pt x="115" y="609" on="0"/>
        <pt x="263" y="710" on="0"/>
        <pt x="452" y="710" on="0"/>
        <pt x="578" y="632" on="0"/>
        <pt x="578" y="568" on="1"/>
        <pt x="578" y="531" on="0"/>
        <pt x="558" y="498" on="1"/>
        <pt x="551" y="487" on="1"/>
        <pt x="510" y="487" on="0"/>
        <pt x="416" y="512" on="0"/>
        <pt x="392" y="532" on="1"/>
        <pt x="402" y="634" on="1"/>
        <pt x="387" y="641" on="0"/>
        <pt x="372" y="641" on="1"/>
        <pt x="341" y="641" on="0"/>
        <pt x="308" y="575" on="0"/>
        <pt x="308" y="487" on="0"/>
        <pt x="327" y="435" on="0"/>
        <pt x="368" y="408" on="0"/>
        <pt x="399" y="397" on="0"/>
        <pt x="427" y="391" on="1"/>
        <pt x="419" y="333" on="1"/>
        <pt x="350" y="333" on="0"/>
        <pt x="234" y="255" on="0"/>
        <pt x="234" y="189" on="1"/>
        <pt x="234" y="142" on="0"/>
        <pt x="294" y="99" on="0"/>
        <pt x="377" y="99" on="0"/>
        <pt x="469" y="141" on="0"/>
        <pt x="502" y="173" on="1"/>
        <pt x="547" y="128" on="1"/>
        <pt x="504" y="69" on="0"/>
        <pt x="352" y="-13" on="0"/>
      </contour>
    </TTGlyph>
    <TTGlyph name="Ecircumflex" xMin="39" yMin="-13" xMax="590" yMax="919">
      <contour>
        <pt x="226" y="831" on="0"/>
        <pt x="400" y="919" on="0"/>
        <pt x="461" y="919" on="0"/>
        <pt x="566" y="813" on="0"/>
        <pt x="590" y="778" on="1"/>
        <pt x="551" y="741" on="1"/>
        <pt x="442" y="786" on="0"/>
        <pt x="397" y="800" on="1"/>
        <pt x="326" y="786" on="0"/>
        <pt x="193" y="739" on="1"/>
        <pt x="164" y="787" on="1"/>
      </contour>
      <contour>
        <pt x="270" y="-13" on="1"/>
        <pt x="144" y="-13" on="0"/>
        <pt x="76" y="68" on="1"/>
        <pt x="39" y="112" on="0"/>
        <pt x="39" y="175" on="1"/>
        <pt x="39" y="260" on="0"/>
        <pt x="159" y="369" on="0"/>
        <pt x="241" y="378" on="1"/>
        <pt x="115" y="412" on="0"/>
        <pt x="115" y="523" on="1"/>
        <pt x="115" y="609" on="0"/>
        <pt x="263" y="710" on="0"/>
        <pt x="452" y="710" on="0"/>
        <pt x="578" y="632" on="0"/>
        <pt x="578" y="568" on="1"/>
        <pt x="578" y="531" on="0"/>
        <pt x="558" y="498" on="1"/>
        <pt x="551" y="487" on="1"/>
        <pt x="510" y="487" on="0"/>
        <pt x="416" y="512" on="0"/>
        <pt x="392" y="532" on="1"/>
        <pt x="402" y="634" on="1"/>
        <pt x="387" y="641" on="0"/>
        <pt x="372" y="641" on="1"/>
        <pt x="341" y="641" on="0"/>
        <pt x="308" y="575" on="0"/>
        <pt x="308" y="487" on="0"/>
        <pt x="327" y="435" on="0"/>
        <pt x="368" y="408" on="0"/>
        <pt x="399" y="397" on="0"/>
        <pt x="427" y="391" on="1"/>
        <pt x="419" y="333" on="1"/>
        <pt x="350" y="333" on="0"/>
        <pt x="234" y="255" on="0"/>
        <pt x="234" y="189" on="1"/>
        <pt x="234" y="142" on="0"/>
        <pt x="294" y="99" on="0"/>
        <pt x="377" y="99" on="0"/>
        <pt x="469" y="141" on="0"/>
        <pt x="502" y="173" on="1"/>
        <pt x="547" y="128" on="1"/>
        <pt x="504" y="69" on="0"/>
        <pt x="352" y="-13" on="0"/>
      </contour>
    </TTGlyph>
    <TTGlyph name="Edieresis" xMin="39" yMin="-13" xMax="580" yMax="903">
      <contour>
        <pt x="228" y="757" on="0"/>
        <pt x="186" y="797" on="0"/>
        <pt x="186" y="860" on="0"/>
        <pt x="238" y="903" on="0"/>
        <pt x="312" y="903" on="0"/>
        <pt x="353" y="868" on="0"/>
        <pt x="353" y="804" on="0"/>
        <pt x="302" y="757" on="0"/>
      </contour>
      <contour>
        <pt x="455" y="757" on="0"/>
        <pt x="413" y="797" on="0"/>
        <pt x="413" y="860" on="0"/>
        <pt x="465" y="903" on="0"/>
        <pt x="539" y="903" on="0"/>
        <pt x="580" y="868" on="0"/>
        <pt x="580" y="804" on="0"/>
        <pt x="529" y="757" on="0"/>
      </contour>
      <contour>
        <pt x="270" y="-13" on="1"/>
        <pt x="144" y="-13" on="0"/>
        <pt x="76" y="68" on="1"/>
        <pt x="39" y="112" on="0"/>
        <pt x="39" y="175" on="1"/>
        <pt x="39" y="260" on="0"/>
        <pt x="159" y="369" on="0"/>
        <pt x="241" y="378" on="1"/>
        <pt x="115" y="412" on="0"/>
        <pt x="115" y="523" on="1"/>
        <pt x="115" y="609" on="0"/>
        <pt x="263" y="710" on="0"/>
        <pt x="452" y="710" on="0"/>
        <pt x="578" y="632" on="0"/>
        <pt x="578" y="568" on="1"/>
        <pt x="578" y="531" on="0"/>
        <pt x="558" y="498" on="1"/>
        <pt x="551" y="487" on="1"/>
        <pt x="510" y="487" on="0"/>
        <pt x="416" y="512" on="0"/>
        <pt x="392" y="532" on="1"/>
        <pt x="402" y="634" on="1"/>
        <pt x="387" y="641" on="0"/>
        <pt x="372" y="641" on="1"/>
        <pt x="341" y="641" on="0"/>
        <pt x="308" y="575" on="0"/>
        <pt x="308" y="487" on="0"/>
        <pt x="327" y="435" on="0"/>
        <pt x="368" y="408" on="0"/>
        <pt x="399" y="397" on="0"/>
        <pt x="427" y="391" on="1"/>
        <pt x="419" y="333" on="1"/>
        <pt x="350" y="333" on="0"/>
        <pt x="234" y="255" on="0"/>
        <pt x="234" y="189" on="1"/>
        <pt x="234" y="142" on="0"/>
        <pt x="294" y="99" on="0"/>
        <pt x="377" y="99" on="0"/>
        <pt x="469" y="141" on="0"/>
        <pt x="502" y="173" on="1"/>
        <pt x="547" y="128" on="1"/>
        <pt x="504" y="69" on="0"/>
        <pt x="352" y="-13" on="0"/>
      </contour>
    </TTGlyph>
    <TTGlyph name="Egrave" xMin="39" yMin="-13" xMax="578" yMax="905">
      <contour>
        <pt x="254" y="905" on="1"/>
        <pt x="285" y="905" on="0"/>
        <pt x="447" y="834" on="0"/>
        <pt x="530" y="788" on="1"/>
        <pt x="508" y="735" on="1"/>
        <pt x="411" y="758" on="0"/>
        <pt x="183" y="802" on="1"/>
        <pt x="214" y="905" on="0"/>
      </contour>
      <contour>
        <pt x="270" y="-13" on="1"/>
        <pt x="144" y="-13" on="0"/>
        <pt x="76" y="68" on="1"/>
        <pt x="39" y="112" on="0"/>
        <pt x="39" y="175" on="1"/>
        <pt x="39" y="260" on="0"/>
        <pt x="159" y="369" on="0"/>
        <pt x="241" y="378" on="1"/>
        <pt x="115" y="412" on="0"/>
        <pt x="115" y="523" on="1"/>
        <pt x="115" y="609" on="0"/>
        <pt x="263" y="710" on="0"/>
        <pt x="452" y="710" on="0"/>
        <pt x="578" y="632" on="0"/>
        <pt x="578" y="568" on="1"/>
        <pt x="578" y="531" on="0"/>
        <pt x="558" y="498" on="1"/>
        <pt x="551" y="487" on="1"/>
        <pt x="510" y="487" on="0"/>
        <pt x="416" y="512" on="0"/>
        <pt x="392" y="532" on="1"/>
        <pt x="402" y="634" on="1"/>
        <pt x="387" y="641" on="0"/>
        <pt x="372" y="641" on="1"/>
        <pt x="341" y="641" on="0"/>
        <pt x="308" y="575" on="0"/>
        <pt x="308" y="487" on="0"/>
        <pt x="327" y="435" on="0"/>
        <pt x="368" y="408" on="0"/>
        <pt x="399" y="397" on="0"/>
        <pt x="427" y="391" on="1"/>
        <pt x="419" y="333" on="1"/>
        <pt x="350" y="333" on="0"/>
        <pt x="234" y="255" on="0"/>
        <pt x="234" y="189" on="1"/>
        <pt x="234" y="142" on="0"/>
        <pt x="294" y="99" on="0"/>
        <pt x="377" y="99" on="0"/>
        <pt x="469" y="141" on="0"/>
        <pt x="502" y="173" on="1"/>
        <pt x="547" y="128" on="1"/>
        <pt x="504" y="69" on="0"/>
        <pt x="352" y="-13" on="0"/>
      </contour>
    </TTGlyph>
    <TTGlyph name="Eth" xMin="46" yMin="-12" xMax="692" yMax="710">
      <contour>
        <pt x="561" y="70" on="0"/>
        <pt x="426" y="-12" on="0"/>
        <pt x="285" y="-12" on="0"/>
        <pt x="226" y="14" on="1"/>
        <pt x="175" y="-5" on="0"/>
        <pt x="58" y="-5" on="0"/>
        <pt x="54" y="-4" on="1"/>
        <pt x="54" y="69" on="0"/>
        <pt x="116" y="325" on="1"/>
        <pt x="46" y="325" on="1"/>
        <pt x="46" y="382" on="0"/>
        <pt x="51" y="407" on="1"/>
        <pt x="136" y="407" on="1"/>
        <pt x="164" y="528" on="0"/>
        <pt x="164" y="559" on="1"/>
        <pt x="164" y="610" on="0"/>
        <pt x="130" y="649" on="1"/>
        <pt x="118" y="662" on="1"/>
        <pt x="121" y="685" on="1"/>
        <pt x="151" y="693" on="0"/>
        <pt x="326" y="710" on="0"/>
        <pt x="395" y="710" on="1"/>
        <pt x="692" y="710" on="0"/>
        <pt x="692" y="450" on="1"/>
        <pt x="692" y="277" on="0"/>
        <pt x="604" y="137" on="1"/>
      </contour>
      <contour>
        <pt x="403" y="639" on="1"/>
        <pt x="385" y="639" on="0"/>
        <pt x="364" y="636" on="1"/>
        <pt x="360" y="577" on="0"/>
        <pt x="322" y="407" on="1"/>
        <pt x="425" y="407" on="1"/>
        <pt x="425" y="360" on="0"/>
        <pt x="415" y="325" on="1"/>
        <pt x="303" y="325" on="1"/>
        <pt x="266" y="169" on="0"/>
        <pt x="254" y="84" on="1"/>
        <pt x="272" y="75" on="0"/>
        <pt x="299" y="75" on="1"/>
        <pt x="351" y="75" on="0"/>
        <pt x="433" y="171" on="0"/>
        <pt x="454" y="243" on="1"/>
        <pt x="498" y="389" on="0"/>
        <pt x="498" y="509" on="1"/>
        <pt x="498" y="580" on="0"/>
        <pt x="455" y="639" on="0"/>
      </contour>
    </TTGlyph>
    <TTGlyph name="Euro" xMin="9" yMin="-12" xMax="659" yMax="710">
      <contour>
        <pt x="330" y="-12" on="1"/>
        <pt x="234" y="-12" on="0"/>
        <pt x="104" y="119" on="0"/>
        <pt x="93" y="233" on="1"/>
        <pt x="33" y="228" on="0"/>
        <pt x="11" y="224" on="1"/>
        <pt x="9" y="249" on="0"/>
        <pt x="9" y="288" on="0"/>
        <pt x="12" y="310" on="1"/>
        <pt x="92" y="310" on="1"/>
        <pt x="93" y="326" on="0"/>
        <pt x="97" y="363" on="1"/>
        <pt x="69" y="361" on="0"/>
        <pt x="32" y="356" on="1"/>
        <pt x="29" y="370" on="0"/>
        <pt x="29" y="412" on="0"/>
        <pt x="33" y="442" on="1"/>
        <pt x="116" y="442" on="1"/>
        <pt x="154" y="562" on="0"/>
        <pt x="326" y="710" on="0"/>
        <pt x="535" y="710" on="0"/>
        <pt x="659" y="632" on="0"/>
        <pt x="659" y="511" on="0"/>
        <pt x="625" y="475" on="1"/>
        <pt x="585" y="475" on="0"/>
        <pt x="481" y="507" on="0"/>
        <pt x="455" y="530" on="1"/>
        <pt x="474" y="627" on="1"/>
        <pt x="456" y="637" on="0"/>
        <pt x="430" y="637" on="1"/>
        <pt x="391" y="637" on="0"/>
        <pt x="320" y="529" on="0"/>
        <pt x="302" y="442" on="1"/>
        <pt x="516" y="442" on="1"/>
        <pt x="514" y="413" on="0"/>
        <pt x="502" y="378" on="1"/>
        <pt x="497" y="365" on="1"/>
        <pt x="442" y="370" on="0"/>
        <pt x="342" y="370" on="0"/>
        <pt x="290" y="368" on="1"/>
        <pt x="287" y="339" on="0"/>
        <pt x="287" y="310" on="1"/>
        <pt x="499" y="310" on="1"/>
        <pt x="497" y="288" on="0"/>
        <pt x="481" y="246" on="1"/>
        <pt x="476" y="233" on="1"/>
        <pt x="423" y="238" on="0"/>
        <pt x="339" y="238" on="0"/>
        <pt x="300" y="237" on="0"/>
        <pt x="290" y="237" on="1"/>
        <pt x="299" y="167" on="0"/>
        <pt x="357" y="99" on="0"/>
        <pt x="399" y="99" on="1"/>
        <pt x="469" y="99" on="0"/>
        <pt x="553" y="173" on="1"/>
        <pt x="600" y="126" on="1"/>
        <pt x="590" y="111" on="0"/>
        <pt x="526" y="54" on="0"/>
        <pt x="467" y="18" on="0"/>
        <pt x="376" y="-12" on="0"/>
      </contour>
    </TTGlyph>
    <TTGlyph name="F" xMin="41" yMin="-6" xMax="576" yMax="705">
      <contour>
        <pt x="258" y="705" on="1"/>
        <pt x="494" y="699" on="1"/>
        <pt x="545" y="699" on="0"/>
        <pt x="573" y="701" on="1"/>
        <pt x="576" y="683" on="0"/>
        <pt x="576" y="631" on="0"/>
        <pt x="548" y="603" on="0"/>
        <pt x="513" y="603" on="1"/>
        <pt x="360" y="615" on="1"/>
        <pt x="345" y="615" on="0"/>
        <pt x="335" y="614" on="1"/>
        <pt x="333" y="576" on="0"/>
        <pt x="293" y="392" on="1"/>
        <pt x="350" y="397" on="0"/>
        <pt x="464" y="397" on="0"/>
        <pt x="490" y="388" on="1"/>
        <pt x="486" y="342" on="0"/>
        <pt x="471" y="314" on="1"/>
        <pt x="466" y="304" on="1"/>
        <pt x="438" y="313" on="0"/>
        <pt x="323" y="313" on="0"/>
        <pt x="275" y="309" on="1"/>
        <pt x="238" y="130" on="0"/>
        <pt x="238" y="34" on="1"/>
        <pt x="238" y="20" on="1"/>
        <pt x="185" y="-6" on="0"/>
        <pt x="52" y="-6" on="1"/>
        <pt x="41" y="-6" on="1"/>
        <pt x="41" y="82" on="0"/>
        <pt x="129" y="498" on="0"/>
        <pt x="138" y="581" on="1"/>
        <pt x="138" y="601" on="0"/>
        <pt x="116" y="644" on="0"/>
        <pt x="105" y="656" on="1"/>
        <pt x="94" y="667" on="1"/>
        <pt x="96" y="690" on="1"/>
        <pt x="170" y="705" on="0"/>
      </contour>
    </TTGlyph>
    <TTGlyph name="G" xMin="48" yMin="-224" xMax="628" yMax="710">
      <contour>
        <pt x="229" y="-224" on="1"/>
        <pt x="172" y="-224" on="0"/>
        <pt x="95" y="-175" on="0"/>
        <pt x="95" y="-127" on="1"/>
        <pt x="95" y="-99" on="0"/>
        <pt x="121" y="-57" on="0"/>
        <pt x="149" y="-35" on="0"/>
        <pt x="172" y="-19" on="0"/>
        <pt x="210" y="-3" on="0"/>
        <pt x="234" y="6" on="0"/>
        <pt x="275" y="18" on="0"/>
        <pt x="293" y="23" on="0"/>
        <pt x="331" y="31" on="0"/>
        <pt x="333" y="32" on="1"/>
        <pt x="338" y="47" on="0"/>
        <pt x="343" y="67" on="1"/>
        <pt x="301" y="54" on="0"/>
        <pt x="264" y="54" on="1"/>
        <pt x="175" y="54" on="0"/>
        <pt x="48" y="187" on="0"/>
        <pt x="48" y="311" on="1"/>
        <pt x="48" y="412" on="0"/>
        <pt x="134" y="593" on="0"/>
        <pt x="301" y="710" on="0"/>
        <pt x="499" y="710" on="0"/>
        <pt x="628" y="619" on="0"/>
        <pt x="628" y="549" on="1"/>
        <pt x="628" y="517" on="0"/>
        <pt x="611" y="480" on="1"/>
        <pt x="597" y="478" on="0"/>
        <pt x="575" y="478" on="1"/>
        <pt x="481" y="478" on="0"/>
        <pt x="431" y="515" on="1"/>
        <pt x="431" y="624" on="1"/>
        <pt x="415" y="637" on="0"/>
        <pt x="390" y="637" on="1"/>
        <pt x="330" y="637" on="0"/>
        <pt x="244" y="459" on="0"/>
        <pt x="244" y="332" on="1"/>
        <pt x="244" y="157" on="0"/>
        <pt x="335" y="157" on="1"/>
        <pt x="387" y="157" on="0"/>
        <pt x="481" y="265" on="0"/>
        <pt x="506" y="347" on="1"/>
        <pt x="572" y="337" on="1"/>
        <pt x="544" y="59" on="0"/>
        <pt x="365" y="-224" on="0"/>
      </contour>
      <contour>
        <pt x="178" y="-111" on="1"/>
        <pt x="178" y="-121" on="0"/>
        <pt x="194" y="-136" on="0"/>
        <pt x="209" y="-136" on="1"/>
        <pt x="266" y="-136" on="0"/>
        <pt x="310" y="-45" on="1"/>
        <pt x="311" y="-42" on="1"/>
        <pt x="245" y="-52" on="0"/>
        <pt x="178" y="-89" on="0"/>
      </contour>
    </TTGlyph>
    <TTGlyph name="H" xMin="41" yMin="-12" xMax="701" yMax="710">
      <contour>
        <pt x="469" y="-12" on="0"/>
        <pt x="407" y="40" on="0"/>
        <pt x="407" y="138" on="0"/>
        <pt x="449" y="310" on="1"/>
        <pt x="419" y="317" on="0"/>
        <pt x="335" y="317" on="0"/>
        <pt x="288" y="305" on="1"/>
        <pt x="241" y="102" on="0"/>
        <pt x="239" y="23" on="1"/>
        <pt x="195" y="-3" on="0"/>
        <pt x="60" y="-3" on="1"/>
        <pt x="41" y="-3" on="1"/>
        <pt x="41" y="54" on="0"/>
        <pt x="155" y="516" on="0"/>
        <pt x="155" y="587" on="1"/>
        <pt x="155" y="604" on="0"/>
        <pt x="134" y="645" on="0"/>
        <pt x="123" y="657" on="1"/>
        <pt x="112" y="669" on="1"/>
        <pt x="114" y="689" on="1"/>
        <pt x="181" y="710" on="0"/>
        <pt x="338" y="710" on="1"/>
        <pt x="354" y="688" on="0"/>
        <pt x="354" y="596" on="0"/>
        <pt x="309" y="397" on="1"/>
        <pt x="469" y="397" on="1"/>
        <pt x="506" y="554" on="0"/>
        <pt x="506" y="646" on="1"/>
        <pt x="506" y="664" on="0"/>
        <pt x="505" y="675" on="1"/>
        <pt x="603" y="710" on="0"/>
        <pt x="694" y="710" on="1"/>
        <pt x="701" y="703" on="0"/>
        <pt x="701" y="616" on="0"/>
        <pt x="602" y="182" on="0"/>
        <pt x="602" y="120" on="1"/>
        <pt x="602" y="99" on="0"/>
        <pt x="615" y="99" on="1"/>
        <pt x="640" y="99" on="0"/>
        <pt x="669" y="112" on="1"/>
        <pt x="691" y="56" on="1"/>
        <pt x="655" y="25" on="0"/>
        <pt x="556" y="-12" on="0"/>
      </contour>
    </TTGlyph>
    <TTGlyph name="I" xMin="47" yMin="-12" xMax="352" yMax="710">
      <contour>
        <pt x="245" y="127" on="1"/>
        <pt x="245" y="99" on="0"/>
        <pt x="258" y="99" on="1"/>
        <pt x="280" y="99" on="0"/>
        <pt x="312" y="112" on="1"/>
        <pt x="334" y="56" on="1"/>
        <pt x="242" y="-12" on="0"/>
        <pt x="156" y="-12" on="1"/>
        <pt x="106" y="-12" on="0"/>
        <pt x="47" y="45" on="0"/>
        <pt x="47" y="149" on="0"/>
        <pt x="149" y="516" on="0"/>
        <pt x="154" y="588" on="1"/>
        <pt x="154" y="605" on="0"/>
        <pt x="132" y="645" on="0"/>
        <pt x="122" y="657" on="1"/>
        <pt x="111" y="669" on="1"/>
        <pt x="113" y="689" on="1"/>
        <pt x="176" y="710" on="0"/>
        <pt x="336" y="710" on="1"/>
        <pt x="352" y="680" on="0"/>
        <pt x="352" y="646" on="1"/>
        <pt x="352" y="588" on="0"/>
        <pt x="245" y="198" on="0"/>
      </contour>
    </TTGlyph>
    <TTGlyph name="IJ" xMin="46" yMin="-13" xMax="860" yMax="710">
      <contour>
        <pt x="540" y="709" on="1"/>
        <pt x="753" y="705" on="1"/>
        <pt x="858" y="709" on="1"/>
        <pt x="860" y="687" on="0"/>
        <pt x="860" y="636" on="0"/>
        <pt x="838" y="618" on="0"/>
        <pt x="781" y="618" on="0"/>
        <pt x="765" y="619" on="1"/>
        <pt x="730" y="323" on="0"/>
        <pt x="707" y="205" on="1"/>
        <pt x="677" y="80" on="0"/>
        <pt x="632" y="34" on="1"/>
        <pt x="614" y="14" on="0"/>
        <pt x="553" y="-13" on="0"/>
        <pt x="465" y="-13" on="0"/>
        <pt x="359" y="44" on="0"/>
        <pt x="327" y="82" on="1"/>
        <pt x="365" y="131" on="1"/>
        <pt x="377" y="121" on="0"/>
        <pt x="426" y="96" on="0"/>
        <pt x="463" y="96" on="0"/>
        <pt x="478" y="116" on="1"/>
        <pt x="515" y="163" on="0"/>
        <pt x="542" y="370" on="1"/>
        <pt x="561" y="512" on="0"/>
        <pt x="561" y="609" on="1"/>
        <pt x="561" y="626" on="1"/>
        <pt x="489" y="624" on="0"/>
        <pt x="454" y="613" on="1"/>
        <pt x="440" y="655" on="0"/>
        <pt x="438" y="698" on="1"/>
        <pt x="463" y="709" on="0"/>
      </contour>
      <contour>
        <pt x="246" y="122" on="1"/>
        <pt x="246" y="94" on="0"/>
        <pt x="271" y="94" on="0"/>
        <pt x="300" y="102" on="1"/>
        <pt x="320" y="52" on="1"/>
        <pt x="230" y="-12" on="0"/>
        <pt x="155" y="-12" on="1"/>
        <pt x="105" y="-12" on="0"/>
        <pt x="46" y="45" on="0"/>
        <pt x="46" y="145" on="0"/>
        <pt x="145" y="515" on="0"/>
        <pt x="150" y="588" on="1"/>
        <pt x="150" y="605" on="0"/>
        <pt x="128" y="645" on="0"/>
        <pt x="118" y="657" on="1"/>
        <pt x="107" y="669" on="1"/>
        <pt x="109" y="689" on="1"/>
        <pt x="179" y="710" on="0"/>
        <pt x="339" y="710" on="1"/>
        <pt x="355" y="680" on="0"/>
        <pt x="355" y="646" on="1"/>
        <pt x="355" y="589" on="0"/>
        <pt x="246" y="197" on="0"/>
      </contour>
    </TTGlyph>
    <TTGlyph name="Iacute" xMin="47" yMin="-12" xMax="425" yMax="936">
      <contour>
        <pt x="425" y="845" on="1"/>
        <pt x="425" y="812" on="0"/>
        <pt x="390" y="799" on="1"/>
        <pt x="349" y="781" on="0"/>
        <pt x="119" y="743" on="1"/>
        <pt x="103" y="794" on="1"/>
        <pt x="125" y="805" on="0"/>
        <pt x="194" y="837" on="1"/>
        <pt x="324" y="897" on="0"/>
        <pt x="388" y="936" on="1"/>
        <pt x="398" y="920" on="0"/>
        <pt x="425" y="859" on="0"/>
      </contour>
      <contour>
        <pt x="245" y="127" on="1"/>
        <pt x="245" y="99" on="0"/>
        <pt x="258" y="99" on="1"/>
        <pt x="280" y="99" on="0"/>
        <pt x="312" y="112" on="1"/>
        <pt x="334" y="56" on="1"/>
        <pt x="242" y="-12" on="0"/>
        <pt x="156" y="-12" on="1"/>
        <pt x="106" y="-12" on="0"/>
        <pt x="47" y="45" on="0"/>
        <pt x="47" y="149" on="0"/>
        <pt x="149" y="516" on="0"/>
        <pt x="154" y="588" on="1"/>
        <pt x="154" y="605" on="0"/>
        <pt x="132" y="645" on="0"/>
        <pt x="122" y="657" on="1"/>
        <pt x="111" y="669" on="1"/>
        <pt x="113" y="689" on="1"/>
        <pt x="176" y="710" on="0"/>
        <pt x="336" y="710" on="1"/>
        <pt x="352" y="680" on="0"/>
        <pt x="352" y="646" on="1"/>
        <pt x="352" y="588" on="0"/>
        <pt x="245" y="198" on="0"/>
      </contour>
    </TTGlyph>
    <TTGlyph name="Icircumflex" xMin="47" yMin="-12" xMax="449" yMax="919">
      <contour>
        <pt x="117" y="825" on="0"/>
        <pt x="283" y="919" on="0"/>
        <pt x="335" y="919" on="0"/>
        <pt x="421" y="822" on="0"/>
        <pt x="449" y="781" on="1"/>
        <pt x="414" y="741" on="1"/>
        <pt x="323" y="786" on="0"/>
        <pt x="279" y="799" on="1"/>
        <pt x="227" y="788" on="0"/>
        <pt x="89" y="737" on="1"/>
        <pt x="62" y="783" on="1"/>
      </contour>
      <contour>
        <pt x="245" y="127" on="1"/>
        <pt x="245" y="99" on="0"/>
        <pt x="258" y="99" on="1"/>
        <pt x="280" y="99" on="0"/>
        <pt x="312" y="112" on="1"/>
        <pt x="334" y="56" on="1"/>
        <pt x="242" y="-12" on="0"/>
        <pt x="156" y="-12" on="1"/>
        <pt x="106" y="-12" on="0"/>
        <pt x="47" y="45" on="0"/>
        <pt x="47" y="149" on="0"/>
        <pt x="149" y="516" on="0"/>
        <pt x="154" y="588" on="1"/>
        <pt x="154" y="605" on="0"/>
        <pt x="132" y="645" on="0"/>
        <pt x="122" y="657" on="1"/>
        <pt x="111" y="669" on="1"/>
        <pt x="113" y="689" on="1"/>
        <pt x="176" y="710" on="0"/>
        <pt x="336" y="710" on="1"/>
        <pt x="352" y="680" on="0"/>
        <pt x="352" y="646" on="1"/>
        <pt x="352" y="588" on="0"/>
        <pt x="245" y="198" on="0"/>
      </contour>
    </TTGlyph>
    <TTGlyph name="Idieresis" xMin="47" yMin="-12" xMax="460" yMax="904">
      <contour>
        <pt x="126" y="756" on="0"/>
        <pt x="85" y="797" on="0"/>
        <pt x="85" y="860" on="0"/>
        <pt x="137" y="904" on="0"/>
        <pt x="209" y="904" on="0"/>
        <pt x="250" y="868" on="0"/>
        <pt x="250" y="804" on="0"/>
        <pt x="200" y="756" on="0"/>
      </contour>
      <contour>
        <pt x="336" y="756" on="0"/>
        <pt x="295" y="797" on="0"/>
        <pt x="295" y="860" on="0"/>
        <pt x="347" y="904" on="0"/>
        <pt x="420" y="904" on="0"/>
        <pt x="460" y="868" on="0"/>
        <pt x="460" y="804" on="0"/>
        <pt x="410" y="756" on="0"/>
      </contour>
      <contour>
        <pt x="245" y="127" on="1"/>
        <pt x="245" y="99" on="0"/>
        <pt x="258" y="99" on="1"/>
        <pt x="280" y="99" on="0"/>
        <pt x="312" y="112" on="1"/>
        <pt x="334" y="56" on="1"/>
        <pt x="242" y="-12" on="0"/>
        <pt x="156" y="-12" on="1"/>
        <pt x="106" y="-12" on="0"/>
        <pt x="47" y="45" on="0"/>
        <pt x="47" y="149" on="0"/>
        <pt x="149" y="516" on="0"/>
        <pt x="154" y="588" on="1"/>
        <pt x="154" y="605" on="0"/>
        <pt x="132" y="645" on="0"/>
        <pt x="122" y="657" on="1"/>
        <pt x="111" y="669" on="1"/>
        <pt x="113" y="689" on="1"/>
        <pt x="176" y="710" on="0"/>
        <pt x="336" y="710" on="1"/>
        <pt x="352" y="680" on="0"/>
        <pt x="352" y="646" on="1"/>
        <pt x="352" y="588" on="0"/>
        <pt x="245" y="198" on="0"/>
      </contour>
    </TTGlyph>
    <TTGlyph name="Igrave" xMin="47" yMin="-12" xMax="381" yMax="908">
      <contour>
        <pt x="114" y="908" on="1"/>
        <pt x="143" y="908" on="0"/>
        <pt x="303" y="835" on="0"/>
        <pt x="381" y="789" on="1"/>
        <pt x="359" y="738" on="1"/>
        <pt x="305" y="752" on="0"/>
        <pt x="47" y="805" on="1"/>
        <pt x="75" y="908" on="0"/>
      </contour>
      <contour>
        <pt x="245" y="127" on="1"/>
        <pt x="245" y="99" on="0"/>
        <pt x="258" y="99" on="1"/>
        <pt x="280" y="99" on="0"/>
        <pt x="312" y="112" on="1"/>
        <pt x="334" y="56" on="1"/>
        <pt x="242" y="-12" on="0"/>
        <pt x="156" y="-12" on="1"/>
        <pt x="106" y="-12" on="0"/>
        <pt x="47" y="45" on="0"/>
        <pt x="47" y="149" on="0"/>
        <pt x="149" y="516" on="0"/>
        <pt x="154" y="588" on="1"/>
        <pt x="154" y="605" on="0"/>
        <pt x="132" y="645" on="0"/>
        <pt x="122" y="657" on="1"/>
        <pt x="111" y="669" on="1"/>
        <pt x="113" y="689" on="1"/>
        <pt x="176" y="710" on="0"/>
        <pt x="336" y="710" on="1"/>
        <pt x="352" y="680" on="0"/>
        <pt x="352" y="646" on="1"/>
        <pt x="352" y="588" on="0"/>
        <pt x="245" y="198" on="0"/>
      </contour>
    </TTGlyph>
    <TTGlyph name="Itilde" xMin="47" yMin="-12" xMax="465" yMax="905">
      <contour>
        <pt x="361" y="761" on="1"/>
        <pt x="339" y="761" on="0"/>
        <pt x="200" y="790" on="0"/>
        <pt x="187" y="790" on="1"/>
        <pt x="149" y="790" on="0"/>
        <pt x="126" y="753" on="1"/>
        <pt x="73" y="767" on="1"/>
        <pt x="87" y="904" on="0"/>
        <pt x="190" y="904" on="1"/>
        <pt x="212" y="904" on="0"/>
        <pt x="343" y="875" on="0"/>
        <pt x="381" y="875" on="0"/>
        <pt x="400" y="887" on="0"/>
        <pt x="411" y="905" on="1"/>
        <pt x="465" y="893" on="1"/>
        <pt x="451" y="761" on="0"/>
      </contour>
      <contour>
        <pt x="245" y="127" on="1"/>
        <pt x="245" y="99" on="0"/>
        <pt x="258" y="99" on="1"/>
        <pt x="280" y="99" on="0"/>
        <pt x="312" y="112" on="1"/>
        <pt x="334" y="56" on="1"/>
        <pt x="242" y="-12" on="0"/>
        <pt x="156" y="-12" on="1"/>
        <pt x="106" y="-12" on="0"/>
        <pt x="47" y="45" on="0"/>
        <pt x="47" y="149" on="0"/>
        <pt x="149" y="516" on="0"/>
        <pt x="154" y="588" on="1"/>
        <pt x="154" y="605" on="0"/>
        <pt x="132" y="645" on="0"/>
        <pt x="122" y="657" on="1"/>
        <pt x="111" y="669" on="1"/>
        <pt x="113" y="689" on="1"/>
        <pt x="176" y="710" on="0"/>
        <pt x="336" y="710" on="1"/>
        <pt x="352" y="680" on="0"/>
        <pt x="352" y="646" on="1"/>
        <pt x="352" y="588" on="0"/>
        <pt x="245" y="198" on="0"/>
      </contour>
    </TTGlyph>
    <TTGlyph name="J" xMin="-18" yMin="-13" xMax="503" yMax="709">
      <contour>
        <pt x="195" y="709" on="1"/>
        <pt x="408" y="707" on="1"/>
        <pt x="501" y="709" on="1"/>
        <pt x="503" y="687" on="0"/>
        <pt x="503" y="637" on="0"/>
        <pt x="482" y="618" on="0"/>
        <pt x="427" y="618" on="0"/>
        <pt x="410" y="619" on="1"/>
        <pt x="372" y="228" on="0"/>
        <pt x="335" y="126" on="1"/>
        <pt x="303" y="36" on="0"/>
        <pt x="248" y="6" on="1"/>
        <pt x="214" y="-13" on="0"/>
        <pt x="119" y="-13" on="0"/>
        <pt x="13" y="42" on="0"/>
        <pt x="-18" y="79" on="1"/>
        <pt x="18" y="130" on="1"/>
        <pt x="30" y="121" on="0"/>
        <pt x="81" y="96" on="0"/>
        <pt x="118" y="96" on="0"/>
        <pt x="134" y="116" on="1"/>
        <pt x="170" y="163" on="0"/>
        <pt x="197" y="370" on="1"/>
        <pt x="216" y="512" on="0"/>
        <pt x="216" y="609" on="1"/>
        <pt x="216" y="626" on="1"/>
        <pt x="147" y="624" on="0"/>
        <pt x="112" y="613" on="1"/>
        <pt x="98" y="655" on="0"/>
        <pt x="96" y="698" on="1"/>
        <pt x="118" y="709" on="0"/>
      </contour>
    </TTGlyph>
    <TTGlyph name="Jcircumflex" xMin="-18" yMin="-13" xMax="509" yMax="919">
      <contour>
        <pt x="195" y="709" on="1"/>
        <pt x="408" y="705" on="1"/>
        <pt x="507" y="709" on="1"/>
        <pt x="509" y="687" on="0"/>
        <pt x="509" y="636" on="0"/>
        <pt x="487" y="618" on="0"/>
        <pt x="427" y="618" on="0"/>
        <pt x="410" y="619" on="1"/>
        <pt x="372" y="228" on="0"/>
        <pt x="335" y="126" on="1"/>
        <pt x="303" y="36" on="0"/>
        <pt x="248" y="6" on="1"/>
        <pt x="214" y="-13" on="0"/>
        <pt x="119" y="-13" on="0"/>
        <pt x="13" y="42" on="0"/>
        <pt x="-18" y="79" on="1"/>
        <pt x="18" y="130" on="1"/>
        <pt x="30" y="121" on="0"/>
        <pt x="81" y="96" on="0"/>
        <pt x="118" y="96" on="0"/>
        <pt x="134" y="116" on="1"/>
        <pt x="170" y="163" on="0"/>
        <pt x="197" y="370" on="1"/>
        <pt x="216" y="512" on="0"/>
        <pt x="216" y="609" on="1"/>
        <pt x="216" y="626" on="1"/>
        <pt x="144" y="624" on="0"/>
        <pt x="109" y="613" on="1"/>
        <pt x="95" y="655" on="0"/>
        <pt x="93" y="698" on="1"/>
        <pt x="118" y="709" on="0"/>
      </contour>
      <contour>
        <pt x="170" y="825" on="0"/>
        <pt x="336" y="919" on="0"/>
        <pt x="388" y="919" on="0"/>
        <pt x="474" y="822" on="0"/>
        <pt x="502" y="781" on="1"/>
        <pt x="467" y="741" on="1"/>
        <pt x="376" y="786" on="0"/>
        <pt x="332" y="799" on="1"/>
        <pt x="280" y="788" on="0"/>
        <pt x="142" y="737" on="1"/>
        <pt x="115" y="783" on="1"/>
      </contour>
    </TTGlyph>
    <TTGlyph name="K" xMin="41" yMin="-12" xMax="671" yMax="710">
      <contour>
        <pt x="237" y="20" on="1"/>
        <pt x="189" y="-6" on="0"/>
        <pt x="97" y="-6" on="1"/>
        <pt x="68" y="-6" on="0"/>
        <pt x="41" y="-2" on="1"/>
        <pt x="41" y="51" on="0"/>
        <pt x="152" y="501" on="0"/>
        <pt x="152" y="579" on="1"/>
        <pt x="152" y="599" on="0"/>
        <pt x="132" y="644" on="0"/>
        <pt x="122" y="656" on="1"/>
        <pt x="111" y="669" on="1"/>
        <pt x="115" y="689" on="1"/>
        <pt x="186" y="710" on="0"/>
        <pt x="338" y="710" on="1"/>
        <pt x="352" y="682" on="0"/>
        <pt x="352" y="596" on="0"/>
        <pt x="310" y="401" on="1"/>
        <pt x="316" y="401" on="1"/>
        <pt x="388" y="401" on="0"/>
        <pt x="461" y="532" on="0"/>
        <pt x="481" y="683" on="1"/>
        <pt x="570" y="710" on="0"/>
        <pt x="657" y="710" on="1"/>
        <pt x="659" y="702" on="0"/>
        <pt x="657" y="631" on="0"/>
        <pt x="622" y="513" on="0"/>
        <pt x="532" y="388" on="0"/>
        <pt x="467" y="355" on="1"/>
        <pt x="543" y="93" on="0"/>
        <pt x="585" y="93" on="1"/>
        <pt x="601" y="93" on="0"/>
        <pt x="636" y="105" on="1"/>
        <pt x="647" y="109" on="1"/>
        <pt x="671" y="54" on="1"/>
        <pt x="578" y="-12" on="0"/>
        <pt x="388" y="-12" on="0"/>
        <pt x="358" y="86" on="1"/>
        <pt x="328" y="186" on="0"/>
        <pt x="313" y="321" on="1"/>
        <pt x="292" y="321" on="1"/>
        <pt x="237" y="77" on="0"/>
      </contour>
    </TTGlyph>
    <TTGlyph name="L" xMin="-11" yMin="-24" xMax="527" yMax="710">
      <contour>
        <pt x="387" y="-24" on="1"/>
        <pt x="345" y="-24" on="0"/>
        <pt x="184" y="64" on="0"/>
        <pt x="171" y="67" on="1"/>
        <pt x="111" y="-12" on="0"/>
        <pt x="59" y="-12" on="1"/>
        <pt x="45" y="-12" on="0"/>
        <pt x="-11" y="66" on="0"/>
        <pt x="-11" y="100" on="1"/>
        <pt x="-11" y="115" on="0"/>
        <pt x="51" y="160" on="0"/>
        <pt x="91" y="169" on="1"/>
        <pt x="118" y="232" on="0"/>
        <pt x="171" y="488" on="0"/>
        <pt x="171" y="585" on="1"/>
        <pt x="171" y="601" on="0"/>
        <pt x="150" y="641" on="0"/>
        <pt x="140" y="653" on="1"/>
        <pt x="129" y="665" on="1"/>
        <pt x="132" y="685" on="1"/>
        <pt x="187" y="710" on="0"/>
        <pt x="360" y="710" on="1"/>
        <pt x="376" y="685" on="0"/>
        <pt x="376" y="565" on="0"/>
        <pt x="270" y="269" on="0"/>
        <pt x="217" y="160" on="1"/>
        <pt x="317" y="134" on="0"/>
        <pt x="408" y="134" on="1"/>
        <pt x="429" y="134" on="0"/>
        <pt x="456" y="154" on="0"/>
        <pt x="472" y="186" on="1"/>
        <pt x="527" y="167" on="1"/>
        <pt x="511" y="72" on="0"/>
        <pt x="446" y="-24" on="0"/>
      </contour>
    </TTGlyph>
    <TTGlyph name="Ldotaccent" xMin="-11" yMin="-24" xMax="531" yMax="710">
      <contour>
        <pt x="413" y="303" on="0"/>
        <pt x="376" y="343" on="0"/>
        <pt x="376" y="407" on="0"/>
        <pt x="426" y="452" on="0"/>
        <pt x="495" y="452" on="0"/>
        <pt x="531" y="414" on="0"/>
        <pt x="531" y="351" on="0"/>
        <pt x="482" y="303" on="0"/>
      </contour>
      <contour>
        <pt x="387" y="-24" on="1"/>
        <pt x="345" y="-24" on="0"/>
        <pt x="184" y="64" on="0"/>
        <pt x="171" y="67" on="1"/>
        <pt x="111" y="-12" on="0"/>
        <pt x="59" y="-12" on="1"/>
        <pt x="45" y="-12" on="0"/>
        <pt x="-11" y="66" on="0"/>
        <pt x="-11" y="100" on="1"/>
        <pt x="-11" y="115" on="0"/>
        <pt x="51" y="160" on="0"/>
        <pt x="91" y="169" on="1"/>
        <pt x="118" y="232" on="0"/>
        <pt x="171" y="488" on="0"/>
        <pt x="171" y="585" on="1"/>
        <pt x="171" y="601" on="0"/>
        <pt x="150" y="641" on="0"/>
        <pt x="140" y="653" on="1"/>
        <pt x="129" y="665" on="1"/>
        <pt x="132" y="685" on="1"/>
        <pt x="187" y="710" on="0"/>
        <pt x="360" y="710" on="1"/>
        <pt x="376" y="685" on="0"/>
        <pt x="376" y="565" on="0"/>
        <pt x="270" y="269" on="0"/>
        <pt x="217" y="160" on="1"/>
        <pt x="317" y="134" on="0"/>
        <pt x="408" y="134" on="1"/>
        <pt x="429" y="134" on="0"/>
        <pt x="456" y="154" on="0"/>
        <pt x="472" y="186" on="1"/>
        <pt x="527" y="167" on="1"/>
        <pt x="511" y="72" on="0"/>
        <pt x="446" y="-24" on="0"/>
      </contour>
    </TTGlyph>
    <TTGlyph name="Lslash" xMin="2" yMin="-24" xMax="540" yMax="710">
      <contour>
        <pt x="341" y="430" on="1"/>
        <pt x="484" y="479" on="1"/>
        <pt x="491" y="465" on="0"/>
        <pt x="503" y="408" on="0"/>
        <pt x="503" y="399" on="1"/>
        <pt x="485" y="394" on="0"/>
        <pt x="307" y="338" on="1"/>
        <pt x="267" y="235" on="0"/>
        <pt x="230" y="160" on="1"/>
        <pt x="330" y="134" on="0"/>
        <pt x="421" y="134" on="1"/>
        <pt x="442" y="134" on="0"/>
        <pt x="469" y="154" on="0"/>
        <pt x="485" y="186" on="1"/>
        <pt x="540" y="167" on="1"/>
        <pt x="524" y="72" on="0"/>
        <pt x="459" y="-24" on="0"/>
        <pt x="400" y="-24" on="1"/>
        <pt x="358" y="-24" on="0"/>
        <pt x="197" y="64" on="0"/>
        <pt x="184" y="67" on="1"/>
        <pt x="124" y="-12" on="0"/>
        <pt x="72" y="-12" on="1"/>
        <pt x="58" y="-12" on="0"/>
        <pt x="2" y="66" on="0"/>
        <pt x="2" y="100" on="1"/>
        <pt x="2" y="115" on="0"/>
        <pt x="64" y="160" on="0"/>
        <pt x="104" y="169" on="1"/>
        <pt x="127" y="224" on="0"/>
        <pt x="145" y="304" on="1"/>
        <pt x="47" y="268" on="1"/>
        <pt x="41" y="273" on="0"/>
        <pt x="25" y="327" on="0"/>
        <pt x="24" y="348" on="1"/>
        <pt x="78" y="366" on="0"/>
        <pt x="163" y="391" on="1"/>
        <pt x="184" y="506" on="0"/>
        <pt x="184" y="585" on="1"/>
        <pt x="184" y="601" on="0"/>
        <pt x="163" y="641" on="0"/>
        <pt x="152" y="653" on="1"/>
        <pt x="142" y="665" on="1"/>
        <pt x="145" y="685" on="1"/>
        <pt x="200" y="710" on="0"/>
        <pt x="373" y="710" on="1"/>
        <pt x="389" y="685" on="0"/>
        <pt x="389" y="569" on="0"/>
      </contour>
    </TTGlyph>
    <TTGlyph name="M" xMin="41" yMin="-12" xMax="987" yMax="710">
      <contour>
        <pt x="53" y="-6" on="1"/>
        <pt x="41" y="-6" on="1"/>
        <pt x="41" y="52" on="0"/>
        <pt x="153" y="550" on="0"/>
        <pt x="153" y="576" on="1"/>
        <pt x="153" y="618" on="0"/>
        <pt x="122" y="656" on="1"/>
        <pt x="112" y="669" on="1"/>
        <pt x="115" y="689" on="1"/>
        <pt x="174" y="709" on="0"/>
        <pt x="331" y="709" on="1"/>
        <pt x="347" y="673" on="0"/>
        <pt x="348" y="624" on="1"/>
        <pt x="465" y="710" on="0"/>
        <pt x="548" y="710" on="1"/>
        <pt x="643" y="710" on="0"/>
        <pt x="661" y="628" on="1"/>
        <pt x="774" y="710" on="0"/>
        <pt x="858" y="710" on="1"/>
        <pt x="915" y="710" on="0"/>
        <pt x="987" y="647" on="0"/>
        <pt x="987" y="528" on="0"/>
        <pt x="900" y="195" on="0"/>
        <pt x="900" y="125" on="1"/>
        <pt x="900" y="99" on="0"/>
        <pt x="911" y="99" on="1"/>
        <pt x="932" y="99" on="0"/>
        <pt x="962" y="111" on="1"/>
        <pt x="983" y="54" on="1"/>
        <pt x="890" y="-12" on="0"/>
        <pt x="799" y="-12" on="1"/>
        <pt x="756" y="-12" on="0"/>
        <pt x="704" y="40" on="0"/>
        <pt x="704" y="141" on="0"/>
        <pt x="787" y="480" on="0"/>
        <pt x="787" y="554" on="0"/>
        <pt x="769" y="579" on="0"/>
        <pt x="717" y="579" on="0"/>
        <pt x="661" y="541" on="1"/>
        <pt x="654" y="495" on="0"/>
        <pt x="630" y="392" on="1"/>
        <pt x="567" y="129" on="0"/>
        <pt x="567" y="19" on="1"/>
        <pt x="518" y="-7" on="0"/>
        <pt x="398" y="-7" on="1"/>
        <pt x="371" y="-7" on="1"/>
        <pt x="371" y="85" on="0"/>
        <pt x="465" y="477" on="0"/>
        <pt x="465" y="555" on="0"/>
        <pt x="448" y="579" on="0"/>
        <pt x="395" y="579" on="0"/>
        <pt x="338" y="540" on="1"/>
        <pt x="329" y="490" on="0"/>
        <pt x="301" y="374" on="1"/>
        <pt x="236" y="103" on="0"/>
        <pt x="236" y="20" on="1"/>
        <pt x="192" y="-6" on="0"/>
      </contour>
    </TTGlyph>
    <TTGlyph name="N" xMin="41" yMin="-12" xMax="680" yMax="710">
      <contour>
        <pt x="58" y="-6" on="1"/>
        <pt x="41" y="-6" on="1"/>
        <pt x="41" y="54" on="0"/>
        <pt x="153" y="546" on="0"/>
        <pt x="153" y="585" on="1"/>
        <pt x="153" y="602" on="0"/>
        <pt x="132" y="644" on="0"/>
        <pt x="122" y="656" on="1"/>
        <pt x="112" y="669" on="1"/>
        <pt x="115" y="689" on="1"/>
        <pt x="177" y="710" on="0"/>
        <pt x="331" y="710" on="1"/>
        <pt x="349" y="672" on="0"/>
        <pt x="349" y="624" on="1"/>
        <pt x="349" y="622" on="1"/>
        <pt x="469" y="710" on="0"/>
        <pt x="559" y="710" on="1"/>
        <pt x="612" y="710" on="0"/>
        <pt x="680" y="647" on="0"/>
        <pt x="680" y="530" on="0"/>
        <pt x="588" y="176" on="0"/>
        <pt x="588" y="99" on="0"/>
        <pt x="601" y="99" on="1"/>
        <pt x="619" y="99" on="0"/>
        <pt x="655" y="112" on="1"/>
        <pt x="676" y="55" on="1"/>
        <pt x="578" y="-12" on="0"/>
        <pt x="494" y="-12" on="1"/>
        <pt x="446" y="-12" on="0"/>
        <pt x="395" y="39" on="0"/>
        <pt x="395" y="157" on="0"/>
        <pt x="482" y="488" on="0"/>
        <pt x="482" y="528" on="1"/>
        <pt x="482" y="579" on="0"/>
        <pt x="437" y="579" on="1"/>
        <pt x="404" y="579" on="0"/>
        <pt x="338" y="538" on="1"/>
        <pt x="329" y="490" on="0"/>
        <pt x="300" y="372" on="1"/>
        <pt x="236" y="103" on="0"/>
        <pt x="236" y="20" on="1"/>
        <pt x="192" y="-6" on="0"/>
      </contour>
    </TTGlyph>
    <TTGlyph name="Nacute" xMin="41" yMin="-12" xMax="680" yMax="933">
      <contour>
        <pt x="58" y="-6" on="1"/>
        <pt x="41" y="-6" on="1"/>
        <pt x="41" y="54" on="0"/>
        <pt x="153" y="546" on="0"/>
        <pt x="153" y="585" on="1"/>
        <pt x="153" y="602" on="0"/>
        <pt x="132" y="644" on="0"/>
        <pt x="122" y="656" on="1"/>
        <pt x="112" y="669" on="1"/>
        <pt x="115" y="689" on="1"/>
        <pt x="177" y="710" on="0"/>
        <pt x="331" y="710" on="1"/>
        <pt x="349" y="672" on="0"/>
        <pt x="349" y="624" on="1"/>
        <pt x="349" y="622" on="1"/>
        <pt x="469" y="710" on="0"/>
        <pt x="559" y="710" on="1"/>
        <pt x="612" y="710" on="0"/>
        <pt x="680" y="647" on="0"/>
        <pt x="680" y="530" on="0"/>
        <pt x="588" y="176" on="0"/>
        <pt x="588" y="99" on="0"/>
        <pt x="601" y="99" on="1"/>
        <pt x="619" y="99" on="0"/>
        <pt x="655" y="112" on="1"/>
        <pt x="676" y="55" on="1"/>
        <pt x="578" y="-12" on="0"/>
        <pt x="494" y="-12" on="1"/>
        <pt x="446" y="-12" on="0"/>
        <pt x="395" y="39" on="0"/>
        <pt x="395" y="157" on="0"/>
        <pt x="482" y="488" on="0"/>
        <pt x="482" y="528" on="1"/>
        <pt x="482" y="579" on="0"/>
        <pt x="437" y="579" on="1"/>
        <pt x="404" y="579" on="0"/>
        <pt x="338" y="538" on="1"/>
        <pt x="329" y="490" on="0"/>
        <pt x="300" y="372" on="1"/>
        <pt x="236" y="103" on="0"/>
        <pt x="236" y="20" on="1"/>
        <pt x="192" y="-6" on="0"/>
      </contour>
      <contour>
        <pt x="662" y="842" on="1"/>
        <pt x="662" y="810" on="0"/>
        <pt x="624" y="796" on="1"/>
        <pt x="575" y="775" on="0"/>
        <pt x="345" y="740" on="1"/>
        <pt x="326" y="794" on="1"/>
        <pt x="353" y="806" on="0"/>
        <pt x="453" y="850" on="0"/>
        <pt x="482" y="863" on="1"/>
        <pt x="565" y="900" on="0"/>
        <pt x="622" y="933" on="1"/>
        <pt x="633" y="917" on="0"/>
        <pt x="662" y="856" on="0"/>
      </contour>
    </TTGlyph>
    <TTGlyph name="Ntilde" xMin="41" yMin="-12" xMax="681" yMax="905">
      <contour>
        <pt x="58" y="-6" on="1"/>
        <pt x="41" y="-6" on="1"/>
        <pt x="41" y="54" on="0"/>
        <pt x="153" y="546" on="0"/>
        <pt x="153" y="585" on="1"/>
        <pt x="153" y="602" on="0"/>
        <pt x="132" y="644" on="0"/>
        <pt x="122" y="656" on="1"/>
        <pt x="112" y="669" on="1"/>
        <pt x="115" y="689" on="1"/>
        <pt x="177" y="710" on="0"/>
        <pt x="331" y="710" on="1"/>
        <pt x="349" y="672" on="0"/>
        <pt x="349" y="624" on="1"/>
        <pt x="349" y="622" on="1"/>
        <pt x="469" y="710" on="0"/>
        <pt x="559" y="710" on="1"/>
        <pt x="612" y="710" on="0"/>
        <pt x="680" y="647" on="0"/>
        <pt x="680" y="530" on="0"/>
        <pt x="588" y="176" on="0"/>
        <pt x="588" y="99" on="0"/>
        <pt x="601" y="99" on="1"/>
        <pt x="619" y="99" on="0"/>
        <pt x="655" y="112" on="1"/>
        <pt x="676" y="55" on="1"/>
        <pt x="578" y="-12" on="0"/>
        <pt x="494" y="-12" on="1"/>
        <pt x="446" y="-12" on="0"/>
        <pt x="395" y="39" on="0"/>
        <pt x="395" y="157" on="0"/>
        <pt x="482" y="488" on="0"/>
        <pt x="482" y="528" on="1"/>
        <pt x="482" y="579" on="0"/>
        <pt x="437" y="579" on="1"/>
        <pt x="404" y="579" on="0"/>
        <pt x="338" y="538" on="1"/>
        <pt x="329" y="490" on="0"/>
        <pt x="300" y="372" on="1"/>
        <pt x="236" y="103" on="0"/>
        <pt x="236" y="20" on="1"/>
        <pt x="192" y="-6" on="0"/>
      </contour>
      <contour>
        <pt x="565" y="761" on="1"/>
        <pt x="542" y="761" on="0"/>
        <pt x="405" y="790" on="0"/>
        <pt x="383" y="790" on="1"/>
        <pt x="341" y="790" on="0"/>
        <pt x="315" y="753" on="1"/>
        <pt x="261" y="767" on="1"/>
        <pt x="275" y="904" on="0"/>
        <pt x="384" y="904" on="1"/>
        <pt x="406" y="904" on="0"/>
        <pt x="544" y="875" on="0"/>
        <pt x="591" y="875" on="0"/>
        <pt x="613" y="887" on="0"/>
        <pt x="626" y="905" on="1"/>
        <pt x="681" y="893" on="1"/>
        <pt x="667" y="761" on="0"/>
      </contour>
    </TTGlyph>
    <TTGlyph name="O" xMin="48" yMin="-12" xMax="673" yMax="710">
      <contour>
        <pt x="645" y="581" on="0"/>
        <pt x="673" y="491" on="0"/>
        <pt x="673" y="367" on="0"/>
        <pt x="630" y="215" on="0"/>
        <pt x="545" y="76" on="0"/>
        <pt x="395" y="-12" on="0"/>
        <pt x="299" y="-12" on="1"/>
        <pt x="182" y="-12" on="0"/>
        <pt x="48" y="146" on="0"/>
        <pt x="48" y="386" on="0"/>
        <pt x="139" y="585" on="0"/>
        <pt x="308" y="710" on="0"/>
        <pt x="412" y="710" on="1"/>
        <pt x="482" y="710" on="0"/>
        <pt x="587" y="662" on="0"/>
      </contour>
      <contour>
        <pt x="281" y="78" on="1"/>
        <pt x="299" y="64" on="0"/>
        <pt x="368" y="64" on="0"/>
        <pt x="429" y="145" on="0"/>
        <pt x="446" y="209" on="1"/>
        <pt x="478" y="335" on="0"/>
        <pt x="478" y="470" on="1"/>
        <pt x="478" y="634" on="0"/>
        <pt x="398" y="634" on="1"/>
        <pt x="360" y="634" on="0"/>
        <pt x="299" y="563" on="0"/>
        <pt x="281" y="506" on="1"/>
        <pt x="244" y="390" on="0"/>
        <pt x="244" y="257" on="1"/>
        <pt x="244" y="108" on="0"/>
      </contour>
    </TTGlyph>
    <TTGlyph name="OE" xMin="48" yMin="-12" xMax="868" yMax="710">
      <contour>
        <pt x="600" y="389" on="1"/>
        <pt x="674" y="399" on="0"/>
        <pt x="793" y="399" on="0"/>
        <pt x="822" y="390" on="1"/>
        <pt x="822" y="347" on="0"/>
        <pt x="810" y="318" on="1"/>
        <pt x="805" y="307" on="1"/>
        <pt x="748" y="316" on="0"/>
        <pt x="703" y="316" on="1"/>
        <pt x="590" y="309" on="1"/>
        <pt x="582" y="258" on="0"/>
        <pt x="582" y="148" on="0"/>
        <pt x="626" y="89" on="0"/>
        <pt x="722" y="89" on="0"/>
        <pt x="846" y="137" on="1"/>
        <pt x="868" y="77" on="1"/>
        <pt x="828" y="48" on="0"/>
        <pt x="677" y="-12" on="0"/>
        <pt x="504" y="-12" on="0"/>
        <pt x="446" y="32" on="1"/>
        <pt x="375" y="-12" on="0"/>
        <pt x="288" y="-12" on="1"/>
        <pt x="180" y="-12" on="0"/>
        <pt x="48" y="142" on="0"/>
        <pt x="48" y="278" on="1"/>
        <pt x="48" y="448" on="0"/>
        <pt x="140" y="575" on="1"/>
        <pt x="185" y="636" on="0"/>
        <pt x="325" y="710" on="0"/>
        <pt x="410" y="710" on="1"/>
        <pt x="580" y="705" on="1"/>
        <pt x="760" y="705" on="0"/>
        <pt x="864" y="708" on="1"/>
        <pt x="867" y="681" on="0"/>
        <pt x="867" y="658" on="1"/>
        <pt x="867" y="613" on="0"/>
        <pt x="824" y="613" on="1"/>
        <pt x="816" y="613" on="0"/>
        <pt x="713" y="621" on="0"/>
        <pt x="660" y="621" on="0"/>
        <pt x="646" y="619" on="1"/>
        <pt x="618" y="510" on="0"/>
      </contour>
      <contour>
        <pt x="401" y="636" on="1"/>
        <pt x="330" y="636" on="0"/>
        <pt x="244" y="425" on="0"/>
        <pt x="244" y="253" on="1"/>
        <pt x="244" y="149" on="0"/>
        <pt x="278" y="69" on="0"/>
        <pt x="312" y="69" on="1"/>
        <pt x="333" y="69" on="0"/>
        <pt x="372" y="90" on="0"/>
        <pt x="381" y="100" on="1"/>
        <pt x="390" y="111" on="1"/>
        <pt x="390" y="137" on="1"/>
        <pt x="391" y="244" on="0"/>
        <pt x="440" y="564" on="0"/>
        <pt x="457" y="622" on="1"/>
        <pt x="431" y="636" on="0"/>
      </contour>
    </TTGlyph>
    <TTGlyph name="Oacute" xMin="48" yMin="-12" xMax="673" yMax="933">
      <contour>
        <pt x="645" y="581" on="0"/>
        <pt x="673" y="491" on="0"/>
        <pt x="673" y="367" on="0"/>
        <pt x="630" y="215" on="0"/>
        <pt x="545" y="76" on="0"/>
        <pt x="395" y="-12" on="0"/>
        <pt x="299" y="-12" on="1"/>
        <pt x="182" y="-12" on="0"/>
        <pt x="48" y="146" on="0"/>
        <pt x="48" y="386" on="0"/>
        <pt x="139" y="585" on="0"/>
        <pt x="308" y="710" on="0"/>
        <pt x="412" y="710" on="1"/>
        <pt x="482" y="710" on="0"/>
        <pt x="587" y="662" on="0"/>
      </contour>
      <contour>
        <pt x="281" y="78" on="1"/>
        <pt x="299" y="64" on="0"/>
        <pt x="368" y="64" on="0"/>
        <pt x="429" y="145" on="0"/>
        <pt x="446" y="209" on="1"/>
        <pt x="478" y="335" on="0"/>
        <pt x="478" y="470" on="1"/>
        <pt x="478" y="634" on="0"/>
        <pt x="398" y="634" on="1"/>
        <pt x="360" y="634" on="0"/>
        <pt x="299" y="563" on="0"/>
        <pt x="281" y="506" on="1"/>
        <pt x="244" y="390" on="0"/>
        <pt x="244" y="257" on="1"/>
        <pt x="244" y="108" on="0"/>
      </contour>
      <contour>
        <pt x="604" y="842" on="1"/>
        <pt x="604" y="810" on="0"/>
        <pt x="566" y="796" on="1"/>
        <pt x="517" y="775" on="0"/>
        <pt x="287" y="740" on="1"/>
        <pt x="268" y="794" on="1"/>
        <pt x="295" y="806" on="0"/>
        <pt x="395" y="850" on="0"/>
        <pt x="424" y="863" on="1"/>
        <pt x="507" y="900" on="0"/>
        <pt x="564" y="933" on="1"/>
        <pt x="575" y="917" on="0"/>
        <pt x="604" y="856" on="0"/>
      </contour>
    </TTGlyph>
    <TTGlyph name="Ocircumflex" xMin="48" yMin="-12" xMax="673" yMax="919">
      <contour>
        <pt x="645" y="581" on="0"/>
        <pt x="673" y="491" on="0"/>
        <pt x="673" y="367" on="0"/>
        <pt x="630" y="215" on="0"/>
        <pt x="545" y="76" on="0"/>
        <pt x="395" y="-12" on="0"/>
        <pt x="299" y="-12" on="1"/>
        <pt x="182" y="-12" on="0"/>
        <pt x="48" y="146" on="0"/>
        <pt x="48" y="386" on="0"/>
        <pt x="139" y="585" on="0"/>
        <pt x="308" y="710" on="0"/>
        <pt x="412" y="710" on="1"/>
        <pt x="482" y="710" on="0"/>
        <pt x="587" y="662" on="0"/>
      </contour>
      <contour>
        <pt x="281" y="78" on="1"/>
        <pt x="299" y="64" on="0"/>
        <pt x="368" y="64" on="0"/>
        <pt x="429" y="145" on="0"/>
        <pt x="446" y="209" on="1"/>
        <pt x="478" y="335" on="0"/>
        <pt x="478" y="470" on="1"/>
        <pt x="478" y="634" on="0"/>
        <pt x="398" y="634" on="1"/>
        <pt x="360" y="634" on="0"/>
        <pt x="299" y="563" on="0"/>
        <pt x="281" y="506" on="1"/>
        <pt x="244" y="390" on="0"/>
        <pt x="244" y="257" on="1"/>
        <pt x="244" y="108" on="0"/>
      </contour>
      <contour>
        <pt x="281" y="831" on="0"/>
        <pt x="455" y="919" on="0"/>
        <pt x="516" y="919" on="0"/>
        <pt x="621" y="813" on="0"/>
        <pt x="645" y="778" on="1"/>
        <pt x="606" y="741" on="1"/>
        <pt x="497" y="786" on="0"/>
        <pt x="452" y="800" on="1"/>
        <pt x="381" y="786" on="0"/>
        <pt x="248" y="739" on="1"/>
        <pt x="219" y="787" on="1"/>
      </contour>
    </TTGlyph>
    <TTGlyph name="Odieresis" xMin="48" yMin="-12" xMax="673" yMax="903">
      <contour>
        <pt x="645" y="581" on="0"/>
        <pt x="673" y="491" on="0"/>
        <pt x="673" y="367" on="0"/>
        <pt x="630" y="215" on="0"/>
        <pt x="545" y="76" on="0"/>
        <pt x="395" y="-12" on="0"/>
        <pt x="299" y="-12" on="1"/>
        <pt x="182" y="-12" on="0"/>
        <pt x="48" y="146" on="0"/>
        <pt x="48" y="386" on="0"/>
        <pt x="139" y="585" on="0"/>
        <pt x="308" y="710" on="0"/>
        <pt x="412" y="710" on="1"/>
        <pt x="482" y="710" on="0"/>
        <pt x="587" y="662" on="0"/>
      </contour>
      <contour>
        <pt x="281" y="78" on="1"/>
        <pt x="299" y="64" on="0"/>
        <pt x="368" y="64" on="0"/>
        <pt x="429" y="145" on="0"/>
        <pt x="446" y="209" on="1"/>
        <pt x="478" y="335" on="0"/>
        <pt x="478" y="470" on="1"/>
        <pt x="478" y="634" on="0"/>
        <pt x="398" y="634" on="1"/>
        <pt x="360" y="634" on="0"/>
        <pt x="299" y="563" on="0"/>
        <pt x="281" y="506" on="1"/>
        <pt x="244" y="390" on="0"/>
        <pt x="244" y="257" on="1"/>
        <pt x="244" y="108" on="0"/>
      </contour>
      <contour>
        <pt x="263" y="757" on="0"/>
        <pt x="221" y="797" on="0"/>
        <pt x="221" y="860" on="0"/>
        <pt x="273" y="903" on="0"/>
        <pt x="347" y="903" on="0"/>
        <pt x="388" y="868" on="0"/>
        <pt x="388" y="804" on="0"/>
        <pt x="337" y="757" on="0"/>
      </contour>
      <contour>
        <pt x="490" y="757" on="0"/>
        <pt x="448" y="797" on="0"/>
        <pt x="448" y="860" on="0"/>
        <pt x="500" y="903" on="0"/>
        <pt x="574" y="903" on="0"/>
        <pt x="615" y="868" on="0"/>
        <pt x="615" y="804" on="0"/>
        <pt x="564" y="757" on="0"/>
      </contour>
    </TTGlyph>
    <TTGlyph name="Ograve" xMin="48" yMin="-12" xMax="673" yMax="905">
      <contour>
        <pt x="645" y="581" on="0"/>
        <pt x="673" y="491" on="0"/>
        <pt x="673" y="367" on="0"/>
        <pt x="630" y="215" on="0"/>
        <pt x="545" y="76" on="0"/>
        <pt x="395" y="-12" on="0"/>
        <pt x="299" y="-12" on="1"/>
        <pt x="182" y="-12" on="0"/>
        <pt x="48" y="146" on="0"/>
        <pt x="48" y="386" on="0"/>
        <pt x="139" y="585" on="0"/>
        <pt x="308" y="710" on="0"/>
        <pt x="412" y="710" on="1"/>
        <pt x="482" y="710" on="0"/>
        <pt x="587" y="662" on="0"/>
      </contour>
      <contour>
        <pt x="281" y="78" on="1"/>
        <pt x="299" y="64" on="0"/>
        <pt x="368" y="64" on="0"/>
        <pt x="429" y="145" on="0"/>
        <pt x="446" y="209" on="1"/>
        <pt x="478" y="335" on="0"/>
        <pt x="478" y="470" on="1"/>
        <pt x="478" y="634" on="0"/>
        <pt x="398" y="634" on="1"/>
        <pt x="360" y="634" on="0"/>
        <pt x="299" y="563" on="0"/>
        <pt x="281" y="506" on="1"/>
        <pt x="244" y="390" on="0"/>
        <pt x="244" y="257" on="1"/>
        <pt x="244" y="108" on="0"/>
      </contour>
      <contour>
        <pt x="284" y="905" on="1"/>
        <pt x="315" y="905" on="0"/>
        <pt x="477" y="834" on="0"/>
        <pt x="560" y="788" on="1"/>
        <pt x="538" y="735" on="1"/>
        <pt x="441" y="758" on="0"/>
        <pt x="213" y="802" on="1"/>
        <pt x="244" y="905" on="0"/>
      </contour>
    </TTGlyph>
    <TTGlyph name="Oslash" xMin="48" yMin="-104" xMax="673" yMax="802">
      <contour>
        <pt x="578" y="776" on="1"/>
        <pt x="571" y="760" on="0"/>
        <pt x="541" y="682" on="1"/>
        <pt x="608" y="648" on="0"/>
        <pt x="673" y="516" on="0"/>
        <pt x="673" y="367" on="0"/>
        <pt x="630" y="215" on="0"/>
        <pt x="545" y="76" on="0"/>
        <pt x="395" y="-12" on="0"/>
        <pt x="299" y="-12" on="1"/>
        <pt x="286" y="-12" on="0"/>
        <pt x="266" y="-10" on="1"/>
        <pt x="232" y="-104" on="1"/>
        <pt x="218" y="-103" on="0"/>
        <pt x="192" y="-94" on="1"/>
        <pt x="165" y="-86" on="0"/>
        <pt x="149" y="-76" on="1"/>
        <pt x="164" y="-31" on="0"/>
        <pt x="182" y="14" on="1"/>
        <pt x="117" y="46" on="0"/>
        <pt x="48" y="182" on="0"/>
        <pt x="48" y="386" on="0"/>
        <pt x="139" y="585" on="0"/>
        <pt x="308" y="710" on="0"/>
        <pt x="412" y="710" on="1"/>
        <pt x="434" y="710" on="0"/>
        <pt x="454" y="707" on="1"/>
        <pt x="459" y="719" on="0"/>
        <pt x="491" y="802" on="1"/>
        <pt x="517" y="800" on="0"/>
        <pt x="571" y="782" on="0"/>
      </contour>
      <contour>
        <pt x="328" y="64" on="1"/>
        <pt x="368" y="64" on="0"/>
        <pt x="429" y="145" on="0"/>
        <pt x="446" y="209" on="1"/>
        <pt x="478" y="335" on="0"/>
        <pt x="478" y="470" on="1"/>
        <pt x="478" y="485" on="0"/>
        <pt x="476" y="521" on="1"/>
        <pt x="353" y="217" on="0"/>
        <pt x="296" y="70" on="1"/>
        <pt x="310" y="64" on="0"/>
      </contour>
      <contour>
        <pt x="245" y="181" on="1"/>
        <pt x="423" y="629" on="1"/>
        <pt x="411" y="634" on="0"/>
        <pt x="398" y="634" on="1"/>
        <pt x="360" y="634" on="0"/>
        <pt x="299" y="563" on="0"/>
        <pt x="281" y="506" on="1"/>
        <pt x="244" y="390" on="0"/>
        <pt x="244" y="257" on="1"/>
        <pt x="244" y="192" on="0"/>
      </contour>
    </TTGlyph>
    <TTGlyph name="Otilde" xMin="48" yMin="-12" xMax="673" yMax="905">
      <contour>
        <pt x="645" y="581" on="0"/>
        <pt x="673" y="491" on="0"/>
        <pt x="673" y="367" on="0"/>
        <pt x="630" y="215" on="0"/>
        <pt x="545" y="76" on="0"/>
        <pt x="395" y="-12" on="0"/>
        <pt x="299" y="-12" on="1"/>
        <pt x="182" y="-12" on="0"/>
        <pt x="48" y="146" on="0"/>
        <pt x="48" y="386" on="0"/>
        <pt x="139" y="585" on="0"/>
        <pt x="308" y="710" on="0"/>
        <pt x="412" y="710" on="1"/>
        <pt x="482" y="710" on="0"/>
        <pt x="587" y="662" on="0"/>
      </contour>
      <contour>
        <pt x="281" y="78" on="1"/>
        <pt x="299" y="64" on="0"/>
        <pt x="368" y="64" on="0"/>
        <pt x="429" y="145" on="0"/>
        <pt x="446" y="209" on="1"/>
        <pt x="478" y="335" on="0"/>
        <pt x="478" y="470" on="1"/>
        <pt x="478" y="634" on="0"/>
        <pt x="398" y="634" on="1"/>
        <pt x="360" y="634" on="0"/>
        <pt x="299" y="563" on="0"/>
        <pt x="281" y="506" on="1"/>
        <pt x="244" y="390" on="0"/>
        <pt x="244" y="257" on="1"/>
        <pt x="244" y="108" on="0"/>
      </contour>
      <contour>
        <pt x="524" y="761" on="1"/>
        <pt x="502" y="761" on="0"/>
        <pt x="364" y="790" on="0"/>
        <pt x="342" y="790" on="1"/>
        <pt x="300" y="790" on="0"/>
        <pt x="274" y="753" on="1"/>
        <pt x="220" y="767" on="1"/>
        <pt x="234" y="904" on="0"/>
        <pt x="343" y="904" on="1"/>
        <pt x="366" y="904" on="0"/>
        <pt x="502" y="875" on="0"/>
        <pt x="550" y="875" on="0"/>
        <pt x="572" y="887" on="0"/>
        <pt x="585" y="905" on="1"/>
        <pt x="640" y="893" on="1"/>
        <pt x="626" y="761" on="0"/>
      </contour>
    </TTGlyph>
    <TTGlyph name="P" xMin="41" yMin="-6" xMax="624" yMax="710">
      <contour>
        <pt x="317" y="263" on="1"/>
        <pt x="289" y="263" on="0"/>
        <pt x="276" y="264" on="1"/>
        <pt x="236" y="82" on="0"/>
        <pt x="236" y="20" on="1"/>
        <pt x="180" y="-6" on="0"/>
        <pt x="89" y="-6" on="1"/>
        <pt x="64" y="-6" on="0"/>
        <pt x="41" y="-3" on="1"/>
        <pt x="41" y="60" on="0"/>
        <pt x="151" y="519" on="0"/>
        <pt x="151" y="574" on="1"/>
        <pt x="151" y="591" on="0"/>
        <pt x="128" y="635" on="0"/>
        <pt x="116" y="648" on="1"/>
        <pt x="105" y="662" on="1"/>
        <pt x="109" y="686" on="1"/>
        <pt x="147" y="693" on="0"/>
        <pt x="328" y="710" on="0"/>
        <pt x="404" y="710" on="1"/>
        <pt x="516" y="710" on="0"/>
        <pt x="624" y="618" on="0"/>
        <pt x="624" y="540" on="1"/>
        <pt x="624" y="419" on="0"/>
        <pt x="469" y="263" on="0"/>
      </contour>
      <contour>
        <pt x="315" y="349" on="1"/>
        <pt x="371" y="349" on="0"/>
        <pt x="432" y="477" on="0"/>
        <pt x="432" y="567" on="1"/>
        <pt x="432" y="640" on="0"/>
        <pt x="384" y="640" on="1"/>
        <pt x="352" y="636" on="1"/>
        <pt x="352" y="597" on="0"/>
        <pt x="296" y="349" on="1"/>
      </contour>
    </TTGlyph>
    <TTGlyph name="Q" xMin="48" yMin="-224" xMax="673" yMax="710">
      <contour>
        <pt x="515" y="-224" on="1"/>
        <pt x="473" y="-224" on="0"/>
        <pt x="298" y="-117" on="0"/>
        <pt x="270" y="-117" on="1"/>
        <pt x="208" y="-201" on="0"/>
        <pt x="173" y="-201" on="1"/>
        <pt x="155" y="-201" on="0"/>
        <pt x="98" y="-132" on="0"/>
        <pt x="98" y="-94" on="1"/>
        <pt x="98" y="-85" on="0"/>
        <pt x="129" y="-55" on="0"/>
        <pt x="197" y="-28" on="0"/>
        <pt x="286" y="-28" on="0"/>
        <pt x="486" y="-76" on="0"/>
        <pt x="539" y="-76" on="1"/>
        <pt x="551" y="-76" on="0"/>
        <pt x="558" y="-74" on="1"/>
        <pt x="577" y="-67" on="0"/>
        <pt x="606" y="-26" on="1"/>
        <pt x="663" y="-45" on="1"/>
        <pt x="633" y="-224" on="0"/>
      </contour>
      <contour>
        <pt x="645" y="581" on="0"/>
        <pt x="673" y="491" on="0"/>
        <pt x="673" y="367" on="0"/>
        <pt x="630" y="215" on="0"/>
        <pt x="545" y="76" on="0"/>
        <pt x="395" y="-12" on="0"/>
        <pt x="299" y="-12" on="1"/>
        <pt x="182" y="-12" on="0"/>
        <pt x="48" y="146" on="0"/>
        <pt x="48" y="386" on="0"/>
        <pt x="139" y="585" on="0"/>
        <pt x="308" y="710" on="0"/>
        <pt x="412" y="710" on="1"/>
        <pt x="482" y="710" on="0"/>
        <pt x="587" y="662" on="0"/>
      </contour>
      <contour>
        <pt x="281" y="78" on="1"/>
        <pt x="299" y="64" on="0"/>
        <pt x="368" y="64" on="0"/>
        <pt x="429" y="145" on="0"/>
        <pt x="446" y="209" on="1"/>
        <pt x="478" y="335" on="0"/>
        <pt x="478" y="470" on="1"/>
        <pt x="478" y="634" on="0"/>
        <pt x="398" y="634" on="1"/>
        <pt x="360" y="634" on="0"/>
        <pt x="299" y="563" on="0"/>
        <pt x="281" y="506" on="1"/>
        <pt x="244" y="390" on="0"/>
        <pt x="244" y="257" on="1"/>
        <pt x="244" y="108" on="0"/>
      </contour>
    </TTGlyph>
    <TTGlyph name="R" xMin="41" yMin="-12" xMax="672" yMax="710">
      <contour>
        <pt x="237" y="19" on="1"/>
        <pt x="178" y="-7" on="0"/>
        <pt x="93" y="-7" on="1"/>
        <pt x="64" y="-7" on="0"/>
        <pt x="41" y="-2" on="1"/>
        <pt x="41" y="64" on="0"/>
        <pt x="154" y="527" on="0"/>
        <pt x="154" y="587" on="1"/>
        <pt x="154" y="611" on="0"/>
        <pt x="118" y="651" on="1"/>
        <pt x="107" y="664" on="1"/>
        <pt x="110" y="686" on="1"/>
        <pt x="246" y="710" on="0"/>
        <pt x="412" y="710" on="1"/>
        <pt x="512" y="710" on="0"/>
        <pt x="628" y="633" on="0"/>
        <pt x="628" y="486" on="0"/>
        <pt x="548" y="365" on="0"/>
        <pt x="474" y="331" on="1"/>
        <pt x="507" y="219" on="0"/>
        <pt x="567" y="93" on="0"/>
        <pt x="586" y="93" on="1"/>
        <pt x="602" y="93" on="0"/>
        <pt x="636" y="105" on="1"/>
        <pt x="648" y="109" on="1"/>
        <pt x="672" y="55" on="1"/>
        <pt x="584" y="-12" on="0"/>
        <pt x="389" y="-12" on="0"/>
        <pt x="359" y="86" on="1"/>
        <pt x="333" y="172" on="0"/>
        <pt x="317" y="299" on="1"/>
        <pt x="282" y="299" on="1"/>
        <pt x="237" y="89" on="0"/>
      </contour>
      <contour>
        <pt x="323" y="386" on="1"/>
        <pt x="355" y="386" on="0"/>
        <pt x="402" y="426" on="0"/>
        <pt x="414" y="458" on="1"/>
        <pt x="436" y="521" on="0"/>
        <pt x="436" y="639" on="0"/>
        <pt x="383" y="639" on="1"/>
        <pt x="367" y="639" on="0"/>
        <pt x="351" y="636" on="1"/>
        <pt x="350" y="605" on="0"/>
        <pt x="302" y="388" on="1"/>
        <pt x="309" y="386" on="0"/>
      </contour>
    </TTGlyph>
    <TTGlyph name="Racute" xMin="41" yMin="-12" xMax="672" yMax="933">
      <contour>
        <pt x="237" y="19" on="1"/>
        <pt x="178" y="-7" on="0"/>
        <pt x="93" y="-7" on="1"/>
        <pt x="64" y="-7" on="0"/>
        <pt x="41" y="-2" on="1"/>
        <pt x="41" y="64" on="0"/>
        <pt x="154" y="527" on="0"/>
        <pt x="154" y="587" on="1"/>
        <pt x="154" y="611" on="0"/>
        <pt x="118" y="651" on="1"/>
        <pt x="107" y="664" on="1"/>
        <pt x="110" y="686" on="1"/>
        <pt x="246" y="710" on="0"/>
        <pt x="412" y="710" on="1"/>
        <pt x="512" y="710" on="0"/>
        <pt x="628" y="633" on="0"/>
        <pt x="628" y="486" on="0"/>
        <pt x="548" y="365" on="0"/>
        <pt x="474" y="331" on="1"/>
        <pt x="507" y="219" on="0"/>
        <pt x="567" y="93" on="0"/>
        <pt x="586" y="93" on="1"/>
        <pt x="602" y="93" on="0"/>
        <pt x="636" y="105" on="1"/>
        <pt x="648" y="109" on="1"/>
        <pt x="672" y="55" on="1"/>
        <pt x="584" y="-12" on="0"/>
        <pt x="389" y="-12" on="0"/>
        <pt x="359" y="86" on="1"/>
        <pt x="333" y="172" on="0"/>
        <pt x="317" y="299" on="1"/>
        <pt x="282" y="299" on="1"/>
        <pt x="237" y="89" on="0"/>
      </contour>
      <contour>
        <pt x="632" y="842" on="1"/>
        <pt x="632" y="810" on="0"/>
        <pt x="594" y="796" on="1"/>
        <pt x="545" y="775" on="0"/>
        <pt x="315" y="740" on="1"/>
        <pt x="296" y="794" on="1"/>
        <pt x="323" y="806" on="0"/>
        <pt x="423" y="850" on="0"/>
        <pt x="452" y="863" on="1"/>
        <pt x="535" y="900" on="0"/>
        <pt x="592" y="933" on="1"/>
        <pt x="603" y="917" on="0"/>
        <pt x="632" y="856" on="0"/>
      </contour>
      <contour>
        <pt x="323" y="386" on="1"/>
        <pt x="355" y="386" on="0"/>
        <pt x="402" y="426" on="0"/>
        <pt x="414" y="458" on="1"/>
        <pt x="436" y="521" on="0"/>
        <pt x="436" y="639" on="0"/>
        <pt x="383" y="639" on="1"/>
        <pt x="367" y="639" on="0"/>
        <pt x="351" y="636" on="1"/>
        <pt x="350" y="605" on="0"/>
        <pt x="302" y="388" on="1"/>
        <pt x="309" y="386" on="0"/>
      </contour>
    </TTGlyph>
    <TTGlyph name="Rcaron" xMin="41" yMin="-12" xMax="682" yMax="924">
      <contour>
        <pt x="237" y="19" on="1"/>
        <pt x="178" y="-7" on="0"/>
        <pt x="93" y="-7" on="1"/>
        <pt x="64" y="-7" on="0"/>
        <pt x="41" y="-2" on="1"/>
        <pt x="41" y="64" on="0"/>
        <pt x="154" y="527" on="0"/>
        <pt x="154" y="587" on="1"/>
        <pt x="154" y="611" on="0"/>
        <pt x="118" y="651" on="1"/>
        <pt x="107" y="664" on="1"/>
        <pt x="110" y="686" on="1"/>
        <pt x="246" y="710" on="0"/>
        <pt x="412" y="710" on="1"/>
        <pt x="512" y="710" on="0"/>
        <pt x="628" y="633" on="0"/>
        <pt x="628" y="486" on="0"/>
        <pt x="548" y="365" on="0"/>
        <pt x="474" y="331" on="1"/>
        <pt x="507" y="219" on="0"/>
        <pt x="567" y="93" on="0"/>
        <pt x="586" y="93" on="1"/>
        <pt x="602" y="93" on="0"/>
        <pt x="636" y="105" on="1"/>
        <pt x="648" y="109" on="1"/>
        <pt x="672" y="55" on="1"/>
        <pt x="584" y="-12" on="0"/>
        <pt x="389" y="-12" on="0"/>
        <pt x="359" y="86" on="1"/>
        <pt x="333" y="172" on="0"/>
        <pt x="317" y="299" on="1"/>
        <pt x="282" y="299" on="1"/>
        <pt x="237" y="89" on="0"/>
      </contour>
      <contour>
        <pt x="620" y="832" on="0"/>
        <pt x="446" y="744" on="0"/>
        <pt x="385" y="744" on="0"/>
        <pt x="280" y="850" on="0"/>
        <pt x="256" y="885" on="1"/>
        <pt x="295" y="922" on="1"/>
        <pt x="404" y="877" on="0"/>
        <pt x="449" y="863" on="1"/>
        <pt x="520" y="877" on="0"/>
        <pt x="653" y="924" on="1"/>
        <pt x="682" y="876" on="1"/>
      </contour>
      <contour>
        <pt x="323" y="386" on="1"/>
        <pt x="355" y="386" on="0"/>
        <pt x="402" y="426" on="0"/>
        <pt x="414" y="458" on="1"/>
        <pt x="436" y="521" on="0"/>
        <pt x="436" y="639" on="0"/>
        <pt x="383" y="639" on="1"/>
        <pt x="367" y="639" on="0"/>
        <pt x="351" y="636" on="1"/>
        <pt x="350" y="605" on="0"/>
        <pt x="302" y="388" on="1"/>
        <pt x="309" y="386" on="0"/>
      </contour>
    </TTGlyph>
    <TTGlyph name="Rcommaaccent" xMin="41" yMin="-277" xMax="672" yMax="710">
      <contour>
        <pt x="237" y="19" on="1"/>
        <pt x="178" y="-7" on="0"/>
        <pt x="93" y="-7" on="1"/>
        <pt x="64" y="-7" on="0"/>
        <pt x="41" y="-2" on="1"/>
        <pt x="41" y="64" on="0"/>
        <pt x="154" y="527" on="0"/>
        <pt x="154" y="587" on="1"/>
        <pt x="154" y="611" on="0"/>
        <pt x="118" y="651" on="1"/>
        <pt x="107" y="664" on="1"/>
        <pt x="110" y="686" on="1"/>
        <pt x="246" y="710" on="0"/>
        <pt x="412" y="710" on="1"/>
        <pt x="512" y="710" on="0"/>
        <pt x="628" y="633" on="0"/>
        <pt x="628" y="486" on="0"/>
        <pt x="548" y="365" on="0"/>
        <pt x="474" y="331" on="1"/>
        <pt x="507" y="219" on="0"/>
        <pt x="567" y="93" on="0"/>
        <pt x="586" y="93" on="1"/>
        <pt x="602" y="93" on="0"/>
        <pt x="636" y="105" on="1"/>
        <pt x="648" y="109" on="1"/>
        <pt x="672" y="55" on="1"/>
        <pt x="584" y="-12" on="0"/>
        <pt x="389" y="-12" on="0"/>
        <pt x="359" y="86" on="1"/>
        <pt x="333" y="172" on="0"/>
        <pt x="317" y="299" on="1"/>
        <pt x="282" y="299" on="1"/>
        <pt x="237" y="89" on="0"/>
      </contour>
      <contour>
        <pt x="400" y="-104" on="1"/>
        <pt x="400" y="-188" on="0"/>
        <pt x="299" y="-277" on="1"/>
        <pt x="248" y="-252" on="1"/>
        <pt x="268" y="-208" on="0"/>
        <pt x="273" y="-168" on="1"/>
        <pt x="210" y="-113" on="1"/>
        <pt x="222" y="-82" on="0"/>
        <pt x="271" y="-24" on="0"/>
        <pt x="292" y="-20" on="1"/>
        <pt x="332" y="-20" on="0"/>
        <pt x="400" y="-70" on="0"/>
      </contour>
      <contour>
        <pt x="323" y="386" on="1"/>
        <pt x="355" y="386" on="0"/>
        <pt x="402" y="426" on="0"/>
        <pt x="414" y="458" on="1"/>
        <pt x="436" y="521" on="0"/>
        <pt x="436" y="639" on="0"/>
        <pt x="383" y="639" on="1"/>
        <pt x="367" y="639" on="0"/>
        <pt x="351" y="636" on="1"/>
        <pt x="350" y="605" on="0"/>
        <pt x="302" y="388" on="1"/>
        <pt x="309" y="386" on="0"/>
      </contour>
    </TTGlyph>
    <TTGlyph name="S" xMin="14" yMin="-12" xMax="501" yMax="710">
      <contour>
        <pt x="473" y="183" on="1"/>
        <pt x="473" y="100" on="0"/>
        <pt x="314" y="-12" on="0"/>
        <pt x="209" y="-12" on="1"/>
        <pt x="127" y="-12" on="0"/>
        <pt x="14" y="58" on="0"/>
        <pt x="14" y="90" on="1"/>
        <pt x="30" y="129" on="0"/>
        <pt x="120" y="219" on="0"/>
        <pt x="158" y="221" on="1"/>
        <pt x="183" y="210" on="0"/>
        <pt x="226" y="123" on="0"/>
        <pt x="239" y="66" on="1"/>
        <pt x="293" y="68" on="0"/>
        <pt x="293" y="127" on="1"/>
        <pt x="293" y="166" on="0"/>
        <pt x="234" y="279" on="0"/>
        <pt x="164" y="377" on="0"/>
        <pt x="105" y="497" on="0"/>
        <pt x="105" y="542" on="1"/>
        <pt x="105" y="616" on="0"/>
        <pt x="241" y="710" on="0"/>
        <pt x="408" y="710" on="0"/>
        <pt x="501" y="638" on="0"/>
        <pt x="501" y="591" on="1"/>
        <pt x="501" y="552" on="0"/>
        <pt x="469" y="505" on="0"/>
        <pt x="450" y="480" on="0"/>
        <pt x="434" y="466" on="1"/>
        <pt x="404" y="440" on="0"/>
        <pt x="388" y="428" on="1"/>
        <pt x="373" y="417" on="1"/>
        <pt x="432" y="344" on="0"/>
        <pt x="462" y="247" on="1"/>
        <pt x="473" y="212" on="0"/>
      </contour>
      <contour>
        <pt x="421" y="584" on="1"/>
        <pt x="421" y="631" on="0"/>
        <pt x="361" y="631" on="1"/>
        <pt x="326" y="631" on="0"/>
        <pt x="283" y="601" on="0"/>
        <pt x="283" y="556" on="0"/>
        <pt x="320" y="492" on="0"/>
        <pt x="331" y="479" on="1"/>
        <pt x="355" y="491" on="0"/>
        <pt x="421" y="555" on="0"/>
      </contour>
    </TTGlyph>
    <TTGlyph name="T" xMin="32" yMin="-7" xMax="592" yMax="710">
      <contour>
        <pt x="135" y="-7" on="1"/>
        <pt x="112" y="-7" on="1"/>
        <pt x="112" y="76" on="0"/>
        <pt x="206" y="516" on="0"/>
        <pt x="217" y="603" on="0"/>
        <pt x="218" y="625" on="1"/>
        <pt x="124" y="623" on="0"/>
        <pt x="68" y="596" on="1"/>
        <pt x="39" y="629" on="0"/>
        <pt x="32" y="693" on="1"/>
        <pt x="81" y="710" on="0"/>
        <pt x="200" y="710" on="1"/>
        <pt x="515" y="700" on="1"/>
        <pt x="538" y="700" on="0"/>
        <pt x="588" y="702" on="1"/>
        <pt x="592" y="670" on="0"/>
        <pt x="592" y="648" on="1"/>
        <pt x="592" y="601" on="0"/>
        <pt x="533" y="601" on="1"/>
        <pt x="515" y="601" on="0"/>
        <pt x="438" y="613" on="0"/>
        <pt x="409" y="614" on="1"/>
        <pt x="406" y="582" on="0"/>
        <pt x="309" y="126" on="0"/>
        <pt x="309" y="19" on="1"/>
        <pt x="265" y="-7" on="0"/>
      </contour>
    </TTGlyph>
    <TTGlyph name="Thorn" xMin="41" yMin="-3" xMax="607" yMax="710">
      <contour>
        <pt x="54" y="-3" on="1"/>
        <pt x="41" y="-3" on="1"/>
        <pt x="41" y="46" on="0"/>
        <pt x="157" y="538" on="0"/>
        <pt x="157" y="589" on="1"/>
        <pt x="157" y="605" on="0"/>
        <pt x="136" y="647" on="0"/>
        <pt x="126" y="660" on="1"/>
        <pt x="116" y="673" on="1"/>
        <pt x="119" y="693" on="1"/>
        <pt x="175" y="710" on="0"/>
        <pt x="339" y="710" on="1"/>
        <pt x="357" y="694" on="0"/>
        <pt x="357" y="637" on="1"/>
        <pt x="357" y="629" on="0"/>
        <pt x="353" y="597" on="1"/>
        <pt x="363" y="598" on="0"/>
        <pt x="382" y="598" on="1"/>
        <pt x="607" y="598" on="0"/>
        <pt x="607" y="428" on="1"/>
        <pt x="607" y="316" on="0"/>
        <pt x="444" y="161" on="0"/>
        <pt x="290" y="161" on="1"/>
        <pt x="258" y="161" on="1"/>
        <pt x="242" y="75" on="0"/>
        <pt x="242" y="17" on="1"/>
        <pt x="196" y="-3" on="0"/>
      </contour>
      <contour>
        <pt x="412" y="477" on="0"/>
        <pt x="387" y="524" on="0"/>
        <pt x="350" y="524" on="0"/>
        <pt x="337" y="519" on="1"/>
        <pt x="276" y="255" on="0"/>
        <pt x="274" y="245" on="1"/>
        <pt x="278" y="245" on="1"/>
        <pt x="340" y="245" on="0"/>
        <pt x="412" y="354" on="0"/>
        <pt x="412" y="440" on="1"/>
      </contour>
    </TTGlyph>
    <TTGlyph name="U" xMin="65" yMin="-12" xMax="696" yMax="710">
      <contour>
        <pt x="306" y="120" on="1"/>
        <pt x="347" y="120" on="0"/>
        <pt x="410" y="156" on="1"/>
        <pt x="412" y="170" on="0"/>
        <pt x="500" y="553" on="0"/>
        <pt x="500" y="634" on="1"/>
        <pt x="500" y="664" on="0"/>
        <pt x="499" y="675" on="1"/>
        <pt x="599" y="710" on="0"/>
        <pt x="690" y="710" on="1"/>
        <pt x="696" y="703" on="0"/>
        <pt x="696" y="676" on="1"/>
        <pt x="696" y="616" on="0"/>
        <pt x="597" y="176" on="0"/>
        <pt x="597" y="99" on="0"/>
        <pt x="611" y="99" on="1"/>
        <pt x="620" y="99" on="0"/>
        <pt x="665" y="112" on="1"/>
        <pt x="686" y="56" on="1"/>
        <pt x="592" y="-12" on="0"/>
        <pt x="505" y="-12" on="1"/>
        <pt x="464" y="-12" on="0"/>
        <pt x="412" y="34" on="0"/>
        <pt x="406" y="73" on="1"/>
        <pt x="283" y="-12" on="0"/>
        <pt x="195" y="-12" on="1"/>
        <pt x="138" y="-12" on="0"/>
        <pt x="65" y="51" on="0"/>
        <pt x="65" y="160" on="0"/>
        <pt x="151" y="500" on="0"/>
        <pt x="151" y="588" on="1"/>
        <pt x="151" y="605" on="0"/>
        <pt x="130" y="645" on="0"/>
        <pt x="120" y="657" on="1"/>
        <pt x="109" y="669" on="1"/>
        <pt x="112" y="689" on="1"/>
        <pt x="175" y="710" on="0"/>
        <pt x="329" y="710" on="1"/>
        <pt x="348" y="684" on="0"/>
        <pt x="348" y="560" on="0"/>
        <pt x="262" y="206" on="0"/>
        <pt x="262" y="170" on="1"/>
        <pt x="262" y="120" on="0"/>
      </contour>
    </TTGlyph>
    <TTGlyph name="Uacute" xMin="65" yMin="-12" xMax="696" yMax="933">
      <contour>
        <pt x="306" y="120" on="1"/>
        <pt x="347" y="120" on="0"/>
        <pt x="410" y="156" on="1"/>
        <pt x="412" y="170" on="0"/>
        <pt x="500" y="553" on="0"/>
        <pt x="500" y="634" on="1"/>
        <pt x="500" y="664" on="0"/>
        <pt x="499" y="675" on="1"/>
        <pt x="599" y="710" on="0"/>
        <pt x="690" y="710" on="1"/>
        <pt x="696" y="703" on="0"/>
        <pt x="696" y="676" on="1"/>
        <pt x="696" y="616" on="0"/>
        <pt x="597" y="176" on="0"/>
        <pt x="597" y="99" on="0"/>
        <pt x="611" y="99" on="1"/>
        <pt x="620" y="99" on="0"/>
        <pt x="665" y="112" on="1"/>
        <pt x="686" y="56" on="1"/>
        <pt x="592" y="-12" on="0"/>
        <pt x="505" y="-12" on="1"/>
        <pt x="464" y="-12" on="0"/>
        <pt x="412" y="34" on="0"/>
        <pt x="406" y="73" on="1"/>
        <pt x="283" y="-12" on="0"/>
        <pt x="195" y="-12" on="1"/>
        <pt x="138" y="-12" on="0"/>
        <pt x="65" y="51" on="0"/>
        <pt x="65" y="160" on="0"/>
        <pt x="151" y="500" on="0"/>
        <pt x="151" y="588" on="1"/>
        <pt x="151" y="605" on="0"/>
        <pt x="130" y="645" on="0"/>
        <pt x="120" y="657" on="1"/>
        <pt x="109" y="669" on="1"/>
        <pt x="112" y="689" on="1"/>
        <pt x="175" y="710" on="0"/>
        <pt x="329" y="710" on="1"/>
        <pt x="348" y="684" on="0"/>
        <pt x="348" y="560" on="0"/>
        <pt x="262" y="206" on="0"/>
        <pt x="262" y="170" on="1"/>
        <pt x="262" y="120" on="0"/>
      </contour>
      <contour>
        <pt x="665" y="842" on="1"/>
        <pt x="665" y="810" on="0"/>
        <pt x="627" y="796" on="1"/>
        <pt x="578" y="775" on="0"/>
        <pt x="348" y="740" on="1"/>
        <pt x="329" y="794" on="1"/>
        <pt x="356" y="806" on="0"/>
        <pt x="456" y="850" on="0"/>
        <pt x="485" y="863" on="1"/>
        <pt x="568" y="900" on="0"/>
        <pt x="625" y="933" on="1"/>
        <pt x="636" y="917" on="0"/>
        <pt x="665" y="856" on="0"/>
      </contour>
    </TTGlyph>
    <TTGlyph name="Ucircumflex" xMin="65" yMin="-12" xMax="696" yMax="919">
      <contour>
        <pt x="306" y="120" on="1"/>
        <pt x="347" y="120" on="0"/>
        <pt x="410" y="156" on="1"/>
        <pt x="412" y="170" on="0"/>
        <pt x="500" y="553" on="0"/>
        <pt x="500" y="634" on="1"/>
        <pt x="500" y="664" on="0"/>
        <pt x="499" y="675" on="1"/>
        <pt x="599" y="710" on="0"/>
        <pt x="690" y="710" on="1"/>
        <pt x="696" y="703" on="0"/>
        <pt x="696" y="676" on="1"/>
        <pt x="696" y="616" on="0"/>
        <pt x="597" y="176" on="0"/>
        <pt x="597" y="99" on="0"/>
        <pt x="611" y="99" on="1"/>
        <pt x="620" y="99" on="0"/>
        <pt x="665" y="112" on="1"/>
        <pt x="686" y="56" on="1"/>
        <pt x="592" y="-12" on="0"/>
        <pt x="505" y="-12" on="1"/>
        <pt x="464" y="-12" on="0"/>
        <pt x="412" y="34" on="0"/>
        <pt x="406" y="73" on="1"/>
        <pt x="283" y="-12" on="0"/>
        <pt x="195" y="-12" on="1"/>
        <pt x="138" y="-12" on="0"/>
        <pt x="65" y="51" on="0"/>
        <pt x="65" y="160" on="0"/>
        <pt x="151" y="500" on="0"/>
        <pt x="151" y="588" on="1"/>
        <pt x="151" y="605" on="0"/>
        <pt x="130" y="645" on="0"/>
        <pt x="120" y="657" on="1"/>
        <pt x="109" y="669" on="1"/>
        <pt x="112" y="689" on="1"/>
        <pt x="175" y="710" on="0"/>
        <pt x="329" y="710" on="1"/>
        <pt x="348" y="684" on="0"/>
        <pt x="348" y="560" on="0"/>
        <pt x="262" y="206" on="0"/>
        <pt x="262" y="170" on="1"/>
        <pt x="262" y="120" on="0"/>
      </contour>
      <contour>
        <pt x="302" y="831" on="0"/>
        <pt x="476" y="919" on="0"/>
        <pt x="537" y="919" on="0"/>
        <pt x="642" y="813" on="0"/>
        <pt x="666" y="778" on="1"/>
        <pt x="627" y="741" on="1"/>
        <pt x="518" y="786" on="0"/>
        <pt x="473" y="800" on="1"/>
        <pt x="402" y="786" on="0"/>
        <pt x="269" y="739" on="1"/>
        <pt x="240" y="787" on="1"/>
      </contour>
    </TTGlyph>
    <TTGlyph name="Udieresis" xMin="65" yMin="-12" xMax="696" yMax="903">
      <contour>
        <pt x="306" y="120" on="1"/>
        <pt x="347" y="120" on="0"/>
        <pt x="410" y="156" on="1"/>
        <pt x="412" y="170" on="0"/>
        <pt x="500" y="553" on="0"/>
        <pt x="500" y="634" on="1"/>
        <pt x="500" y="664" on="0"/>
        <pt x="499" y="675" on="1"/>
        <pt x="599" y="710" on="0"/>
        <pt x="690" y="710" on="1"/>
        <pt x="696" y="703" on="0"/>
        <pt x="696" y="676" on="1"/>
        <pt x="696" y="616" on="0"/>
        <pt x="597" y="176" on="0"/>
        <pt x="597" y="99" on="0"/>
        <pt x="611" y="99" on="1"/>
        <pt x="620" y="99" on="0"/>
        <pt x="665" y="112" on="1"/>
        <pt x="686" y="56" on="1"/>
        <pt x="592" y="-12" on="0"/>
        <pt x="505" y="-12" on="1"/>
        <pt x="464" y="-12" on="0"/>
        <pt x="412" y="34" on="0"/>
        <pt x="406" y="73" on="1"/>
        <pt x="283" y="-12" on="0"/>
        <pt x="195" y="-12" on="1"/>
        <pt x="138" y="-12" on="0"/>
        <pt x="65" y="51" on="0"/>
        <pt x="65" y="160" on="0"/>
        <pt x="151" y="500" on="0"/>
        <pt x="151" y="588" on="1"/>
        <pt x="151" y="605" on="0"/>
        <pt x="130" y="645" on="0"/>
        <pt x="120" y="657" on="1"/>
        <pt x="109" y="669" on="1"/>
        <pt x="112" y="689" on="1"/>
        <pt x="175" y="710" on="0"/>
        <pt x="329" y="710" on="1"/>
        <pt x="348" y="684" on="0"/>
        <pt x="348" y="560" on="0"/>
        <pt x="262" y="206" on="0"/>
        <pt x="262" y="170" on="1"/>
        <pt x="262" y="120" on="0"/>
      </contour>
      <contour>
        <pt x="533" y="757" on="0"/>
        <pt x="491" y="797" on="0"/>
        <pt x="491" y="860" on="0"/>
        <pt x="543" y="903" on="0"/>
        <pt x="617" y="903" on="0"/>
        <pt x="658" y="868" on="0"/>
        <pt x="658" y="804" on="0"/>
        <pt x="607" y="757" on="0"/>
      </contour>
      <contour>
        <pt x="306" y="757" on="0"/>
        <pt x="264" y="797" on="0"/>
        <pt x="264" y="860" on="0"/>
        <pt x="316" y="903" on="0"/>
        <pt x="390" y="903" on="0"/>
        <pt x="431" y="868" on="0"/>
        <pt x="431" y="804" on="0"/>
        <pt x="380" y="757" on="0"/>
      </contour>
    </TTGlyph>
    <TTGlyph name="Ugrave" xMin="65" yMin="-12" xMax="696" yMax="905">
      <contour>
        <pt x="306" y="120" on="1"/>
        <pt x="347" y="120" on="0"/>
        <pt x="410" y="156" on="1"/>
        <pt x="412" y="170" on="0"/>
        <pt x="500" y="553" on="0"/>
        <pt x="500" y="634" on="1"/>
        <pt x="500" y="664" on="0"/>
        <pt x="499" y="675" on="1"/>
        <pt x="599" y="710" on="0"/>
        <pt x="690" y="710" on="1"/>
        <pt x="696" y="703" on="0"/>
        <pt x="696" y="676" on="1"/>
        <pt x="696" y="616" on="0"/>
        <pt x="597" y="176" on="0"/>
        <pt x="597" y="99" on="0"/>
        <pt x="611" y="99" on="1"/>
        <pt x="620" y="99" on="0"/>
        <pt x="665" y="112" on="1"/>
        <pt x="686" y="56" on="1"/>
        <pt x="592" y="-12" on="0"/>
        <pt x="505" y="-12" on="1"/>
        <pt x="464" y="-12" on="0"/>
        <pt x="412" y="34" on="0"/>
        <pt x="406" y="73" on="1"/>
        <pt x="283" y="-12" on="0"/>
        <pt x="195" y="-12" on="1"/>
        <pt x="138" y="-12" on="0"/>
        <pt x="65" y="51" on="0"/>
        <pt x="65" y="160" on="0"/>
        <pt x="151" y="500" on="0"/>
        <pt x="151" y="588" on="1"/>
        <pt x="151" y="605" on="0"/>
        <pt x="130" y="645" on="0"/>
        <pt x="120" y="657" on="1"/>
        <pt x="109" y="669" on="1"/>
        <pt x="112" y="689" on="1"/>
        <pt x="175" y="710" on="0"/>
        <pt x="329" y="710" on="1"/>
        <pt x="348" y="684" on="0"/>
        <pt x="348" y="560" on="0"/>
        <pt x="262" y="206" on="0"/>
        <pt x="262" y="170" on="1"/>
        <pt x="262" y="120" on="0"/>
      </contour>
      <contour>
        <pt x="290" y="905" on="1"/>
        <pt x="321" y="905" on="0"/>
        <pt x="483" y="834" on="0"/>
        <pt x="566" y="788" on="1"/>
        <pt x="544" y="735" on="1"/>
        <pt x="447" y="758" on="0"/>
        <pt x="219" y="802" on="1"/>
        <pt x="250" y="905" on="0"/>
      </contour>
    </TTGlyph>
    <TTGlyph name="V" xMin="74" yMin="-12" xMax="645" yMax="709">
      <contour>
        <pt x="95" y="128" on="1"/>
        <pt x="95" y="168" on="0"/>
        <pt x="130" y="416" on="0"/>
        <pt x="130" y="552" on="0"/>
        <pt x="124" y="576" on="1"/>
        <pt x="114" y="610" on="0"/>
        <pt x="84" y="654" on="1"/>
        <pt x="74" y="667" on="1"/>
        <pt x="78" y="687" on="1"/>
        <pt x="174" y="707" on="0"/>
        <pt x="322" y="707" on="1"/>
        <pt x="339" y="673" on="0"/>
        <pt x="339" y="624" on="1"/>
        <pt x="339" y="528" on="0"/>
        <pt x="289" y="216" on="0"/>
        <pt x="289" y="189" on="1"/>
        <pt x="289" y="132" on="0"/>
        <pt x="315" y="132" on="1"/>
        <pt x="345" y="132" on="0"/>
        <pt x="437" y="235" on="0"/>
        <pt x="512" y="392" on="0"/>
        <pt x="517" y="458" on="1"/>
        <pt x="410" y="530" on="1"/>
        <pt x="418" y="588" on="0"/>
        <pt x="460" y="675" on="0"/>
        <pt x="498" y="709" on="0"/>
        <pt x="509" y="709" on="1"/>
        <pt x="573" y="709" on="0"/>
        <pt x="645" y="634" on="0"/>
        <pt x="645" y="584" on="1"/>
        <pt x="645" y="509" on="0"/>
        <pt x="568" y="303" on="0"/>
        <pt x="450" y="118" on="0"/>
        <pt x="292" y="-12" on="0"/>
        <pt x="161" y="-12" on="0"/>
        <pt x="95" y="66" on="0"/>
      </contour>
    </TTGlyph>
    <TTGlyph name="W" xMin="57" yMin="-12" xMax="962" yMax="710">
      <contour>
        <pt x="179" y="-12" on="0"/>
        <pt x="112" y="69" on="0"/>
        <pt x="112" y="193" on="0"/>
        <pt x="128" y="389" on="0"/>
        <pt x="128" y="555" on="0"/>
        <pt x="112" y="594" on="1"/>
        <pt x="105" y="609" on="0"/>
        <pt x="70" y="651" on="1"/>
        <pt x="57" y="666" on="1"/>
        <pt x="61" y="686" on="1"/>
        <pt x="149" y="709" on="0"/>
        <pt x="301" y="709" on="1"/>
        <pt x="326" y="680" on="0"/>
        <pt x="326" y="510" on="0"/>
        <pt x="302" y="273" on="0"/>
        <pt x="302" y="165" on="0"/>
        <pt x="318" y="131" on="0"/>
        <pt x="354" y="131" on="0"/>
        <pt x="412" y="170" on="0"/>
        <pt x="429" y="192" on="1"/>
        <pt x="429" y="198" on="0"/>
        <pt x="458" y="445" on="0"/>
        <pt x="458" y="607" on="0"/>
        <pt x="439" y="669" on="1"/>
        <pt x="526" y="709" on="0"/>
        <pt x="648" y="710" on="1"/>
        <pt x="665" y="674" on="0"/>
        <pt x="665" y="526" on="0"/>
        <pt x="614" y="216" on="0"/>
        <pt x="614" y="188" on="1"/>
        <pt x="614" y="132" on="0"/>
        <pt x="671" y="132" on="0"/>
        <pt x="760" y="232" on="0"/>
        <pt x="833" y="389" on="0"/>
        <pt x="837" y="458" on="1"/>
        <pt x="724" y="534" on="1"/>
        <pt x="733" y="624" on="0"/>
        <pt x="788" y="686" on="1"/>
        <pt x="800" y="699" on="0"/>
        <pt x="816" y="709" on="1"/>
        <pt x="888" y="709" on="0"/>
        <pt x="962" y="633" on="0"/>
        <pt x="962" y="587" on="1"/>
        <pt x="962" y="505" on="0"/>
        <pt x="888" y="296" on="0"/>
        <pt x="773" y="114" on="0"/>
        <pt x="616" y="-12" on="0"/>
        <pt x="541" y="-12" on="1"/>
        <pt x="501" y="-12" on="0"/>
        <pt x="439" y="40" on="0"/>
        <pt x="428" y="93" on="1"/>
        <pt x="328" y="-12" on="0"/>
        <pt x="236" y="-12" on="1"/>
      </contour>
    </TTGlyph>
    <TTGlyph name="X" xMin="-8" yMin="-12" xMax="663" yMax="709">
      <contour>
        <pt x="534" y="681" on="1"/>
        <pt x="552" y="709" on="0"/>
        <pt x="610" y="709" on="0"/>
        <pt x="663" y="664" on="1"/>
        <pt x="565" y="538" on="0"/>
        <pt x="422" y="382" on="1"/>
        <pt x="498" y="155" on="0"/>
        <pt x="528" y="116" on="1"/>
        <pt x="541" y="99" on="0"/>
        <pt x="552" y="99" on="1"/>
        <pt x="573" y="99" on="0"/>
        <pt x="602" y="110" on="1"/>
        <pt x="611" y="113" on="1"/>
        <pt x="634" y="59" on="1"/>
        <pt x="623" y="51" on="0"/>
        <pt x="587" y="27" on="0"/>
        <pt x="492" y="-12" on="0"/>
        <pt x="400" y="-12" on="0"/>
        <pt x="337" y="38" on="0"/>
        <pt x="299" y="152" on="0"/>
        <pt x="271" y="242" on="1"/>
        <pt x="192" y="139" on="0"/>
        <pt x="116" y="6" on="1"/>
        <pt x="101" y="-12" on="0"/>
        <pt x="82" y="-12" on="1"/>
        <pt x="50" y="-12" on="0"/>
        <pt x="-8" y="33" on="1"/>
        <pt x="42" y="121" on="0"/>
        <pt x="240" y="335" on="1"/>
        <pt x="184" y="506" on="0"/>
        <pt x="141" y="584" on="1"/>
        <pt x="123" y="617" on="0"/>
        <pt x="76" y="654" on="1"/>
        <pt x="79" y="676" on="1"/>
        <pt x="180" y="703" on="0"/>
        <pt x="288" y="707" on="1"/>
        <pt x="322" y="689" on="0"/>
        <pt x="339" y="640" on="1"/>
        <pt x="391" y="476" on="1"/>
        <pt x="459" y="563" on="0"/>
      </contour>
    </TTGlyph>
    <TTGlyph name="Y" xMin="65" yMin="-224" xMax="685" yMax="710">
      <contour>
        <pt x="337" y="-206" on="0"/>
        <pt x="270" y="-224" on="0"/>
        <pt x="189" y="-224" on="0"/>
        <pt x="122" y="-170" on="0"/>
        <pt x="122" y="-92" on="0"/>
        <pt x="161" y="-37" on="0"/>
        <pt x="198" y="-18" on="1"/>
        <pt x="263" y="16" on="0"/>
        <pt x="362" y="37" on="1"/>
        <pt x="369" y="53" on="0"/>
        <pt x="385" y="110" on="1"/>
        <pt x="345" y="89" on="0"/>
        <pt x="224" y="53" on="0"/>
        <pt x="130" y="53" on="0"/>
        <pt x="65" y="116" on="0"/>
        <pt x="65" y="227" on="0"/>
        <pt x="138" y="520" on="0"/>
        <pt x="138" y="583" on="1"/>
        <pt x="138" y="602" on="0"/>
        <pt x="118" y="645" on="0"/>
        <pt x="108" y="658" on="1"/>
        <pt x="99" y="670" on="1"/>
        <pt x="102" y="690" on="1"/>
        <pt x="164" y="710" on="0"/>
        <pt x="316" y="710" on="1"/>
        <pt x="335" y="677" on="0"/>
        <pt x="335" y="566" on="0"/>
        <pt x="259" y="252" on="0"/>
        <pt x="259" y="223" on="1"/>
        <pt x="259" y="173" on="0"/>
        <pt x="294" y="173" on="1"/>
        <pt x="342" y="173" on="0"/>
        <pt x="409" y="209" on="1"/>
        <pt x="442" y="349" on="0"/>
        <pt x="488" y="619" on="0"/>
        <pt x="488" y="680" on="1"/>
        <pt x="520" y="693" on="0"/>
        <pt x="628" y="709" on="0"/>
        <pt x="663" y="709" on="1"/>
        <pt x="685" y="709" on="1"/>
        <pt x="685" y="632" on="0"/>
        <pt x="644" y="438" on="1"/>
        <pt x="629" y="371" on="0"/>
        <pt x="572" y="108" on="0"/>
        <pt x="499" y="-57" on="0"/>
        <pt x="424" y="-148" on="0"/>
      </contour>
      <contour>
        <pt x="196" y="-113" on="1"/>
        <pt x="196" y="-135" on="0"/>
        <pt x="254" y="-135" on="0"/>
        <pt x="324" y="-68" on="0"/>
        <pt x="339" y="-33" on="1"/>
        <pt x="281" y="-42" on="0"/>
        <pt x="196" y="-87" on="0"/>
      </contour>
    </TTGlyph>
    <TTGlyph name="Yacute" xMin="65" yMin="-224" xMax="685" yMax="933">
      <contour>
        <pt x="665" y="842" on="1"/>
        <pt x="665" y="810" on="0"/>
        <pt x="627" y="796" on="1"/>
        <pt x="578" y="775" on="0"/>
        <pt x="348" y="740" on="1"/>
        <pt x="329" y="794" on="1"/>
        <pt x="356" y="806" on="0"/>
        <pt x="456" y="850" on="0"/>
        <pt x="485" y="863" on="1"/>
        <pt x="568" y="900" on="0"/>
        <pt x="625" y="933" on="1"/>
        <pt x="636" y="917" on="0"/>
        <pt x="665" y="856" on="0"/>
      </contour>
      <contour>
        <pt x="337" y="-206" on="0"/>
        <pt x="270" y="-224" on="0"/>
        <pt x="189" y="-224" on="0"/>
        <pt x="122" y="-170" on="0"/>
        <pt x="122" y="-92" on="0"/>
        <pt x="161" y="-37" on="0"/>
        <pt x="198" y="-18" on="1"/>
        <pt x="263" y="16" on="0"/>
        <pt x="362" y="37" on="1"/>
        <pt x="369" y="53" on="0"/>
        <pt x="385" y="110" on="1"/>
        <pt x="345" y="89" on="0"/>
        <pt x="224" y="53" on="0"/>
        <pt x="130" y="53" on="0"/>
        <pt x="65" y="116" on="0"/>
        <pt x="65" y="227" on="0"/>
        <pt x="138" y="520" on="0"/>
        <pt x="138" y="583" on="1"/>
        <pt x="138" y="602" on="0"/>
        <pt x="118" y="645" on="0"/>
        <pt x="108" y="658" on="1"/>
        <pt x="99" y="670" on="1"/>
        <pt x="102" y="690" on="1"/>
        <pt x="164" y="710" on="0"/>
        <pt x="316" y="710" on="1"/>
        <pt x="335" y="677" on="0"/>
        <pt x="335" y="566" on="0"/>
        <pt x="259" y="252" on="0"/>
        <pt x="259" y="223" on="1"/>
        <pt x="259" y="173" on="0"/>
        <pt x="294" y="173" on="1"/>
        <pt x="342" y="173" on="0"/>
        <pt x="409" y="209" on="1"/>
        <pt x="442" y="349" on="0"/>
        <pt x="488" y="619" on="0"/>
        <pt x="488" y="680" on="1"/>
        <pt x="520" y="693" on="0"/>
        <pt x="628" y="709" on="0"/>
        <pt x="663" y="709" on="1"/>
        <pt x="685" y="709" on="1"/>
        <pt x="685" y="632" on="0"/>
        <pt x="644" y="438" on="1"/>
        <pt x="629" y="371" on="0"/>
        <pt x="572" y="108" on="0"/>
        <pt x="499" y="-57" on="0"/>
        <pt x="424" y="-148" on="0"/>
      </contour>
      <contour>
        <pt x="196" y="-113" on="1"/>
        <pt x="196" y="-135" on="0"/>
        <pt x="254" y="-135" on="0"/>
        <pt x="324" y="-68" on="0"/>
        <pt x="339" y="-33" on="1"/>
        <pt x="281" y="-42" on="0"/>
        <pt x="196" y="-87" on="0"/>
      </contour>
    </TTGlyph>
    <TTGlyph name="Z" xMin="2" yMin="-25" xMax="596" yMax="711">
      <contour>
        <pt x="532" y="11" on="0"/>
        <pt x="477" y="-25" on="0"/>
        <pt x="392" y="-25" on="0"/>
        <pt x="195" y="58" on="0"/>
        <pt x="147" y="58" on="1"/>
        <pt x="138" y="50" on="0"/>
        <pt x="124" y="32" on="1"/>
        <pt x="93" y="-12" on="0"/>
        <pt x="61" y="-12" on="0"/>
        <pt x="17" y="21" on="0"/>
        <pt x="2" y="41" on="1"/>
        <pt x="40" y="116" on="0"/>
        <pt x="170" y="267" on="0"/>
        <pt x="324" y="442" on="0"/>
        <pt x="380" y="530" on="1"/>
        <pt x="291" y="537" on="0"/>
        <pt x="236" y="537" on="1"/>
        <pt x="154" y="537" on="0"/>
        <pt x="112" y="512" on="1"/>
        <pt x="98" y="504" on="1"/>
        <pt x="90" y="521" on="0"/>
        <pt x="66" y="608" on="0"/>
        <pt x="66" y="666" on="0"/>
        <pt x="71" y="684" on="1"/>
        <pt x="132" y="711" on="0"/>
        <pt x="255" y="711" on="0"/>
        <pt x="434" y="687" on="0"/>
        <pt x="521" y="687" on="0"/>
        <pt x="573" y="698" on="1"/>
        <pt x="596" y="647" on="1"/>
        <pt x="532" y="545" on="0"/>
        <pt x="291" y="274" on="0"/>
        <pt x="241" y="204" on="1"/>
        <pt x="280" y="201" on="0"/>
        <pt x="446" y="155" on="0"/>
        <pt x="470" y="155" on="1"/>
        <pt x="505" y="155" on="0"/>
        <pt x="536" y="201" on="1"/>
        <pt x="587" y="181" on="1"/>
        <pt x="571" y="98" on="0"/>
      </contour>
    </TTGlyph>
    <TTGlyph name="a" xMin="29" yMin="-12" xMax="546" yMax="443">
      <contour>
        <pt x="497" y="340" on="0"/>
        <pt x="467" y="161" on="0"/>
        <pt x="467" y="90" on="0"/>
        <pt x="478" y="90" on="1"/>
        <pt x="528" y="104" on="1"/>
        <pt x="546" y="54" on="1"/>
        <pt x="514" y="29" on="0"/>
        <pt x="415" y="-12" on="0"/>
        <pt x="377" y="-12" on="1"/>
        <pt x="312" y="-12" on="0"/>
        <pt x="295" y="44" on="1"/>
        <pt x="216" y="-12" on="0"/>
        <pt x="95" y="-12" on="0"/>
        <pt x="29" y="76" on="0"/>
        <pt x="29" y="158" on="1"/>
        <pt x="29" y="271" on="0"/>
        <pt x="145" y="443" on="0"/>
        <pt x="240" y="443" on="1"/>
        <pt x="292" y="443" on="0"/>
        <pt x="346" y="414" on="1"/>
        <pt x="354" y="432" on="0"/>
        <pt x="359" y="440" on="1"/>
        <pt x="431" y="440" on="0"/>
        <pt x="518" y="405" on="1"/>
      </contour>
      <contour>
        <pt x="217" y="120" on="0"/>
        <pt x="231" y="94" on="0"/>
        <pt x="269" y="94" on="0"/>
        <pt x="287" y="109" on="1"/>
        <pt x="291" y="225" on="0"/>
        <pt x="325" y="352" on="1"/>
        <pt x="310" y="361" on="0"/>
        <pt x="271" y="361" on="0"/>
        <pt x="240" y="317" on="0"/>
        <pt x="232" y="284" on="1"/>
        <pt x="217" y="221" on="0"/>
      </contour>
    </TTGlyph>
    <TTGlyph name="aacute" xMin="29" yMin="-12" xMax="546" yMax="707">
      <contour>
        <pt x="516" y="614" on="1"/>
        <pt x="516" y="579" on="0"/>
        <pt x="479" y="563" on="1"/>
        <pt x="423" y="537" on="0"/>
        <pt x="219" y="501" on="1"/>
        <pt x="202" y="551" on="1"/>
        <pt x="325" y="611" on="0"/>
        <pt x="476" y="707" on="1"/>
        <pt x="487" y="692" on="0"/>
        <pt x="516" y="628" on="0"/>
      </contour>
      <contour>
        <pt x="497" y="340" on="0"/>
        <pt x="467" y="161" on="0"/>
        <pt x="467" y="90" on="0"/>
        <pt x="478" y="90" on="1"/>
        <pt x="528" y="104" on="1"/>
        <pt x="546" y="54" on="1"/>
        <pt x="514" y="29" on="0"/>
        <pt x="415" y="-12" on="0"/>
        <pt x="377" y="-12" on="1"/>
        <pt x="312" y="-12" on="0"/>
        <pt x="295" y="44" on="1"/>
        <pt x="216" y="-12" on="0"/>
        <pt x="95" y="-12" on="0"/>
        <pt x="29" y="76" on="0"/>
        <pt x="29" y="158" on="1"/>
        <pt x="29" y="271" on="0"/>
        <pt x="145" y="443" on="0"/>
        <pt x="240" y="443" on="1"/>
        <pt x="292" y="443" on="0"/>
        <pt x="346" y="414" on="1"/>
        <pt x="354" y="432" on="0"/>
        <pt x="359" y="440" on="1"/>
        <pt x="431" y="440" on="0"/>
        <pt x="518" y="405" on="1"/>
      </contour>
      <contour>
        <pt x="217" y="120" on="0"/>
        <pt x="231" y="94" on="0"/>
        <pt x="269" y="94" on="0"/>
        <pt x="287" y="109" on="1"/>
        <pt x="291" y="225" on="0"/>
        <pt x="325" y="352" on="1"/>
        <pt x="310" y="361" on="0"/>
        <pt x="271" y="361" on="0"/>
        <pt x="240" y="317" on="0"/>
        <pt x="232" y="284" on="1"/>
        <pt x="217" y="221" on="0"/>
      </contour>
    </TTGlyph>
    <TTGlyph name="acircumflex" xMin="29" yMin="-12" xMax="546" yMax="704">
      <contour>
        <pt x="201" y="601" on="0"/>
        <pt x="366" y="704" on="0"/>
        <pt x="433" y="704" on="0"/>
        <pt x="523" y="584" on="0"/>
        <pt x="545" y="539" on="1"/>
        <pt x="503" y="503" on="1"/>
        <pt x="413" y="562" on="0"/>
        <pt x="364" y="583" on="1"/>
        <pt x="286" y="560" on="0"/>
        <pt x="174" y="501" on="1"/>
        <pt x="142" y="548" on="1"/>
      </contour>
      <contour>
        <pt x="497" y="340" on="0"/>
        <pt x="467" y="161" on="0"/>
        <pt x="467" y="90" on="0"/>
        <pt x="478" y="90" on="1"/>
        <pt x="528" y="104" on="1"/>
        <pt x="546" y="54" on="1"/>
        <pt x="514" y="29" on="0"/>
        <pt x="415" y="-12" on="0"/>
        <pt x="377" y="-12" on="1"/>
        <pt x="312" y="-12" on="0"/>
        <pt x="295" y="44" on="1"/>
        <pt x="216" y="-12" on="0"/>
        <pt x="95" y="-12" on="0"/>
        <pt x="29" y="76" on="0"/>
        <pt x="29" y="158" on="1"/>
        <pt x="29" y="271" on="0"/>
        <pt x="145" y="443" on="0"/>
        <pt x="240" y="443" on="1"/>
        <pt x="292" y="443" on="0"/>
        <pt x="346" y="414" on="1"/>
        <pt x="354" y="432" on="0"/>
        <pt x="359" y="440" on="1"/>
        <pt x="431" y="440" on="0"/>
        <pt x="518" y="405" on="1"/>
      </contour>
      <contour>
        <pt x="217" y="120" on="0"/>
        <pt x="231" y="94" on="0"/>
        <pt x="269" y="94" on="0"/>
        <pt x="287" y="109" on="1"/>
        <pt x="291" y="225" on="0"/>
        <pt x="325" y="352" on="1"/>
        <pt x="310" y="361" on="0"/>
        <pt x="271" y="361" on="0"/>
        <pt x="240" y="317" on="0"/>
        <pt x="232" y="284" on="1"/>
        <pt x="217" y="221" on="0"/>
      </contour>
    </TTGlyph>
    <TTGlyph name="acute" xMin="145" yMin="501" xMax="459" yMax="707">
      <contour>
        <pt x="459" y="614" on="1"/>
        <pt x="459" y="579" on="0"/>
        <pt x="422" y="563" on="1"/>
        <pt x="366" y="537" on="0"/>
        <pt x="162" y="501" on="1"/>
        <pt x="145" y="551" on="1"/>
        <pt x="268" y="611" on="0"/>
        <pt x="419" y="707" on="1"/>
        <pt x="430" y="692" on="0"/>
        <pt x="459" y="628" on="0"/>
      </contour>
    </TTGlyph>
    <TTGlyph name="acute.cap" xMin="121" yMin="740" xMax="457" yMax="933">
      <contour>
        <pt x="457" y="842" on="1"/>
        <pt x="457" y="810" on="0"/>
        <pt x="419" y="796" on="1"/>
        <pt x="370" y="775" on="0"/>
        <pt x="140" y="740" on="1"/>
        <pt x="121" y="794" on="1"/>
        <pt x="148" y="806" on="0"/>
        <pt x="248" y="850" on="0"/>
        <pt x="277" y="863" on="1"/>
        <pt x="360" y="900" on="0"/>
        <pt x="417" y="933" on="1"/>
        <pt x="428" y="917" on="0"/>
        <pt x="457" y="856" on="0"/>
      </contour>
    </TTGlyph>
    <TTGlyph name="adieresis" xMin="29" yMin="-12" xMax="546" yMax="676">
      <contour>
        <pt x="187" y="530" on="0"/>
        <pt x="145" y="570" on="0"/>
        <pt x="145" y="633" on="0"/>
        <pt x="197" y="676" on="0"/>
        <pt x="271" y="676" on="0"/>
        <pt x="312" y="641" on="0"/>
        <pt x="312" y="577" on="0"/>
        <pt x="261" y="530" on="0"/>
      </contour>
      <contour>
        <pt x="398" y="530" on="0"/>
        <pt x="356" y="570" on="0"/>
        <pt x="356" y="633" on="0"/>
        <pt x="408" y="676" on="0"/>
        <pt x="482" y="676" on="0"/>
        <pt x="523" y="641" on="0"/>
        <pt x="523" y="577" on="0"/>
        <pt x="472" y="530" on="0"/>
      </contour>
      <contour>
        <pt x="497" y="340" on="0"/>
        <pt x="467" y="161" on="0"/>
        <pt x="467" y="90" on="0"/>
        <pt x="478" y="90" on="1"/>
        <pt x="528" y="104" on="1"/>
        <pt x="546" y="54" on="1"/>
        <pt x="514" y="29" on="0"/>
        <pt x="415" y="-12" on="0"/>
        <pt x="377" y="-12" on="1"/>
        <pt x="312" y="-12" on="0"/>
        <pt x="295" y="44" on="1"/>
        <pt x="216" y="-12" on="0"/>
        <pt x="95" y="-12" on="0"/>
        <pt x="29" y="76" on="0"/>
        <pt x="29" y="158" on="1"/>
        <pt x="29" y="271" on="0"/>
        <pt x="145" y="443" on="0"/>
        <pt x="240" y="443" on="1"/>
        <pt x="292" y="443" on="0"/>
        <pt x="346" y="414" on="1"/>
        <pt x="354" y="432" on="0"/>
        <pt x="359" y="440" on="1"/>
        <pt x="431" y="440" on="0"/>
        <pt x="518" y="405" on="1"/>
      </contour>
      <contour>
        <pt x="217" y="120" on="0"/>
        <pt x="231" y="94" on="0"/>
        <pt x="269" y="94" on="0"/>
        <pt x="287" y="109" on="1"/>
        <pt x="291" y="225" on="0"/>
        <pt x="325" y="352" on="1"/>
        <pt x="310" y="361" on="0"/>
        <pt x="271" y="361" on="0"/>
        <pt x="240" y="317" on="0"/>
        <pt x="232" y="284" on="1"/>
        <pt x="217" y="221" on="0"/>
      </contour>
    </TTGlyph>
    <TTGlyph name="ae" xMin="29" yMin="-12" xMax="687" yMax="443">
      <contour>
        <pt x="223" y="443" on="1"/>
        <pt x="276" y="443" on="0"/>
        <pt x="328" y="413" on="1"/>
        <pt x="333" y="426" on="0"/>
        <pt x="341" y="440" on="1"/>
        <pt x="395" y="438" on="0"/>
        <pt x="440" y="425" on="1"/>
        <pt x="486" y="443" on="0"/>
        <pt x="609" y="443" on="0"/>
        <pt x="687" y="385" on="0"/>
        <pt x="687" y="296" on="0"/>
        <pt x="641" y="237" on="0"/>
        <pt x="608" y="221" on="1"/>
        <pt x="538" y="186" on="0"/>
        <pt x="489" y="180" on="1"/>
        <pt x="466" y="177" on="1"/>
        <pt x="466" y="133" on="0"/>
        <pt x="504" y="83" on="0"/>
        <pt x="560" y="83" on="0"/>
        <pt x="609" y="102" on="0"/>
        <pt x="622" y="112" on="1"/>
        <pt x="635" y="122" on="1"/>
        <pt x="664" y="73" on="1"/>
        <pt x="660" y="70" on="0"/>
        <pt x="647" y="58" on="0"/>
        <pt x="602" y="29" on="0"/>
        <pt x="578" y="18" on="1"/>
        <pt x="518" y="-12" on="0"/>
        <pt x="446" y="-12" on="1"/>
        <pt x="354" y="-12" on="0"/>
        <pt x="312" y="51" on="1"/>
        <pt x="227" y="-12" on="0"/>
        <pt x="152" y="-12" on="1"/>
        <pt x="104" y="-12" on="0"/>
        <pt x="29" y="69" on="0"/>
        <pt x="29" y="154" on="1"/>
        <pt x="29" y="288" on="0"/>
        <pt x="141" y="443" on="0"/>
      </contour>
      <contour>
        <pt x="283" y="173" on="1"/>
        <pt x="283" y="260" on="0"/>
        <pt x="309" y="353" on="1"/>
        <pt x="287" y="362" on="0"/>
        <pt x="274" y="362" on="1"/>
        <pt x="248" y="362" on="0"/>
        <pt x="214" y="242" on="0"/>
        <pt x="214" y="94" on="0"/>
        <pt x="246" y="94" on="1"/>
        <pt x="263" y="94" on="0"/>
        <pt x="290" y="110" on="1"/>
        <pt x="283" y="138" on="0"/>
      </contour>
      <contour>
        <pt x="494" y="244" on="0"/>
        <pt x="535" y="304" on="0"/>
        <pt x="535" y="379" on="0"/>
        <pt x="514" y="379" on="1"/>
        <pt x="489" y="379" on="0"/>
        <pt x="466" y="276" on="0"/>
        <pt x="466" y="236" on="1"/>
      </contour>
    </TTGlyph>
    <TTGlyph name="agrave" xMin="29" yMin="-12" xMax="546" yMax="696">
      <contour>
        <pt x="231" y="696" on="1"/>
        <pt x="277" y="696" on="0"/>
        <pt x="490" y="547" on="1"/>
        <pt x="464" y="499" on="1"/>
        <pt x="318" y="551" on="0"/>
        <pt x="155" y="590" on="1"/>
        <pt x="191" y="696" on="0"/>
      </contour>
      <contour>
        <pt x="497" y="340" on="0"/>
        <pt x="467" y="161" on="0"/>
        <pt x="467" y="90" on="0"/>
        <pt x="478" y="90" on="1"/>
        <pt x="528" y="104" on="1"/>
        <pt x="546" y="54" on="1"/>
        <pt x="514" y="29" on="0"/>
        <pt x="415" y="-12" on="0"/>
        <pt x="377" y="-12" on="1"/>
        <pt x="312" y="-12" on="0"/>
        <pt x="295" y="44" on="1"/>
        <pt x="216" y="-12" on="0"/>
        <pt x="95" y="-12" on="0"/>
        <pt x="29" y="76" on="0"/>
        <pt x="29" y="158" on="1"/>
        <pt x="29" y="271" on="0"/>
        <pt x="145" y="443" on="0"/>
        <pt x="240" y="443" on="1"/>
        <pt x="292" y="443" on="0"/>
        <pt x="346" y="414" on="1"/>
        <pt x="354" y="432" on="0"/>
        <pt x="359" y="440" on="1"/>
        <pt x="431" y="440" on="0"/>
        <pt x="518" y="405" on="1"/>
      </contour>
      <contour>
        <pt x="217" y="120" on="0"/>
        <pt x="231" y="94" on="0"/>
        <pt x="269" y="94" on="0"/>
        <pt x="287" y="109" on="1"/>
        <pt x="291" y="225" on="0"/>
        <pt x="325" y="352" on="1"/>
        <pt x="310" y="361" on="0"/>
        <pt x="271" y="361" on="0"/>
        <pt x="240" y="317" on="0"/>
        <pt x="232" y="284" on="1"/>
        <pt x="217" y="221" on="0"/>
      </contour>
    </TTGlyph>
    <TTGlyph name="ampersand" xMin="57" yMin="-14" xMax="783" yMax="707">
      <contour>
        <pt x="610" y="385" on="1"/>
        <pt x="611" y="385" on="0"/>
        <pt x="631" y="385" on="0"/>
        <pt x="701" y="357" on="0"/>
        <pt x="711" y="339" on="1"/>
        <pt x="698" y="317" on="0"/>
        <pt x="627" y="215" on="0"/>
        <pt x="598" y="182" on="1"/>
        <pt x="673" y="98" on="0"/>
        <pt x="698" y="98" on="1"/>
        <pt x="712" y="98" on="0"/>
        <pt x="741" y="112" on="1"/>
        <pt x="750" y="117" on="1"/>
        <pt x="783" y="68" on="1"/>
        <pt x="696" y="-12" on="0"/>
        <pt x="604" y="-12" on="1"/>
        <pt x="527" y="-12" on="0"/>
        <pt x="471" y="48" on="1"/>
        <pt x="385" y="-14" on="0"/>
        <pt x="175" y="-14" on="0"/>
        <pt x="57" y="80" on="0"/>
        <pt x="57" y="159" on="1"/>
        <pt x="57" y="294" on="0"/>
        <pt x="250" y="397" on="1"/>
        <pt x="204" y="477" on="0"/>
        <pt x="204" y="617" on="0"/>
        <pt x="335" y="707" on="0"/>
        <pt x="515" y="707" on="0"/>
        <pt x="602" y="638" on="0"/>
        <pt x="602" y="592" on="1"/>
        <pt x="602" y="536" on="0"/>
        <pt x="542" y="484" on="1"/>
        <pt x="504" y="451" on="0"/>
        <pt x="445" y="411" on="1"/>
        <pt x="474" y="358" on="0"/>
        <pt x="537" y="262" on="1"/>
        <pt x="561" y="301" on="0"/>
      </contour>
      <contour>
        <pt x="237" y="197" on="1"/>
        <pt x="237" y="147" on="0"/>
        <pt x="287" y="88" on="0"/>
        <pt x="320" y="88" on="1"/>
        <pt x="340" y="88" on="0"/>
        <pt x="385" y="104" on="0"/>
        <pt x="397" y="112" on="1"/>
        <pt x="409" y="121" on="1"/>
        <pt x="407" y="125" on="0"/>
        <pt x="369" y="182" on="0"/>
        <pt x="355" y="204" on="1"/>
        <pt x="313" y="270" on="0"/>
        <pt x="291" y="314" on="1"/>
        <pt x="237" y="264" on="0"/>
      </contour>
      <contour>
        <pt x="405" y="632" on="0"/>
        <pt x="370" y="601" on="0"/>
        <pt x="370" y="531" on="0"/>
        <pt x="400" y="483" on="1"/>
        <pt x="472" y="531" on="0"/>
        <pt x="472" y="583" on="1"/>
        <pt x="472" y="605" on="0"/>
        <pt x="449" y="632" on="0"/>
      </contour>
    </TTGlyph>
    <TTGlyph name="aring" xMin="29" yMin="-12" xMax="546" yMax="737">
      <contour>
        <pt x="279" y="516" on="0"/>
        <pt x="217" y="579" on="0"/>
        <pt x="217" y="676" on="0"/>
        <pt x="279" y="737" on="0"/>
        <pt x="395" y="737" on="0"/>
        <pt x="457" y="676" on="0"/>
        <pt x="457" y="579" on="0"/>
        <pt x="395" y="516" on="0"/>
      </contour>
      <contour>
        <pt x="292" y="646" on="0"/>
        <pt x="292" y="608" on="0"/>
        <pt x="316" y="584" on="0"/>
        <pt x="337" y="584" on="1"/>
        <pt x="378" y="584" on="0"/>
        <pt x="378" y="670" on="0"/>
        <pt x="337" y="670" on="1"/>
        <pt x="316" y="670" on="0"/>
      </contour>
      <contour>
        <pt x="497" y="340" on="0"/>
        <pt x="467" y="161" on="0"/>
        <pt x="467" y="90" on="0"/>
        <pt x="478" y="90" on="1"/>
        <pt x="528" y="104" on="1"/>
        <pt x="546" y="54" on="1"/>
        <pt x="514" y="29" on="0"/>
        <pt x="415" y="-12" on="0"/>
        <pt x="377" y="-12" on="1"/>
        <pt x="312" y="-12" on="0"/>
        <pt x="295" y="44" on="1"/>
        <pt x="216" y="-12" on="0"/>
        <pt x="95" y="-12" on="0"/>
        <pt x="29" y="76" on="0"/>
        <pt x="29" y="158" on="1"/>
        <pt x="29" y="271" on="0"/>
        <pt x="145" y="443" on="0"/>
        <pt x="240" y="443" on="1"/>
        <pt x="292" y="443" on="0"/>
        <pt x="346" y="414" on="1"/>
        <pt x="354" y="432" on="0"/>
        <pt x="359" y="440" on="1"/>
        <pt x="431" y="440" on="0"/>
        <pt x="518" y="405" on="1"/>
      </contour>
      <contour>
        <pt x="217" y="120" on="0"/>
        <pt x="231" y="94" on="0"/>
        <pt x="269" y="94" on="0"/>
        <pt x="287" y="109" on="1"/>
        <pt x="291" y="225" on="0"/>
        <pt x="325" y="352" on="1"/>
        <pt x="310" y="361" on="0"/>
        <pt x="271" y="361" on="0"/>
        <pt x="240" y="317" on="0"/>
        <pt x="232" y="284" on="1"/>
        <pt x="217" y="221" on="0"/>
      </contour>
    </TTGlyph>
    <TTGlyph name="asciicircum" xMin="18" yMin="284" xMax="453" yMax="674">
      <contour>
        <pt x="453" y="291" on="1"/>
        <pt x="429" y="284" on="0"/>
        <pt x="362" y="284" on="0"/>
        <pt x="322" y="288" on="1"/>
        <pt x="237" y="523" on="1"/>
        <pt x="149" y="288" on="1"/>
        <pt x="109" y="284" on="0"/>
        <pt x="75" y="284" on="1"/>
        <pt x="18" y="288" on="1"/>
        <pt x="175" y="642" on="0"/>
        <pt x="190" y="674" on="1"/>
        <pt x="285" y="674" on="1"/>
        <pt x="307" y="623" on="0"/>
        <pt x="338" y="550" on="1"/>
        <pt x="404" y="397" on="0"/>
      </contour>
    </TTGlyph>
    <TTGlyph name="asciitilde" xMin="44" yMin="211" xMax="513" yMax="382">
      <contour>
        <pt x="384" y="224" on="1"/>
        <pt x="360" y="224" on="0"/>
        <pt x="191" y="251" on="0"/>
        <pt x="142" y="251" on="0"/>
        <pt x="111" y="235" on="0"/>
        <pt x="95" y="211" on="1"/>
        <pt x="44" y="224" on="1"/>
        <pt x="60" y="376" on="0"/>
        <pt x="181" y="376" on="1"/>
        <pt x="206" y="376" on="0"/>
        <pt x="371" y="349" on="0"/>
        <pt x="442" y="349" on="0"/>
        <pt x="465" y="382" on="1"/>
        <pt x="513" y="370" on="1"/>
        <pt x="497" y="224" on="0"/>
      </contour>
    </TTGlyph>
    <TTGlyph name="asterisk" xMin="35" yMin="320" xMax="441" yMax="736">
      <contour>
        <pt x="319" y="471" on="1"/>
        <pt x="324" y="469" on="0"/>
        <pt x="354" y="469" on="0"/>
        <pt x="385" y="478" on="1"/>
        <pt x="399" y="471" on="0"/>
        <pt x="419" y="426" on="0"/>
        <pt x="419" y="396" on="0"/>
        <pt x="418" y="392" on="1"/>
        <pt x="389" y="360" on="0"/>
        <pt x="347" y="360" on="1"/>
        <pt x="335" y="360" on="0"/>
        <pt x="326" y="363" on="1"/>
        <pt x="310" y="371" on="0"/>
        <pt x="263" y="450" on="0"/>
        <pt x="249" y="491" on="1"/>
        <pt x="221" y="451" on="0"/>
        <pt x="221" y="436" on="1"/>
        <pt x="221" y="408" on="0"/>
        <pt x="238" y="378" on="1"/>
        <pt x="243" y="368" on="1"/>
        <pt x="231" y="350" on="0"/>
        <pt x="183" y="320" on="0"/>
        <pt x="163" y="320" on="1"/>
        <pt x="145" y="331" on="0"/>
        <pt x="117" y="373" on="0"/>
        <pt x="117" y="417" on="0"/>
        <pt x="177" y="490" on="0"/>
        <pt x="213" y="517" on="1"/>
        <pt x="187" y="525" on="0"/>
        <pt x="163" y="525" on="0"/>
        <pt x="154" y="523" on="1"/>
        <pt x="136" y="519" on="0"/>
        <pt x="112" y="495" on="1"/>
        <pt x="104" y="487" on="1"/>
        <pt x="85" y="490" on="0"/>
        <pt x="37" y="526" on="0"/>
        <pt x="35" y="548" on="1"/>
        <pt x="39" y="571" on="0"/>
        <pt x="81" y="614" on="0"/>
        <pt x="119" y="614" on="0"/>
        <pt x="199" y="574" on="0"/>
        <pt x="229" y="549" on="1"/>
        <pt x="227" y="595" on="0"/>
        <pt x="217" y="611" on="1"/>
        <pt x="209" y="630" on="0"/>
        <pt x="178" y="649" on="1"/>
        <pt x="168" y="655" on="1"/>
        <pt x="168" y="682" on="0"/>
        <pt x="192" y="730" on="0"/>
        <pt x="208" y="736" on="1"/>
        <pt x="234" y="736" on="0"/>
        <pt x="283" y="710" on="0"/>
        <pt x="290" y="692" on="1"/>
        <pt x="292" y="682" on="0"/>
        <pt x="292" y="671" on="1"/>
        <pt x="292" y="604" on="0"/>
        <pt x="272" y="547" on="1"/>
        <pt x="312" y="568" on="0"/>
        <pt x="320" y="578" on="1"/>
        <pt x="334" y="599" on="0"/>
        <pt x="338" y="631" on="1"/>
        <pt x="340" y="642" on="1"/>
        <pt x="366" y="649" on="0"/>
        <pt x="419" y="649" on="0"/>
        <pt x="432" y="636" on="1"/>
        <pt x="441" y="614" on="0"/>
        <pt x="441" y="562" on="0"/>
        <pt x="412" y="533" on="0"/>
        <pt x="325" y="508" on="0"/>
        <pt x="285" y="505" on="1"/>
        <pt x="305" y="477" on="0"/>
      </contour>
    </TTGlyph>
    <TTGlyph name="at" xMin="45" yMin="-23" xMax="820" yMax="715">
      <contour>
        <pt x="548" y="8" on="1"/>
        <pt x="465" y="-23" on="0"/>
        <pt x="307" y="-23" on="0"/>
        <pt x="171" y="32" on="0"/>
        <pt x="130" y="78" on="1"/>
        <pt x="45" y="173" on="0"/>
        <pt x="45" y="304" on="1"/>
        <pt x="45" y="385" on="0"/>
        <pt x="107" y="534" on="0"/>
        <pt x="217" y="648" on="0"/>
        <pt x="383" y="715" on="0"/>
        <pt x="480" y="715" on="1"/>
        <pt x="635" y="715" on="0"/>
        <pt x="820" y="557" on="0"/>
        <pt x="820" y="434" on="1"/>
        <pt x="820" y="363" on="0"/>
        <pt x="763" y="247" on="0"/>
        <pt x="722" y="214" on="1"/>
        <pt x="638" y="148" on="0"/>
        <pt x="575" y="148" on="1"/>
        <pt x="527" y="148" on="0"/>
        <pt x="502" y="193" on="1"/>
        <pt x="437" y="148" on="0"/>
        <pt x="339" y="148" on="0"/>
        <pt x="260" y="225" on="0"/>
        <pt x="260" y="311" on="1"/>
        <pt x="260" y="422" on="0"/>
        <pt x="374" y="555" on="0"/>
        <pt x="469" y="555" on="1"/>
        <pt x="534" y="555" on="0"/>
        <pt x="633" y="518" on="1"/>
        <pt x="605" y="398" on="0"/>
        <pt x="605" y="251" on="1"/>
        <pt x="605" y="226" on="0"/>
        <pt x="614" y="226" on="1"/>
        <pt x="626" y="226" on="0"/>
        <pt x="666" y="266" on="0"/>
        <pt x="703" y="365" on="0"/>
        <pt x="703" y="472" on="0"/>
        <pt x="679" y="547" on="0"/>
        <pt x="654" y="579" on="1"/>
        <pt x="602" y="647" on="0"/>
        <pt x="483" y="647" on="1"/>
        <pt x="413" y="647" on="0"/>
        <pt x="297" y="591" on="0"/>
        <pt x="260" y="544" on="1"/>
        <pt x="183" y="448" on="0"/>
        <pt x="183" y="206" on="0"/>
        <pt x="296" y="50" on="0"/>
        <pt x="401" y="50" on="1"/>
        <pt x="464" y="50" on="0"/>
        <pt x="518" y="76" on="1"/>
        <pt x="538" y="48" on="0"/>
        <pt x="546" y="18" on="1"/>
      </contour>
      <contour>
        <pt x="428" y="232" on="1"/>
        <pt x="439" y="232" on="0"/>
        <pt x="468" y="251" on="0"/>
        <pt x="474" y="261" on="1"/>
        <pt x="485" y="420" on="0"/>
        <pt x="500" y="481" on="1"/>
        <pt x="488" y="489" on="0"/>
        <pt x="473" y="489" on="1"/>
        <pt x="438" y="489" on="0"/>
        <pt x="401" y="395" on="0"/>
        <pt x="401" y="232" on="0"/>
      </contour>
    </TTGlyph>
    <TTGlyph name="atilde" xMin="29" yMin="-12" xMax="551" yMax="683">
      <contour>
        <pt x="441" y="528" on="1"/>
        <pt x="420" y="528" on="0"/>
        <pt x="288" y="560" on="0"/>
        <pt x="245" y="560" on="0"/>
        <pt x="217" y="541" on="0"/>
        <pt x="203" y="515" on="1"/>
        <pt x="151" y="527" on="1"/>
        <pt x="165" y="678" on="0"/>
        <pt x="267" y="678" on="1"/>
        <pt x="289" y="678" on="0"/>
        <pt x="420" y="646" on="0"/>
        <pt x="466" y="646" on="0"/>
        <pt x="489" y="661" on="0"/>
        <pt x="501" y="683" on="1"/>
        <pt x="551" y="673" on="1"/>
        <pt x="537" y="528" on="0"/>
      </contour>
      <contour>
        <pt x="497" y="340" on="0"/>
        <pt x="467" y="161" on="0"/>
        <pt x="467" y="90" on="0"/>
        <pt x="478" y="90" on="1"/>
        <pt x="528" y="104" on="1"/>
        <pt x="546" y="54" on="1"/>
        <pt x="514" y="29" on="0"/>
        <pt x="415" y="-12" on="0"/>
        <pt x="377" y="-12" on="1"/>
        <pt x="312" y="-12" on="0"/>
        <pt x="295" y="44" on="1"/>
        <pt x="216" y="-12" on="0"/>
        <pt x="95" y="-12" on="0"/>
        <pt x="29" y="76" on="0"/>
        <pt x="29" y="158" on="1"/>
        <pt x="29" y="271" on="0"/>
        <pt x="145" y="443" on="0"/>
        <pt x="240" y="443" on="1"/>
        <pt x="292" y="443" on="0"/>
        <pt x="346" y="414" on="1"/>
        <pt x="354" y="432" on="0"/>
        <pt x="359" y="440" on="1"/>
        <pt x="431" y="440" on="0"/>
        <pt x="518" y="405" on="1"/>
      </contour>
      <contour>
        <pt x="217" y="120" on="0"/>
        <pt x="231" y="94" on="0"/>
        <pt x="269" y="94" on="0"/>
        <pt x="287" y="109" on="1"/>
        <pt x="291" y="225" on="0"/>
        <pt x="325" y="352" on="1"/>
        <pt x="310" y="361" on="0"/>
        <pt x="271" y="361" on="0"/>
        <pt x="240" y="317" on="0"/>
        <pt x="232" y="284" on="1"/>
        <pt x="217" y="221" on="0"/>
      </contour>
    </TTGlyph>
    <TTGlyph name="b" xMin="25" yMin="-12" xMax="508" yMax="734">
      <contour>
        <pt x="327" y="692" on="1"/>
        <pt x="327" y="619" on="0"/>
        <pt x="278" y="408" on="1"/>
        <pt x="336" y="443" on="0"/>
        <pt x="434" y="443" on="0"/>
        <pt x="508" y="361" on="0"/>
        <pt x="508" y="144" on="0"/>
        <pt x="389" y="-12" on="0"/>
        <pt x="302" y="-12" on="1"/>
        <pt x="250" y="-12" on="0"/>
        <pt x="199" y="16" on="1"/>
        <pt x="99" y="-8" on="0"/>
        <pt x="30" y="-8" on="1"/>
        <pt x="25" y="-5" on="0"/>
        <pt x="25" y="26" on="1"/>
        <pt x="25" y="99" on="0"/>
        <pt x="142" y="579" on="0"/>
        <pt x="142" y="665" on="1"/>
        <pt x="142" y="687" on="0"/>
        <pt x="140" y="707" on="1"/>
        <pt x="237" y="734" on="0"/>
        <pt x="321" y="734" on="1"/>
        <pt x="327" y="724" on="0"/>
      </contour>
      <contour>
        <pt x="296" y="343" on="1"/>
        <pt x="282" y="343" on="0"/>
        <pt x="260" y="332" on="1"/>
        <pt x="217" y="147" on="0"/>
        <pt x="210" y="83" on="1"/>
        <pt x="228" y="74" on="0"/>
        <pt x="243" y="74" on="1"/>
        <pt x="277" y="74" on="0"/>
        <pt x="320" y="220" on="0"/>
        <pt x="320" y="343" on="0"/>
      </contour>
    </TTGlyph>
    <TTGlyph name="backslash" xMin="9" yMin="-112" xMax="413" yMax="747">
      <contour>
        <pt x="9" y="710" on="1"/>
        <pt x="51" y="737" on="0"/>
        <pt x="92" y="747" on="1"/>
        <pt x="265" y="313" on="0"/>
        <pt x="413" y="-78" on="1"/>
        <pt x="379" y="-112" on="0"/>
        <pt x="329" y="-112" on="1"/>
        <pt x="158" y="343" on="0"/>
      </contour>
    </TTGlyph>
    <TTGlyph name="bar" xMin="109" yMin="-149" xMax="204" yMax="796">
      <contour>
        <pt x="204" y="796" on="1"/>
        <pt x="204" y="-143" on="1"/>
        <pt x="160" y="-149" on="0"/>
        <pt x="109" y="-149" on="1"/>
        <pt x="109" y="791" on="1"/>
        <pt x="172" y="796" on="0"/>
      </contour>
    </TTGlyph>
    <TTGlyph name="braceleft" xMin="78" yMin="-224" xMax="487" yMax="735">
      <contour>
        <pt x="222" y="390" on="1"/>
        <pt x="219" y="596" on="1"/>
        <pt x="219" y="661" on="0"/>
        <pt x="295" y="735" on="0"/>
        <pt x="422" y="735" on="0"/>
        <pt x="487" y="708" on="1"/>
        <pt x="479" y="658" on="1"/>
        <pt x="475" y="658" on="0"/>
        <pt x="471" y="658" on="1"/>
        <pt x="412" y="658" on="0"/>
        <pt x="388" y="630" on="0"/>
        <pt x="372" y="514" on="0"/>
        <pt x="359" y="352" on="0"/>
        <pt x="355" y="325" on="1"/>
        <pt x="348" y="273" on="0"/>
        <pt x="286" y="251" on="1"/>
        <pt x="309" y="243" on="0"/>
        <pt x="336" y="203" on="0"/>
        <pt x="336" y="142" on="0"/>
        <pt x="300" y="-84" on="0"/>
        <pt x="300" y="-124" on="0"/>
        <pt x="303" y="-131" on="1"/>
        <pt x="308" y="-145" on="0"/>
        <pt x="346" y="-164" on="0"/>
        <pt x="363" y="-166" on="1"/>
        <pt x="380" y="-169" on="1"/>
        <pt x="374" y="-219" on="1"/>
        <pt x="345" y="-224" on="0"/>
        <pt x="307" y="-224" on="1"/>
        <pt x="130" y="-224" on="0"/>
        <pt x="130" y="-112" on="1"/>
        <pt x="130" y="-76" on="0"/>
        <pt x="199" y="161" on="0"/>
        <pt x="207" y="206" on="1"/>
        <pt x="197" y="218" on="0"/>
        <pt x="108" y="226" on="1"/>
        <pt x="78" y="228" on="1"/>
        <pt x="79" y="275" on="0"/>
        <pt x="88" y="313" on="1"/>
        <pt x="174" y="299" on="0"/>
        <pt x="207" y="299" on="1"/>
        <pt x="218" y="300" on="1"/>
        <pt x="222" y="337" on="0"/>
      </contour>
    </TTGlyph>
    <TTGlyph name="braceright" xMin="28" yMin="-224" xMax="437" yMax="735">
      <contour>
        <pt x="293" y="121" on="1"/>
        <pt x="296" y="-85" on="1"/>
        <pt x="296" y="-150" on="0"/>
        <pt x="220" y="-224" on="0"/>
        <pt x="92" y="-224" on="0"/>
        <pt x="28" y="-197" on="1"/>
        <pt x="36" y="-147" on="1"/>
        <pt x="102" y="-147" on="0"/>
        <pt x="128" y="-120" on="0"/>
        <pt x="143" y="-4" on="0"/>
        <pt x="156" y="159" on="0"/>
        <pt x="160" y="186" on="1"/>
        <pt x="167" y="238" on="0"/>
        <pt x="229" y="260" on="1"/>
        <pt x="206" y="268" on="0"/>
        <pt x="179" y="308" on="0"/>
        <pt x="179" y="369" on="0"/>
        <pt x="215" y="596" on="0"/>
        <pt x="215" y="634" on="0"/>
        <pt x="207" y="656" on="0"/>
        <pt x="169" y="675" on="0"/>
        <pt x="152" y="678" on="1"/>
        <pt x="135" y="680" on="1"/>
        <pt x="141" y="730" on="1"/>
        <pt x="170" y="735" on="0"/>
        <pt x="208" y="735" on="1"/>
        <pt x="385" y="735" on="0"/>
        <pt x="385" y="623" on="1"/>
        <pt x="385" y="587" on="0"/>
        <pt x="316" y="350" on="0"/>
        <pt x="308" y="305" on="1"/>
        <pt x="318" y="293" on="0"/>
        <pt x="407" y="286" on="1"/>
        <pt x="437" y="283" on="1"/>
        <pt x="436" y="236" on="0"/>
        <pt x="427" y="198" on="1"/>
        <pt x="341" y="212" on="0"/>
        <pt x="308" y="212" on="1"/>
        <pt x="297" y="211" on="1"/>
        <pt x="293" y="174" on="0"/>
      </contour>
    </TTGlyph>
    <TTGlyph name="bracketleft" xMin="63" yMin="-224" xMax="417" yMax="734">
      <contour>
        <pt x="222" y="-133" on="1"/>
        <pt x="222" y="-142" on="0"/>
        <pt x="288" y="-163" on="1"/>
        <pt x="309" y="-170" on="1"/>
        <pt x="301" y="-223" on="1"/>
        <pt x="287" y="-224" on="0"/>
        <pt x="275" y="-224" on="1"/>
        <pt x="161" y="-224" on="0"/>
        <pt x="82" y="-210" on="1"/>
        <pt x="65" y="-187" on="0"/>
        <pt x="63" y="-169" on="1"/>
        <pt x="123" y="420" on="0"/>
        <pt x="162" y="690" on="1"/>
        <pt x="164" y="706" on="0"/>
        <pt x="191" y="734" on="0"/>
        <pt x="206" y="734" on="1"/>
        <pt x="291" y="734" on="0"/>
        <pt x="417" y="713" on="1"/>
        <pt x="413" y="654" on="1"/>
        <pt x="316" y="652" on="0"/>
        <pt x="312" y="633" on="1"/>
        <pt x="307" y="609" on="0"/>
        <pt x="269" y="350" on="0"/>
        <pt x="255" y="225" on="0"/>
        <pt x="239" y="87" on="0"/>
        <pt x="234" y="47" on="1"/>
        <pt x="222" y="-64" on="0"/>
      </contour>
    </TTGlyph>
    <TTGlyph name="bracketright" xMin="15" yMin="-224" xMax="369" yMax="734">
      <contour>
        <pt x="210" y="643" on="1"/>
        <pt x="210" y="652" on="0"/>
        <pt x="145" y="673" on="1"/>
        <pt x="123" y="680" on="1"/>
        <pt x="131" y="733" on="1"/>
        <pt x="145" y="734" on="0"/>
        <pt x="157" y="734" on="1"/>
        <pt x="271" y="734" on="0"/>
        <pt x="350" y="720" on="1"/>
        <pt x="367" y="697" on="0"/>
        <pt x="369" y="679" on="1"/>
        <pt x="309" y="90" on="0"/>
        <pt x="270" y="-180" on="1"/>
        <pt x="268" y="-196" on="0"/>
        <pt x="241" y="-224" on="0"/>
        <pt x="226" y="-224" on="1"/>
        <pt x="141" y="-224" on="0"/>
        <pt x="15" y="-203" on="1"/>
        <pt x="19" y="-144" on="1"/>
        <pt x="116" y="-142" on="0"/>
        <pt x="120" y="-123" on="1"/>
        <pt x="125" y="-99" on="0"/>
        <pt x="163" y="160" on="0"/>
        <pt x="177" y="285" on="0"/>
        <pt x="193" y="423" on="0"/>
        <pt x="198" y="463" on="1"/>
        <pt x="210" y="574" on="0"/>
      </contour>
    </TTGlyph>
    <TTGlyph name="brokenbar" xMin="109" yMin="-149" xMax="204" yMax="797">
      <contour>
        <pt x="109" y="-149" on="1"/>
        <pt x="109" y="292" on="1"/>
        <pt x="204" y="292" on="1"/>
        <pt x="204" y="-143" on="1"/>
        <pt x="161" y="-149" on="0"/>
      </contour>
      <contour>
        <pt x="204" y="797" on="1"/>
        <pt x="204" y="399" on="1"/>
        <pt x="109" y="399" on="1"/>
        <pt x="109" y="791" on="1"/>
        <pt x="136" y="797" on="0"/>
      </contour>
    </TTGlyph>
    <TTGlyph name="bullet" xMin="97" yMin="183" xMax="379" yMax="465">
      <contour>
        <pt x="171" y="183" on="0"/>
        <pt x="97" y="261" on="0"/>
        <pt x="97" y="383" on="0"/>
        <pt x="181" y="465" on="0"/>
        <pt x="306" y="465" on="0"/>
        <pt x="379" y="390" on="0"/>
        <pt x="379" y="271" on="0"/>
        <pt x="294" y="183" on="0"/>
      </contour>
    </TTGlyph>
    <TTGlyph name="c" xMin="20" yMin="-12" xMax="440" yMax="443">
      <contour>
        <pt x="282" y="376" on="1"/>
        <pt x="251" y="376" on="0"/>
        <pt x="207" y="266" on="0"/>
        <pt x="207" y="210" on="1"/>
        <pt x="207" y="87" on="0"/>
        <pt x="278" y="87" on="1"/>
        <pt x="323" y="87" on="0"/>
        <pt x="380" y="130" on="1"/>
        <pt x="412" y="86" on="1"/>
        <pt x="370" y="40" on="0"/>
        <pt x="253" y="-12" on="0"/>
        <pt x="195" y="-12" on="1"/>
        <pt x="117" y="-12" on="0"/>
        <pt x="20" y="83" on="0"/>
        <pt x="20" y="179" on="1"/>
        <pt x="20" y="295" on="0"/>
        <pt x="163" y="443" on="0"/>
        <pt x="279" y="443" on="1"/>
        <pt x="354" y="443" on="0"/>
        <pt x="440" y="382" on="0"/>
        <pt x="440" y="289" on="0"/>
        <pt x="412" y="255" on="1"/>
        <pt x="379" y="255" on="0"/>
        <pt x="302" y="280" on="0"/>
        <pt x="279" y="299" on="1"/>
        <pt x="294" y="374" on="1"/>
        <pt x="288" y="376" on="0"/>
      </contour>
    </TTGlyph>
    <TTGlyph name="caron" xMin="121" yMin="506" xMax="529" yMax="707">
      <contour>
        <pt x="476" y="605" on="0"/>
        <pt x="297" y="506" on="0"/>
        <pt x="241" y="506" on="0"/>
        <pt x="143" y="621" on="0"/>
        <pt x="121" y="658" on="1"/>
        <pt x="170" y="705" on="1"/>
        <pt x="248" y="651" on="0"/>
        <pt x="302" y="629" on="1"/>
        <pt x="411" y="664" on="0"/>
        <pt x="492" y="707" on="1"/>
        <pt x="529" y="651" on="1"/>
      </contour>
    </TTGlyph>
    <TTGlyph name="caron.cap" xMin="121" yMin="744" xMax="547" yMax="924">
      <contour>
        <pt x="485" y="832" on="0"/>
        <pt x="311" y="744" on="0"/>
        <pt x="250" y="744" on="0"/>
        <pt x="145" y="850" on="0"/>
        <pt x="121" y="885" on="1"/>
        <pt x="160" y="922" on="1"/>
        <pt x="269" y="877" on="0"/>
        <pt x="314" y="863" on="1"/>
        <pt x="385" y="877" on="0"/>
        <pt x="518" y="924" on="1"/>
        <pt x="547" y="876" on="1"/>
      </contour>
    </TTGlyph>
    <TTGlyph name="ccedilla" xMin="20" yMin="-198" xMax="440" yMax="443">
      <contour>
        <pt x="282" y="376" on="1"/>
        <pt x="251" y="376" on="0"/>
        <pt x="207" y="266" on="0"/>
        <pt x="207" y="210" on="1"/>
        <pt x="207" y="87" on="0"/>
        <pt x="278" y="87" on="1"/>
        <pt x="323" y="87" on="0"/>
        <pt x="380" y="130" on="1"/>
        <pt x="412" y="86" on="1"/>
        <pt x="335" y="3" on="0"/>
        <pt x="224" y="-10" on="1"/>
        <pt x="183" y="-57" on="0"/>
        <pt x="183" y="-95" on="1"/>
        <pt x="183" y="-113" on="0"/>
        <pt x="198" y="-113" on="1"/>
        <pt x="227" y="-113" on="0"/>
        <pt x="266" y="-90" on="1"/>
        <pt x="294" y="-131" on="1"/>
        <pt x="273" y="-155" on="0"/>
        <pt x="183" y="-198" on="0"/>
        <pt x="112" y="-198" on="0"/>
        <pt x="68" y="-159" on="0"/>
        <pt x="68" y="-96" on="0"/>
        <pt x="118" y="-31" on="0"/>
        <pt x="150" y="-7" on="1"/>
        <pt x="91" y="5" on="0"/>
        <pt x="20" y="98" on="0"/>
        <pt x="20" y="179" on="1"/>
        <pt x="20" y="295" on="0"/>
        <pt x="163" y="443" on="0"/>
        <pt x="279" y="443" on="1"/>
        <pt x="354" y="443" on="0"/>
        <pt x="440" y="382" on="0"/>
        <pt x="440" y="289" on="0"/>
        <pt x="412" y="255" on="1"/>
        <pt x="379" y="255" on="0"/>
        <pt x="302" y="280" on="0"/>
        <pt x="279" y="299" on="1"/>
        <pt x="294" y="374" on="1"/>
        <pt x="288" y="376" on="0"/>
      </contour>
    </TTGlyph>
    <TTGlyph name="cedilla" xMin="130" yMin="-198" xMax="356" yMax="9">
      <contour>
        <pt x="245" y="-95" on="1"/>
        <pt x="245" y="-113" on="0"/>
        <pt x="260" y="-113" on="1"/>
        <pt x="289" y="-113" on="0"/>
        <pt x="328" y="-90" on="1"/>
        <pt x="356" y="-131" on="1"/>
        <pt x="335" y="-155" on="0"/>
        <pt x="245" y="-198" on="0"/>
        <pt x="174" y="-198" on="0"/>
        <pt x="130" y="-159" on="0"/>
        <pt x="130" y="-88" on="0"/>
        <pt x="208" y="-5" on="0"/>
        <pt x="240" y="9" on="1"/>
        <pt x="300" y="3" on="1"/>
        <pt x="245" y="-49" on="0"/>
      </contour>
    </TTGlyph>
    <TTGlyph name="cent" xMin="20" yMin="-116" xMax="440" yMax="562">
      <contour>
        <pt x="282" y="376" on="1"/>
        <pt x="251" y="376" on="0"/>
        <pt x="207" y="266" on="0"/>
        <pt x="207" y="210" on="1"/>
        <pt x="207" y="87" on="0"/>
        <pt x="278" y="87" on="1"/>
        <pt x="323" y="87" on="0"/>
        <pt x="380" y="130" on="1"/>
        <pt x="412" y="86" on="1"/>
        <pt x="332" y="-1" on="0"/>
        <pt x="216" y="-11" on="1"/>
        <pt x="211" y="-51" on="0"/>
        <pt x="211" y="-116" on="1"/>
        <pt x="172" y="-116" on="0"/>
        <pt x="127" y="-102" on="1"/>
        <pt x="145" y="-6" on="1"/>
        <pt x="87" y="7" on="0"/>
        <pt x="20" y="100" on="0"/>
        <pt x="20" y="179" on="1"/>
        <pt x="20" y="282" on="0"/>
        <pt x="133" y="423" on="0"/>
        <pt x="229" y="439" on="1"/>
        <pt x="234" y="488" on="0"/>
        <pt x="238" y="562" on="1"/>
        <pt x="274" y="562" on="0"/>
        <pt x="319" y="548" on="1"/>
        <pt x="298" y="442" on="1"/>
        <pt x="365" y="438" on="0"/>
        <pt x="440" y="378" on="0"/>
        <pt x="440" y="289" on="0"/>
        <pt x="412" y="255" on="1"/>
        <pt x="379" y="255" on="0"/>
        <pt x="302" y="280" on="0"/>
        <pt x="279" y="299" on="1"/>
        <pt x="294" y="374" on="1"/>
        <pt x="288" y="376" on="0"/>
      </contour>
    </TTGlyph>
    <TTGlyph name="circumflex" xMin="89" yMin="501" xMax="492" yMax="704">
      <contour>
        <pt x="148" y="601" on="0"/>
        <pt x="313" y="704" on="0"/>
        <pt x="380" y="704" on="0"/>
        <pt x="470" y="584" on="0"/>
        <pt x="492" y="539" on="1"/>
        <pt x="450" y="503" on="1"/>
        <pt x="360" y="562" on="0"/>
        <pt x="311" y="583" on="1"/>
        <pt x="233" y="560" on="0"/>
        <pt x="121" y="501" on="1"/>
        <pt x="89" y="548" on="1"/>
      </contour>
    </TTGlyph>
    <TTGlyph name="circumflex.cap" xMin="121" yMin="739" xMax="547" yMax="919">
      <contour>
        <pt x="183" y="831" on="0"/>
        <pt x="357" y="919" on="0"/>
        <pt x="418" y="919" on="0"/>
        <pt x="523" y="813" on="0"/>
        <pt x="547" y="778" on="1"/>
        <pt x="508" y="741" on="1"/>
        <pt x="399" y="786" on="0"/>
        <pt x="354" y="800" on="1"/>
        <pt x="283" y="786" on="0"/>
        <pt x="150" y="739" on="1"/>
        <pt x="121" y="787" on="1"/>
      </contour>
    </TTGlyph>
    <TTGlyph name="colon" xMin="62" yMin="-12" xMax="289" yMax="443">
      <contour>
        <pt x="143" y="264" on="0"/>
        <pt x="98" y="311" on="0"/>
        <pt x="98" y="388" on="0"/>
        <pt x="159" y="443" on="0"/>
        <pt x="244" y="443" on="0"/>
        <pt x="289" y="398" on="0"/>
        <pt x="289" y="322" on="0"/>
        <pt x="228" y="264" on="0"/>
      </contour>
      <contour>
        <pt x="107" y="-12" on="0"/>
        <pt x="62" y="35" on="0"/>
        <pt x="62" y="112" on="0"/>
        <pt x="123" y="167" on="0"/>
        <pt x="208" y="167" on="0"/>
        <pt x="253" y="122" on="0"/>
        <pt x="253" y="46" on="0"/>
        <pt x="192" y="-12" on="0"/>
      </contour>
    </TTGlyph>
    <TTGlyph name="comma" xMin="32" yMin="-190" xMax="234" yMax="161">
      <contour>
        <pt x="173" y="149" on="0"/>
        <pt x="234" y="83" on="0"/>
        <pt x="234" y="-6" on="0"/>
        <pt x="146" y="-151" on="0"/>
        <pt x="108" y="-190" on="1"/>
        <pt x="57" y="-159" on="1"/>
        <pt x="102" y="-90" on="0"/>
        <pt x="111" y="-35" on="1"/>
        <pt x="32" y="19" on="1"/>
        <pt x="32" y="59" on="0"/>
        <pt x="75" y="137" on="0"/>
        <pt x="109" y="161" on="1"/>
      </contour>
    </TTGlyph>
    <TTGlyph name="commaaccent" xMin="121" yMin="-277" xMax="311" yMax="-20">
      <contour>
        <pt x="311" y="-104" on="1"/>
        <pt x="311" y="-188" on="0"/>
        <pt x="210" y="-277" on="1"/>
        <pt x="159" y="-252" on="1"/>
        <pt x="179" y="-208" on="0"/>
        <pt x="184" y="-168" on="1"/>
        <pt x="121" y="-113" on="1"/>
        <pt x="133" y="-82" on="0"/>
        <pt x="182" y="-24" on="0"/>
        <pt x="203" y="-20" on="1"/>
        <pt x="243" y="-20" on="0"/>
        <pt x="311" y="-70" on="0"/>
      </contour>
    </TTGlyph>
    <TTGlyph name="copyright" xMin="32" yMin="-15" xMax="782" yMax="707">
      <contour>
        <pt x="552" y="388" on="1"/>
        <pt x="481" y="388" on="0"/>
        <pt x="452" y="409" on="1"/>
        <pt x="456" y="499" on="1"/>
        <pt x="453" y="505" on="0"/>
        <pt x="436" y="505" on="1"/>
        <pt x="405" y="505" on="0"/>
        <pt x="362" y="415" on="0"/>
        <pt x="362" y="346" on="1"/>
        <pt x="362" y="218" on="0"/>
        <pt x="442" y="218" on="1"/>
        <pt x="498" y="218" on="0"/>
        <pt x="538" y="258" on="1"/>
        <pt x="576" y="211" on="1"/>
        <pt x="573" y="208" on="0"/>
        <pt x="564" y="196" on="0"/>
        <pt x="529" y="168" on="0"/>
        <pt x="510" y="157" on="1"/>
        <pt x="460" y="128" on="0"/>
        <pt x="396" y="128" on="1"/>
        <pt x="312" y="128" on="0"/>
        <pt x="192" y="232" on="0"/>
        <pt x="192" y="425" on="0"/>
        <pt x="337" y="571" on="0"/>
        <pt x="445" y="571" on="1"/>
        <pt x="514" y="571" on="0"/>
        <pt x="607" y="508" on="0"/>
        <pt x="607" y="455" on="1"/>
        <pt x="607" y="435" on="0"/>
        <pt x="595" y="392" on="0"/>
        <pt x="589" y="390" on="1"/>
        <pt x="572" y="388" on="0"/>
      </contour>
      <contour>
        <pt x="228" y="-15" on="0"/>
        <pt x="32" y="188" on="0"/>
        <pt x="32" y="500" on="0"/>
        <pt x="230" y="707" on="0"/>
        <pt x="588" y="707" on="0"/>
        <pt x="782" y="505" on="0"/>
        <pt x="782" y="189" on="0"/>
        <pt x="588" y="-15" on="0"/>
      </contour>
      <contour>
        <pt x="271" y="637" on="0"/>
        <pt x="119" y="470" on="0"/>
        <pt x="119" y="219" on="0"/>
        <pt x="269" y="55" on="0"/>
        <pt x="548" y="55" on="0"/>
        <pt x="697" y="220" on="0"/>
        <pt x="697" y="475" on="0"/>
        <pt x="548" y="637" on="0"/>
      </contour>
    </TTGlyph>
    <TTGlyph name="currency" xMin="44" yMin="51" xMax="681" yMax="643">
      <contour>
        <pt x="152" y="222" on="1"/>
        <pt x="123" y="276" on="0"/>
        <pt x="123" y="415" on="0"/>
        <pt x="146" y="464" on="1"/>
        <pt x="83" y="518" on="0"/>
        <pt x="44" y="568" on="1"/>
        <pt x="82" y="610" on="0"/>
        <pt x="121" y="642" on="0"/>
        <pt x="164" y="643" on="0"/>
        <pt x="185" y="616" on="1"/>
        <pt x="229" y="556" on="1"/>
        <pt x="283" y="587" on="0"/>
        <pt x="437" y="587" on="0"/>
        <pt x="493" y="555" on="1"/>
        <pt x="502" y="567" on="0"/>
        <pt x="532" y="609" on="0"/>
        <pt x="538" y="616" on="1"/>
        <pt x="559" y="643" on="0"/>
        <pt x="583" y="643" on="1"/>
        <pt x="602" y="641" on="0"/>
        <pt x="642" y="611" on="0"/>
        <pt x="679" y="569" on="1"/>
        <pt x="644" y="524" on="0"/>
        <pt x="576" y="464" on="1"/>
        <pt x="600" y="413" on="0"/>
        <pt x="600" y="281" on="0"/>
        <pt x="575" y="230" on="1"/>
        <pt x="643" y="170" on="0"/>
        <pt x="681" y="123" on="1"/>
        <pt x="644" y="82" on="0"/>
        <pt x="605" y="53" on="0"/>
        <pt x="586" y="51" on="1"/>
        <pt x="562" y="51" on="0"/>
        <pt x="541" y="78" on="1"/>
        <pt x="535" y="86" on="0"/>
        <pt x="503" y="130" on="0"/>
        <pt x="493" y="142" on="1"/>
        <pt x="439" y="111" on="0"/>
        <pt x="290" y="111" on="0"/>
        <pt x="238" y="137" on="1"/>
        <pt x="196" y="79" on="0"/>
        <pt x="195" y="78" on="1"/>
        <pt x="174" y="51" on="0"/>
        <pt x="150" y="51" on="1"/>
        <pt x="131" y="53" on="0"/>
        <pt x="92" y="82" on="0"/>
        <pt x="55" y="123" on="1"/>
        <pt x="88" y="165" on="0"/>
      </contour>
      <contour>
        <pt x="361" y="468" on="1"/>
        <pt x="253" y="468" on="0"/>
        <pt x="253" y="231" on="0"/>
        <pt x="361" y="231" on="1"/>
        <pt x="417" y="231" on="0"/>
        <pt x="469" y="295" on="0"/>
        <pt x="469" y="403" on="0"/>
        <pt x="417" y="468" on="0"/>
      </contour>
    </TTGlyph>
    <TTGlyph name="d" xMin="29" yMin="-12" xMax="561" yMax="734">
      <contour>
        <pt x="377" y="-12" on="1"/>
        <pt x="315" y="-12" on="0"/>
        <pt x="297" y="36" on="1"/>
        <pt x="221" y="-12" on="0"/>
        <pt x="102" y="-12" on="0"/>
        <pt x="29" y="69" on="0"/>
        <pt x="29" y="160" on="1"/>
        <pt x="29" y="279" on="0"/>
        <pt x="150" y="443" on="0"/>
        <pt x="246" y="443" on="1"/>
        <pt x="293" y="443" on="0"/>
        <pt x="340" y="421" on="1"/>
        <pt x="377" y="590" on="0"/>
        <pt x="377" y="664" on="1"/>
        <pt x="377" y="686" on="0"/>
        <pt x="374" y="708" on="1"/>
        <pt x="467" y="734" on="0"/>
        <pt x="553" y="734" on="1"/>
        <pt x="561" y="721" on="0"/>
        <pt x="561" y="624" on="0"/>
        <pt x="470" y="200" on="0"/>
        <pt x="470" y="128" on="1"/>
        <pt x="470" y="90" on="0"/>
        <pt x="483" y="90" on="1"/>
        <pt x="526" y="104" on="1"/>
        <pt x="544" y="53" on="1"/>
        <pt x="456" y="-12" on="0"/>
      </contour>
      <contour>
        <pt x="246" y="89" on="1"/>
        <pt x="264" y="89" on="0"/>
        <pt x="286" y="101" on="1"/>
        <pt x="286" y="102" on="1"/>
        <pt x="290" y="183" on="0"/>
        <pt x="325" y="357" on="1"/>
        <pt x="305" y="363" on="0"/>
        <pt x="296" y="363" on="1"/>
        <pt x="275" y="363" on="0"/>
        <pt x="243" y="321" on="0"/>
        <pt x="234" y="288" on="1"/>
        <pt x="217" y="220" on="0"/>
        <pt x="217" y="89" on="0"/>
      </contour>
    </TTGlyph>
    <TTGlyph name="degree" xMin="37" yMin="478" xMax="325" yMax="717">
      <contour>
        <pt x="249" y="717" on="0"/>
        <pt x="325" y="658" on="0"/>
        <pt x="325" y="559" on="0"/>
        <pt x="250" y="478" on="0"/>
        <pt x="172" y="478" on="1"/>
        <pt x="117" y="478" on="0"/>
        <pt x="37" y="534" on="0"/>
        <pt x="37" y="643" on="0"/>
        <pt x="117" y="717" on="0"/>
      </contour>
      <contour>
        <pt x="137" y="572" on="0"/>
        <pt x="155" y="544" on="0"/>
        <pt x="200" y="544" on="0"/>
        <pt x="223" y="587" on="0"/>
        <pt x="223" y="624" on="0"/>
        <pt x="205" y="651" on="0"/>
        <pt x="162" y="651" on="0"/>
        <pt x="137" y="611" on="0"/>
      </contour>
    </TTGlyph>
    <TTGlyph name="dieresis" xMin="87" yMin="530" xMax="465" yMax="676">
      <contour>
        <pt x="129" y="530" on="0"/>
        <pt x="87" y="570" on="0"/>
        <pt x="87" y="633" on="0"/>
        <pt x="139" y="676" on="0"/>
        <pt x="213" y="676" on="0"/>
        <pt x="254" y="641" on="0"/>
        <pt x="254" y="577" on="0"/>
        <pt x="203" y="530" on="0"/>
      </contour>
      <contour>
        <pt x="340" y="530" on="0"/>
        <pt x="298" y="570" on="0"/>
        <pt x="298" y="633" on="0"/>
        <pt x="350" y="676" on="0"/>
        <pt x="424" y="676" on="0"/>
        <pt x="465" y="641" on="0"/>
        <pt x="465" y="577" on="0"/>
        <pt x="414" y="530" on="0"/>
      </contour>
    </TTGlyph>
    <TTGlyph name="dieresis.cap" xMin="121" yMin="757" xMax="515" yMax="903">
      <contour>
        <pt x="163" y="757" on="0"/>
        <pt x="121" y="797" on="0"/>
        <pt x="121" y="860" on="0"/>
        <pt x="173" y="903" on="0"/>
        <pt x="247" y="903" on="0"/>
        <pt x="288" y="868" on="0"/>
        <pt x="288" y="804" on="0"/>
        <pt x="237" y="757" on="0"/>
      </contour>
      <contour>
        <pt x="390" y="757" on="0"/>
        <pt x="348" y="797" on="0"/>
        <pt x="348" y="860" on="0"/>
        <pt x="400" y="903" on="0"/>
        <pt x="474" y="903" on="0"/>
        <pt x="515" y="868" on="0"/>
        <pt x="515" y="804" on="0"/>
        <pt x="464" y="757" on="0"/>
      </contour>
    </TTGlyph>
    <TTGlyph name="divide" xMin="67" yMin="27" xMax="487" yMax="525">
      <contour>
        <pt x="67" y="232" on="1"/>
        <pt x="67" y="292" on="0"/>
        <pt x="76" y="324" on="1"/>
        <pt x="487" y="324" on="1"/>
        <pt x="487" y="252" on="0"/>
        <pt x="481" y="232" on="1"/>
      </contour>
      <contour>
        <pt x="224" y="27" on="0"/>
        <pt x="190" y="62" on="0"/>
        <pt x="190" y="120" on="0"/>
        <pt x="236" y="161" on="0"/>
        <pt x="300" y="161" on="0"/>
        <pt x="333" y="127" on="0"/>
        <pt x="333" y="71" on="0"/>
        <pt x="287" y="27" on="0"/>
      </contour>
      <contour>
        <pt x="241" y="391" on="0"/>
        <pt x="207" y="426" on="0"/>
        <pt x="207" y="484" on="0"/>
        <pt x="253" y="525" on="0"/>
        <pt x="317" y="525" on="0"/>
        <pt x="350" y="491" on="0"/>
        <pt x="350" y="435" on="0"/>
        <pt x="304" y="391" on="0"/>
      </contour>
    </TTGlyph>
    <TTGlyph name="dollar" xMin="17" yMin="-121" xMax="486" yMax="807">
      <contour>
        <pt x="472" y="178" on="1"/>
        <pt x="472" y="105" on="0"/>
        <pt x="344" y="0" on="0"/>
        <pt x="252" y="-9" on="1"/>
        <pt x="246" y="-49" on="0"/>
        <pt x="243" y="-121" on="1"/>
        <pt x="204" y="-121" on="0"/>
        <pt x="159" y="-107" on="1"/>
        <pt x="177" y="-9" on="1"/>
        <pt x="109" y="-1" on="0"/>
        <pt x="17" y="62" on="0"/>
        <pt x="17" y="90" on="1"/>
        <pt x="31" y="128" on="0"/>
        <pt x="118" y="219" on="0"/>
        <pt x="156" y="221" on="1"/>
        <pt x="207" y="200" on="0"/>
        <pt x="243" y="66" on="1"/>
        <pt x="294" y="68" on="0"/>
        <pt x="294" y="124" on="1"/>
        <pt x="294" y="165" on="0"/>
        <pt x="231" y="281" on="0"/>
        <pt x="155" y="379" on="0"/>
        <pt x="92" y="500" on="0"/>
        <pt x="92" y="546" on="1"/>
        <pt x="92" y="619" on="0"/>
        <pt x="226" y="710" on="0"/>
        <pt x="313" y="710" on="1"/>
        <pt x="323" y="710" on="1"/>
        <pt x="329" y="760" on="0"/>
        <pt x="331" y="807" on="1"/>
        <pt x="368" y="807" on="0"/>
        <pt x="413" y="793" on="1"/>
        <pt x="394" y="697" on="1"/>
        <pt x="437" y="681" on="0"/>
        <pt x="486" y="621" on="0"/>
        <pt x="486" y="589" on="1"/>
        <pt x="486" y="515" on="0"/>
        <pt x="364" y="417" on="1"/>
        <pt x="376" y="402" on="0"/>
        <pt x="412" y="351" on="0"/>
        <pt x="472" y="224" on="0"/>
      </contour>
      <contour>
        <pt x="409" y="584" on="1"/>
        <pt x="409" y="633" on="0"/>
        <pt x="345" y="633" on="1"/>
        <pt x="311" y="633" on="0"/>
        <pt x="269" y="603" on="0"/>
        <pt x="269" y="581" on="1"/>
        <pt x="269" y="550" on="0"/>
        <pt x="305" y="500" on="1"/>
        <pt x="312" y="490" on="0"/>
        <pt x="320" y="479" on="1"/>
        <pt x="345" y="491" on="0"/>
        <pt x="409" y="554" on="0"/>
      </contour>
    </TTGlyph>
    <TTGlyph name="dotaccentcmb" xMin="121" yMin="728" xMax="291" yMax="882">
      <contour>
        <pt x="162" y="728" on="0"/>
        <pt x="121" y="768" on="0"/>
        <pt x="121" y="835" on="0"/>
        <pt x="176" y="882" on="0"/>
        <pt x="251" y="882" on="0"/>
        <pt x="291" y="843" on="0"/>
        <pt x="291" y="776" on="0"/>
        <pt x="237" y="728" on="0"/>
      </contour>
    </TTGlyph>
    <TTGlyph name="dotaccentcmb.cap" xMin="121" yMin="753" xMax="291" yMax="907">
      <contour>
        <pt x="162" y="753" on="0"/>
        <pt x="121" y="793" on="0"/>
        <pt x="121" y="860" on="0"/>
        <pt x="176" y="907" on="0"/>
        <pt x="251" y="907" on="0"/>
        <pt x="291" y="868" on="0"/>
        <pt x="291" y="801" on="0"/>
        <pt x="237" y="753" on="0"/>
      </contour>
    </TTGlyph>
    <TTGlyph name="dotlessi" xMin="33" yMin="-12" xMax="297" yMax="438">
      <contour>
        <pt x="269" y="331" on="0"/>
        <pt x="219" y="146" on="0"/>
        <pt x="219" y="90" on="0"/>
        <pt x="241" y="90" on="0"/>
        <pt x="270" y="100" on="1"/>
        <pt x="279" y="104" on="1"/>
        <pt x="297" y="54" on="1"/>
        <pt x="263" y="28" on="0"/>
        <pt x="162" y="-12" on="0"/>
        <pt x="80" y="-12" on="0"/>
        <pt x="33" y="34" on="0"/>
        <pt x="33" y="121" on="0"/>
        <pt x="82" y="300" on="0"/>
        <pt x="82" y="324" on="1"/>
        <pt x="82" y="361" on="0"/>
        <pt x="56" y="394" on="1"/>
        <pt x="48" y="405" on="1"/>
        <pt x="51" y="422" on="1"/>
        <pt x="103" y="438" on="0"/>
        <pt x="253" y="438" on="1"/>
        <pt x="269" y="420" on="0"/>
      </contour>
    </TTGlyph>
    <TTGlyph name="dotlessj" xMin="-142" yMin="-224" xMax="276" yMax="438">
      <contour>
        <pt x="13" y="-224" on="1"/>
        <pt x="-74" y="-224" on="0"/>
        <pt x="-142" y="-154" on="1"/>
        <pt x="-115" y="-111" on="1"/>
        <pt x="-83" y="-130" on="0"/>
        <pt x="-13" y="-130" on="0"/>
        <pt x="37" y="-37" on="0"/>
        <pt x="89" y="256" on="0"/>
        <pt x="89" y="326" on="1"/>
        <pt x="89" y="341" on="0"/>
        <pt x="69" y="380" on="0"/>
        <pt x="59" y="392" on="1"/>
        <pt x="49" y="404" on="1"/>
        <pt x="51" y="420" on="1"/>
        <pt x="123" y="438" on="0"/>
        <pt x="261" y="438" on="1"/>
        <pt x="276" y="421" on="0"/>
        <pt x="276" y="322" on="0"/>
        <pt x="240" y="92" on="0"/>
        <pt x="218" y="7" on="1"/>
        <pt x="157" y="-224" on="0"/>
      </contour>
    </TTGlyph>
    <TTGlyph name="e" xMin="20" yMin="-12" xMax="452" yMax="443">
      <contour>
        <pt x="20" y="181" on="1"/>
        <pt x="20" y="305" on="0"/>
        <pt x="171" y="443" on="0"/>
        <pt x="282" y="443" on="1"/>
        <pt x="359" y="443" on="0"/>
        <pt x="452" y="376" on="0"/>
        <pt x="452" y="320" on="1"/>
        <pt x="452" y="279" on="0"/>
        <pt x="402" y="215" on="0"/>
        <pt x="366" y="198" on="1"/>
        <pt x="290" y="164" on="0"/>
        <pt x="234" y="157" on="1"/>
        <pt x="209" y="154" on="1"/>
        <pt x="220" y="88" on="0"/>
        <pt x="275" y="88" on="1"/>
        <pt x="299" y="88" on="0"/>
        <pt x="357" y="109" on="0"/>
        <pt x="374" y="120" on="1"/>
        <pt x="391" y="130" on="1"/>
        <pt x="423" y="87" on="1"/>
        <pt x="423" y="87" on="0"/>
        <pt x="412" y="76" on="1"/>
        <pt x="406" y="70" on="0"/>
        <pt x="361" y="35" on="0"/>
        <pt x="312" y="9" on="0"/>
        <pt x="236" y="-12" on="0"/>
        <pt x="198" y="-12" on="1"/>
        <pt x="113" y="-12" on="0"/>
        <pt x="20" y="87" on="0"/>
      </contour>
      <contour>
        <pt x="234" y="224" on="0"/>
        <pt x="292" y="311" on="0"/>
        <pt x="292" y="370" on="0"/>
        <pt x="275" y="370" on="1"/>
        <pt x="250" y="370" on="0"/>
        <pt x="208" y="292" on="0"/>
        <pt x="205" y="220" on="1"/>
      </contour>
    </TTGlyph>
    <TTGlyph name="eacute" xMin="20" yMin="-12" xMax="453" yMax="707">
      <contour>
        <pt x="20" y="177" on="1"/>
        <pt x="20" y="305" on="0"/>
        <pt x="171" y="443" on="0"/>
        <pt x="284" y="443" on="1"/>
        <pt x="359" y="443" on="0"/>
        <pt x="452" y="376" on="0"/>
        <pt x="452" y="321" on="1"/>
        <pt x="452" y="281" on="0"/>
        <pt x="402" y="217" on="0"/>
        <pt x="366" y="200" on="1"/>
        <pt x="294" y="166" on="0"/>
        <pt x="234" y="158" on="1"/>
        <pt x="209" y="154" on="1"/>
        <pt x="220" y="88" on="0"/>
        <pt x="277" y="88" on="1"/>
        <pt x="299" y="88" on="0"/>
        <pt x="356" y="109" on="0"/>
        <pt x="374" y="120" on="1"/>
        <pt x="391" y="130" on="1"/>
        <pt x="423" y="87" on="1"/>
        <pt x="423" y="87" on="0"/>
        <pt x="412" y="76" on="1"/>
        <pt x="406" y="70" on="0"/>
        <pt x="361" y="35" on="0"/>
        <pt x="336" y="22" on="1"/>
        <pt x="272" y="-12" on="0"/>
        <pt x="114" y="-12" on="0"/>
        <pt x="20" y="86" on="0"/>
      </contour>
      <contour>
        <pt x="292" y="347" on="1"/>
        <pt x="292" y="370" on="0"/>
        <pt x="274" y="370" on="1"/>
        <pt x="250" y="370" on="0"/>
        <pt x="208" y="291" on="0"/>
        <pt x="205" y="220" on="1"/>
        <pt x="234" y="224" on="0"/>
        <pt x="292" y="311" on="0"/>
      </contour>
      <contour>
        <pt x="453" y="614" on="1"/>
        <pt x="453" y="579" on="0"/>
        <pt x="416" y="563" on="1"/>
        <pt x="360" y="537" on="0"/>
        <pt x="156" y="501" on="1"/>
        <pt x="139" y="551" on="1"/>
        <pt x="262" y="611" on="0"/>
        <pt x="413" y="707" on="1"/>
        <pt x="424" y="692" on="0"/>
        <pt x="453" y="628" on="0"/>
      </contour>
    </TTGlyph>
    <TTGlyph name="ecircumflex" xMin="20" yMin="-12" xMax="489" yMax="704">
      <contour>
        <pt x="20" y="177" on="1"/>
        <pt x="20" y="305" on="0"/>
        <pt x="171" y="443" on="0"/>
        <pt x="284" y="443" on="1"/>
        <pt x="359" y="443" on="0"/>
        <pt x="452" y="376" on="0"/>
        <pt x="452" y="321" on="1"/>
        <pt x="452" y="281" on="0"/>
        <pt x="402" y="217" on="0"/>
        <pt x="366" y="200" on="1"/>
        <pt x="294" y="166" on="0"/>
        <pt x="234" y="158" on="1"/>
        <pt x="209" y="154" on="1"/>
        <pt x="220" y="88" on="0"/>
        <pt x="277" y="88" on="1"/>
        <pt x="299" y="88" on="0"/>
        <pt x="356" y="109" on="0"/>
        <pt x="374" y="120" on="1"/>
        <pt x="391" y="130" on="1"/>
        <pt x="423" y="87" on="1"/>
        <pt x="423" y="87" on="0"/>
        <pt x="412" y="76" on="1"/>
        <pt x="406" y="70" on="0"/>
        <pt x="361" y="35" on="0"/>
        <pt x="336" y="22" on="1"/>
        <pt x="272" y="-12" on="0"/>
        <pt x="114" y="-12" on="0"/>
        <pt x="20" y="86" on="0"/>
      </contour>
      <contour>
        <pt x="292" y="347" on="1"/>
        <pt x="292" y="370" on="0"/>
        <pt x="274" y="370" on="1"/>
        <pt x="250" y="370" on="0"/>
        <pt x="208" y="291" on="0"/>
        <pt x="205" y="220" on="1"/>
        <pt x="234" y="224" on="0"/>
        <pt x="292" y="311" on="0"/>
      </contour>
      <contour>
        <pt x="145" y="601" on="0"/>
        <pt x="310" y="704" on="0"/>
        <pt x="377" y="704" on="0"/>
        <pt x="467" y="584" on="0"/>
        <pt x="489" y="539" on="1"/>
        <pt x="447" y="503" on="1"/>
        <pt x="357" y="562" on="0"/>
        <pt x="308" y="583" on="1"/>
        <pt x="230" y="560" on="0"/>
        <pt x="118" y="501" on="1"/>
        <pt x="86" y="548" on="1"/>
      </contour>
    </TTGlyph>
    <TTGlyph name="edieresis" xMin="20" yMin="-12" xMax="478" yMax="676">
      <contour>
        <pt x="20" y="177" on="1"/>
        <pt x="20" y="305" on="0"/>
        <pt x="171" y="443" on="0"/>
        <pt x="284" y="443" on="1"/>
        <pt x="359" y="443" on="0"/>
        <pt x="452" y="376" on="0"/>
        <pt x="452" y="321" on="1"/>
        <pt x="452" y="281" on="0"/>
        <pt x="402" y="217" on="0"/>
        <pt x="366" y="200" on="1"/>
        <pt x="294" y="166" on="0"/>
        <pt x="234" y="158" on="1"/>
        <pt x="209" y="154" on="1"/>
        <pt x="220" y="88" on="0"/>
        <pt x="277" y="88" on="1"/>
        <pt x="299" y="88" on="0"/>
        <pt x="356" y="109" on="0"/>
        <pt x="374" y="120" on="1"/>
        <pt x="391" y="130" on="1"/>
        <pt x="423" y="87" on="1"/>
        <pt x="423" y="87" on="0"/>
        <pt x="412" y="76" on="1"/>
        <pt x="406" y="70" on="0"/>
        <pt x="361" y="35" on="0"/>
        <pt x="336" y="22" on="1"/>
        <pt x="272" y="-12" on="0"/>
        <pt x="114" y="-12" on="0"/>
        <pt x="20" y="86" on="0"/>
      </contour>
      <contour>
        <pt x="292" y="347" on="1"/>
        <pt x="292" y="370" on="0"/>
        <pt x="274" y="370" on="1"/>
        <pt x="250" y="370" on="0"/>
        <pt x="208" y="291" on="0"/>
        <pt x="205" y="220" on="1"/>
        <pt x="234" y="224" on="0"/>
        <pt x="292" y="311" on="0"/>
      </contour>
      <contour>
        <pt x="142" y="530" on="0"/>
        <pt x="100" y="570" on="0"/>
        <pt x="100" y="633" on="0"/>
        <pt x="152" y="676" on="0"/>
        <pt x="226" y="676" on="0"/>
        <pt x="267" y="641" on="0"/>
        <pt x="267" y="577" on="0"/>
        <pt x="216" y="530" on="0"/>
      </contour>
      <contour>
        <pt x="353" y="530" on="0"/>
        <pt x="311" y="570" on="0"/>
        <pt x="311" y="633" on="0"/>
        <pt x="363" y="676" on="0"/>
        <pt x="437" y="676" on="0"/>
        <pt x="478" y="641" on="0"/>
        <pt x="478" y="577" on="0"/>
        <pt x="427" y="530" on="0"/>
      </contour>
    </TTGlyph>
    <TTGlyph name="egrave" xMin="20" yMin="-12" xMax="452" yMax="696">
      <contour>
        <pt x="20" y="177" on="1"/>
        <pt x="20" y="305" on="0"/>
        <pt x="171" y="443" on="0"/>
        <pt x="284" y="443" on="1"/>
        <pt x="359" y="443" on="0"/>
        <pt x="452" y="376" on="0"/>
        <pt x="452" y="321" on="1"/>
        <pt x="452" y="281" on="0"/>
        <pt x="402" y="217" on="0"/>
        <pt x="366" y="200" on="1"/>
        <pt x="294" y="166" on="0"/>
        <pt x="234" y="158" on="1"/>
        <pt x="209" y="154" on="1"/>
        <pt x="220" y="88" on="0"/>
        <pt x="277" y="88" on="1"/>
        <pt x="299" y="88" on="0"/>
        <pt x="356" y="109" on="0"/>
        <pt x="374" y="120" on="1"/>
        <pt x="391" y="130" on="1"/>
        <pt x="423" y="87" on="1"/>
        <pt x="423" y="87" on="0"/>
        <pt x="412" y="76" on="1"/>
        <pt x="406" y="70" on="0"/>
        <pt x="361" y="35" on="0"/>
        <pt x="336" y="22" on="1"/>
        <pt x="272" y="-12" on="0"/>
        <pt x="114" y="-12" on="0"/>
        <pt x="20" y="86" on="0"/>
      </contour>
      <contour>
        <pt x="292" y="347" on="1"/>
        <pt x="292" y="370" on="0"/>
        <pt x="274" y="370" on="1"/>
        <pt x="250" y="370" on="0"/>
        <pt x="208" y="291" on="0"/>
        <pt x="205" y="220" on="1"/>
        <pt x="234" y="224" on="0"/>
        <pt x="292" y="311" on="0"/>
      </contour>
      <contour>
        <pt x="183" y="696" on="1"/>
        <pt x="229" y="696" on="0"/>
        <pt x="442" y="547" on="1"/>
        <pt x="416" y="499" on="1"/>
        <pt x="270" y="551" on="0"/>
        <pt x="107" y="590" on="1"/>
        <pt x="143" y="696" on="0"/>
      </contour>
    </TTGlyph>
    <TTGlyph name="eight" xMin="37" yMin="-12" xMax="516" yMax="709">
      <contour>
        <pt x="231" y="-12" on="1"/>
        <pt x="148" y="-12" on="0"/>
        <pt x="37" y="74" on="0"/>
        <pt x="37" y="141" on="1"/>
        <pt x="37" y="244" on="0"/>
        <pt x="199" y="362" on="1"/>
        <pt x="119" y="471" on="0"/>
        <pt x="119" y="614" on="0"/>
        <pt x="254" y="709" on="0"/>
        <pt x="415" y="709" on="0"/>
        <pt x="516" y="643" on="0"/>
        <pt x="516" y="575" on="1"/>
        <pt x="516" y="493" on="0"/>
        <pt x="405" y="392" on="1"/>
        <pt x="454" y="326" on="0"/>
        <pt x="500" y="236" on="0"/>
        <pt x="500" y="196" on="1"/>
        <pt x="500" y="103" on="0"/>
        <pt x="338" y="-12" on="0"/>
      </contour>
      <contour>
        <pt x="157" y="146" on="1"/>
        <pt x="157" y="106" on="0"/>
        <pt x="205" y="64" on="0"/>
        <pt x="270" y="64" on="0"/>
        <pt x="321" y="101" on="0"/>
        <pt x="321" y="132" on="1"/>
        <pt x="321" y="179" on="0"/>
        <pt x="246" y="289" on="1"/>
        <pt x="157" y="219" on="0"/>
      </contour>
      <contour>
        <pt x="300" y="582" on="1"/>
        <pt x="300" y="537" on="0"/>
        <pt x="354" y="460" on="1"/>
        <pt x="381" y="483" on="0"/>
        <pt x="416" y="550" on="0"/>
        <pt x="416" y="607" on="0"/>
        <pt x="383" y="634" on="0"/>
        <pt x="338" y="634" on="0"/>
        <pt x="300" y="609" on="0"/>
      </contour>
    </TTGlyph>
    <TTGlyph name="emdash" xMin="61" yMin="239" xMax="944" yMax="331">
      <contour>
        <pt x="61" y="239" on="1"/>
        <pt x="61" y="277" on="0"/>
        <pt x="64" y="331" on="1"/>
        <pt x="944" y="331" on="1"/>
        <pt x="944" y="281" on="0"/>
        <pt x="941" y="239" on="1"/>
      </contour>
    </TTGlyph>
    <TTGlyph name="endash" xMin="51" yMin="239" xMax="543" yMax="331">
      <contour>
        <pt x="51" y="239" on="1"/>
        <pt x="51" y="296" on="0"/>
        <pt x="54" y="331" on="1"/>
        <pt x="543" y="331" on="1"/>
        <pt x="543" y="302" on="0"/>
        <pt x="540" y="239" on="1"/>
      </contour>
    </TTGlyph>
    <TTGlyph name="equal" xMin="82" yMin="152" xMax="448" yMax="397">
      <contour>
        <pt x="82" y="152" on="1"/>
        <pt x="82" y="205" on="0"/>
        <pt x="91" y="244" on="1"/>
        <pt x="448" y="244" on="1"/>
        <pt x="448" y="182" on="0"/>
        <pt x="442" y="152" on="1"/>
      </contour>
      <contour>
        <pt x="82" y="305" on="1"/>
        <pt x="82" y="355" on="0"/>
        <pt x="91" y="397" on="1"/>
        <pt x="448" y="397" on="1"/>
        <pt x="448" y="342" on="0"/>
        <pt x="443" y="305" on="1"/>
      </contour>
    </TTGlyph>
    <TTGlyph name="eth" xMin="19" yMin="-12" xMax="497" yMax="734">
      <contour>
        <pt x="497" y="301" on="1"/>
        <pt x="497" y="129" on="0"/>
        <pt x="379" y="37" on="1"/>
        <pt x="316" y="-12" on="0"/>
        <pt x="127" y="-12" on="0"/>
        <pt x="19" y="105" on="0"/>
        <pt x="19" y="287" on="0"/>
        <pt x="150" y="443" on="0"/>
        <pt x="253" y="443" on="1"/>
        <pt x="276" y="443" on="0"/>
        <pt x="295" y="439" on="1"/>
        <pt x="285" y="495" on="0"/>
        <pt x="268" y="535" on="1"/>
        <pt x="151" y="500" on="1"/>
        <pt x="143" y="508" on="0"/>
        <pt x="129" y="552" on="0"/>
        <pt x="129" y="568" on="1"/>
        <pt x="236" y="599" on="1"/>
        <pt x="204" y="650" on="0"/>
        <pt x="151" y="694" on="1"/>
        <pt x="178" y="734" on="1"/>
        <pt x="274" y="706" on="0"/>
        <pt x="352" y="634" on="1"/>
        <pt x="480" y="672" on="1"/>
        <pt x="485" y="665" on="0"/>
        <pt x="496" y="613" on="0"/>
        <pt x="496" y="604" on="1"/>
        <pt x="404" y="576" on="1"/>
        <pt x="497" y="450" on="0"/>
      </contour>
      <contour>
        <pt x="306" y="298" on="1"/>
        <pt x="306" y="321" on="0"/>
        <pt x="304" y="367" on="1"/>
        <pt x="298" y="367" on="1"/>
        <pt x="266" y="367" on="0"/>
        <pt x="242" y="336" on="1"/>
        <pt x="197" y="276" on="0"/>
        <pt x="197" y="166" on="1"/>
        <pt x="197" y="125" on="0"/>
        <pt x="218" y="65" on="0"/>
        <pt x="237" y="65" on="1"/>
        <pt x="271" y="65" on="0"/>
        <pt x="306" y="204" on="0"/>
      </contour>
    </TTGlyph>
    <TTGlyph name="exclam" xMin="35" yMin="-16" xMax="331" yMax="720">
      <contour>
        <pt x="81" y="-16" on="0"/>
        <pt x="35" y="28" on="0"/>
        <pt x="35" y="104" on="0"/>
        <pt x="97" y="161" on="0"/>
        <pt x="184" y="161" on="0"/>
        <pt x="231" y="114" on="0"/>
        <pt x="231" y="40" on="0"/>
        <pt x="167" y="-16" on="0"/>
      </contour>
      <contour>
        <pt x="331" y="667" on="1"/>
        <pt x="331" y="594" on="0"/>
        <pt x="236" y="259" on="0"/>
        <pt x="215" y="223" on="1"/>
        <pt x="184" y="212" on="0"/>
        <pt x="128" y="212" on="0"/>
        <pt x="108" y="216" on="1"/>
        <pt x="134" y="461" on="0"/>
        <pt x="134" y="599" on="1"/>
        <pt x="128" y="686" on="1"/>
        <pt x="238" y="720" on="0"/>
        <pt x="318" y="720" on="1"/>
        <pt x="331" y="704" on="0"/>
      </contour>
    </TTGlyph>
    <TTGlyph name="exclamdown" xMin="13" yMin="-284" xMax="309" yMax="452">
      <contour>
        <pt x="263" y="452" on="0"/>
        <pt x="309" y="408" on="0"/>
        <pt x="309" y="332" on="0"/>
        <pt x="247" y="275" on="0"/>
        <pt x="160" y="275" on="0"/>
        <pt x="113" y="322" on="0"/>
        <pt x="113" y="396" on="0"/>
        <pt x="177" y="452" on="0"/>
      </contour>
      <contour>
        <pt x="13" y="-231" on="1"/>
        <pt x="13" y="-158" on="0"/>
        <pt x="108" y="177" on="0"/>
        <pt x="129" y="213" on="1"/>
        <pt x="160" y="224" on="0"/>
        <pt x="216" y="224" on="0"/>
        <pt x="236" y="220" on="1"/>
        <pt x="210" y="-25" on="0"/>
        <pt x="210" y="-163" on="1"/>
        <pt x="216" y="-250" on="1"/>
        <pt x="106" y="-284" on="0"/>
        <pt x="26" y="-284" on="1"/>
        <pt x="13" y="-268" on="0"/>
      </contour>
    </TTGlyph>
    <TTGlyph name="f" xMin="9" yMin="-155" xMax="413" yMax="733">
      <contour>
        <pt x="358" y="354" on="1"/>
        <pt x="270" y="361" on="1"/>
        <pt x="261" y="192" on="0"/>
        <pt x="200" y="-116" on="0"/>
        <pt x="170" y="-155" on="1"/>
        <pt x="120" y="-154" on="0"/>
        <pt x="26" y="-133" on="0"/>
        <pt x="9" y="-123" on="1"/>
        <pt x="47" y="5" on="0"/>
        <pt x="79" y="192" on="0"/>
        <pt x="95" y="357" on="1"/>
        <pt x="29" y="350" on="1"/>
        <pt x="25" y="369" on="0"/>
        <pt x="25" y="408" on="0"/>
        <pt x="30" y="431" on="1"/>
        <pt x="102" y="431" on="1"/>
        <pt x="117" y="580" on="0"/>
        <pt x="144" y="632" on="1"/>
        <pt x="179" y="701" on="0"/>
        <pt x="228" y="720" on="1"/>
        <pt x="258" y="733" on="0"/>
        <pt x="350" y="733" on="0"/>
        <pt x="413" y="680" on="0"/>
        <pt x="413" y="591" on="0"/>
        <pt x="331" y="475" on="0"/>
        <pt x="273" y="431" on="1"/>
        <pt x="374" y="431" on="1"/>
        <pt x="374" y="386" on="0"/>
      </contour>
      <contour>
        <pt x="329" y="658" on="1"/>
        <pt x="287" y="658" on="0"/>
        <pt x="276" y="511" on="1"/>
        <pt x="311" y="539" on="0"/>
        <pt x="354" y="606" on="0"/>
        <pt x="354" y="658" on="0"/>
      </contour>
    </TTGlyph>
</ttFont>
